<svg width="369" height="378" viewBox="0 0 369 378" fill="none" xmlns="http://www.w3.org/2000/svg">
<g clip-path="url(#clip0_1_4)">
<path d="M284.079 180.47C281.911 181.534 279.711 182.559 277.513 183.523C275.315 184.487 273.097 185.407 270.896 186.265C268.692 187.117 266.48 187.919 264.299 188.66C262.11 189.398 259.931 190.076 257.785 190.694C255.641 191.302 253.514 191.848 251.434 192.333C249.357 192.809 247.305 193.227 245.316 193.568C243.325 193.903 241.38 194.176 239.497 194.373C237.617 194.577 235.784 194.703 234.038 194.757C232.291 194.811 230.601 194.791 229 194.705C227.398 194.618 225.872 194.45 224.437 194.22C223.006 193.982 221.657 193.68 220.401 193.302C219.154 192.927 217.993 192.479 216.94 191.971C215.889 191.454 214.931 190.876 214.086 190.236C213.244 189.586 212.502 188.878 211.874 188.108C211.249 187.344 210.728 186.513 210.324 185.626C209.922 184.745 209.633 183.8 209.457 182.808C209.283 181.822 209.223 180.774 209.275 179.692C209.331 178.602 209.508 177.467 209.789 176.297C210.078 175.13 210.481 173.915 210.992 172.678C211.51 171.437 212.137 170.158 212.87 168.865C213.606 167.564 214.451 166.239 215.399 164.894C216.35 163.555 217.408 162.188 218.555 160.821C219.703 159.455 220.963 158.072 222.304 156.688C223.648 155.309 225.082 153.917 226.598 152.539C228.114 151.16 229.723 149.774 231.398 148.417C233.076 147.051 234.832 145.692 236.648 144.365C238.467 143.029 240.355 141.713 242.296 140.431C244.228 139.147 246.229 137.882 248.265 136.661C250.299 135.434 252.391 134.239 254.504 133.088C256.616 131.937 258.776 130.824 260.944 129.76C263.111 128.697 265.311 127.671 267.509 126.707C269.707 125.744 271.919 124.827 274.13 123.972C276.331 123.113 278.543 122.311 280.726 121.577C282.912 120.833 285.091 120.154 287.241 119.543C289.382 118.929 291.509 118.382 293.586 117.906C295.666 117.421 297.714 117.013 299.709 116.669C301.698 116.328 303.646 116.061 305.526 115.857C307.409 115.66 309.232 115.53 310.985 115.473C312.731 115.42 314.422 115.439 316.023 115.526C317.621 115.621 319.151 115.781 320.582 116.019C322.017 116.249 323.368 116.557 324.615 116.932C325.868 117.304 327.029 117.751 328.083 118.259C329.133 118.776 330.092 119.354 330.934 120.004C331.779 120.645 332.523 121.358 333.148 122.122C333.776 122.893 334.297 123.723 334.699 124.605C335.104 125.492 335.393 126.436 335.566 127.422C335.742 128.414 335.799 129.457 335.744 130.547C335.691 131.628 335.514 132.763 335.234 133.933C334.944 135.1 334.542 136.315 334.024 137.556C333.516 138.8 332.886 140.072 332.15 141.374C331.417 142.667 330.568 144.001 329.623 145.337C328.672 146.675 327.615 148.043 326.467 149.409C325.313 150.778 324.063 152.164 322.719 153.543C321.378 154.927 319.94 156.313 318.427 157.698C316.906 159.079 315.299 160.456 313.621 161.823C311.946 163.18 310.19 164.539 308.377 165.872C306.555 167.202 304.668 168.518 302.729 169.805C300.794 171.084 298.793 172.348 296.76 173.575C294.718 174.799 292.631 175.991 290.519 177.142C288.406 178.294 285.151 179.921 284.079 180.47C283.009 181.025 285.171 179.965 284.079 180.47Z" fill="white"/>
<path d="M284.079 180.47C281.911 181.534 279.711 182.559 277.513 183.523C275.315 184.487 273.097 185.407 270.896 186.265C268.692 187.117 266.48 187.919 264.299 188.66C262.11 189.398 259.931 190.076 257.784 190.694C255.641 191.302 253.514 191.848 251.434 192.333C249.357 192.809 247.305 193.227 245.316 193.568C243.325 193.903 241.38 194.176 239.497 194.373C237.617 194.577 235.784 194.703 234.038 194.757C232.291 194.811 230.601 194.791 229 194.705C227.398 194.618 225.872 194.45 224.437 194.22C223.006 193.982 221.657 193.68 220.401 193.302C219.154 192.927 217.993 192.479 216.94 191.971C215.889 191.454 214.931 190.876 214.086 190.236C213.244 189.586 212.502 188.878 211.874 188.108C211.249 187.344 210.728 186.513 210.324 185.626C209.922 184.745 209.633 183.8 209.457 182.808C209.283 181.822 209.223 180.774 209.275 179.692C209.331 178.602 209.508 177.467 209.789 176.297C210.078 175.13 210.481 173.915 210.992 172.678C211.51 171.437 212.137 170.158 212.87 168.865C213.606 167.564 214.451 166.239 215.399 164.894C216.35 163.555 217.408 162.188 218.555 160.821C219.703 159.455 220.963 158.072 222.304 156.688C223.648 155.309 225.082 153.917 226.598 152.539C228.114 151.16 229.723 149.774 231.398 148.417C233.076 147.051 234.832 145.692 236.648 144.365C238.467 143.029 240.355 141.713 242.296 140.431C244.228 139.147 246.229 137.882 248.265 136.661C250.299 135.434 252.391 134.239 254.504 133.088C256.616 131.937 258.776 130.824 260.944 129.76C263.111 128.697 265.311 127.671 267.509 126.707C269.707 125.744 271.919 124.827 274.13 123.972C276.331 123.113 278.543 122.311 280.726 121.577C282.912 120.833 285.091 120.154 287.241 119.543C289.382 118.929 291.509 118.382 293.586 117.906C295.666 117.421 297.714 117.013 299.709 116.669C301.698 116.328 303.646 116.061 305.526 115.857C307.409 115.66 309.232 115.53 310.985 115.473C312.731 115.42 314.422 115.439 316.023 115.526C317.621 115.621 319.151 115.781 320.582 116.019C322.017 116.249 323.368 116.557 324.615 116.932C325.868 117.304 327.029 117.751 328.083 118.259C329.133 118.776 330.092 119.354 330.934 120.004C331.779 120.645 332.523 121.358 333.148 122.122C333.776 122.893 334.297 123.723 334.699 124.605C335.104 125.492 335.393 126.436 335.566 127.422C335.742 128.414 335.799 129.457 335.744 130.547C335.691 131.628 335.514 132.763 335.234 133.933C334.944 135.1 334.542 136.315 334.024 137.556C333.516 138.8 332.886 140.072 332.15 141.374C331.417 142.667 330.568 144.001 329.623 145.337C328.672 146.675 327.615 148.043 326.467 149.409C325.313 150.778 324.063 152.164 322.719 153.543C321.378 154.927 319.94 156.313 318.427 157.698C316.906 159.079 315.299 160.456 313.621 161.823C311.946 163.18 310.19 164.539 308.377 165.872C306.555 167.202 304.668 168.518 302.729 169.805C300.794 171.084 298.793 172.348 296.76 173.575C294.718 174.799 292.631 175.991 290.519 177.142C288.406 178.294 285.151 179.921 284.079 180.47ZM284.079 180.47C285.171 179.965 283.009 181.025 284.079 180.47Z" stroke="#1E1E1E" stroke-width="8" stroke-linecap="round"/>
<path d="M281.866 278.448C279.735 277.276 277.614 276.055 275.542 274.797C273.47 273.54 271.42 272.24 269.427 270.917C267.437 269.587 265.481 268.222 263.592 266.846C261.699 265.461 259.859 264.049 258.085 262.628C256.319 261.203 254.612 259.755 252.98 258.31C251.357 256.862 249.795 255.401 248.329 253.945C246.867 252.484 245.48 251.025 244.189 249.572C242.896 248.126 241.69 246.672 240.592 245.248C239.494 243.823 238.487 242.401 237.586 241.014C236.684 239.626 235.891 238.252 235.2 236.918C234.518 235.581 233.936 234.276 233.467 233.002C233.002 231.737 232.645 230.501 232.4 229.318C232.163 228.133 232.029 226.988 232.011 225.899C232.003 224.808 232.1 223.767 232.314 222.782C232.525 221.804 232.85 220.873 233.289 220.004C233.725 219.142 234.279 218.336 234.937 217.596C235.592 216.862 236.364 216.184 237.229 215.581C238.103 214.975 239.085 214.444 240.156 213.979C241.231 213.522 242.41 213.132 243.674 212.818C244.943 212.508 246.308 212.266 247.747 212.104C249.196 211.94 250.728 211.852 252.338 211.839C253.945 211.832 255.639 211.896 257.386 212.036C259.133 212.177 260.96 212.401 262.839 212.691C264.714 212.988 266.654 213.352 268.633 213.792C270.613 214.232 272.654 214.746 274.713 215.331C276.781 215.914 278.89 216.567 281.011 217.288C283.141 218.006 285.297 218.794 287.459 219.647C289.617 220.491 291.802 221.404 293.974 222.372C296.149 223.334 298.336 224.365 300.501 225.439C302.666 226.513 304.83 227.649 306.96 228.821C309.091 229.993 311.212 231.215 313.284 232.472C315.356 233.73 317.4 235.027 319.396 236.359C321.389 237.682 323.345 239.048 325.231 240.43C327.126 241.809 328.967 243.22 330.738 244.648C332.506 246.067 334.214 247.514 335.837 248.962C337.469 250.407 339.022 251.872 340.493 253.33C341.959 254.786 343.343 256.251 344.637 257.697C345.927 259.15 347.13 260.594 348.234 262.022C349.331 263.447 350.338 264.869 351.24 266.256C352.133 267.646 352.935 269.018 353.617 270.355C354.308 271.689 354.887 273 355.352 274.265C355.824 275.533 356.18 276.769 356.426 277.952C356.663 279.137 356.797 280.282 356.805 281.373C356.823 282.462 356.723 283.509 356.512 284.487C356.298 285.472 355.973 286.403 355.537 287.266C355.097 288.134 354.544 288.94 353.889 289.674C353.231 290.414 352.462 291.086 351.588 291.691C350.723 292.294 349.741 292.825 348.67 293.291C347.595 293.747 346.415 294.138 345.146 294.448C343.88 294.768 342.518 295.004 341.069 295.168C339.63 295.33 338.089 295.42 336.488 295.431C334.881 295.438 333.187 295.374 331.44 295.233C329.687 295.09 327.862 294.875 325.987 294.578C324.109 294.288 322.172 293.917 320.189 293.484C318.204 293.04 316.172 292.524 314.104 291.941C312.045 291.356 309.935 290.703 307.812 289.988C305.685 289.263 303.529 288.476 301.364 287.629C299.209 286.779 297.024 285.866 294.849 284.904C292.67 283.932 290.49 282.904 288.325 281.831C286.16 280.757 282.937 279.015 281.866 278.448C280.791 277.889 282.915 279.057 281.866 278.448Z" fill="white"/>
<path d="M281.536 275.867C279.406 274.694 277.285 273.473 275.213 272.215C273.141 270.958 271.091 269.658 269.098 268.335C267.108 267.006 265.152 265.64 263.263 264.264C261.37 262.879 259.53 261.468 257.755 260.046C255.99 258.621 254.283 257.174 252.651 255.729C251.028 254.281 249.466 252.819 248 251.364C246.538 249.902 245.151 248.443 243.86 246.99C242.566 245.544 241.36 244.091 240.263 242.666C239.165 241.241 238.158 239.819 237.257 238.432C236.355 237.045 235.562 235.67 234.871 234.336C234.189 232.999 233.606 231.694 233.138 230.42C232.673 229.155 232.316 227.919 232.071 226.736C231.834 225.551 231.699 224.406 231.682 223.317C231.674 222.226 231.771 221.185 231.985 220.2C232.196 219.222 232.521 218.291 232.96 217.422C233.396 216.56 233.949 215.754 234.608 215.014C235.263 214.28 236.035 213.602 236.9 212.999C237.774 212.394 238.756 211.863 239.827 211.397C240.902 210.941 242.081 210.55 243.344 210.236C244.614 209.926 245.979 209.684 247.418 209.522C248.867 209.358 250.399 209.271 252.009 209.257C253.616 209.25 255.309 209.314 257.057 209.455C258.804 209.595 260.631 209.819 262.509 210.11C264.384 210.406 266.325 210.77 268.304 211.211C270.283 211.651 272.325 212.164 274.384 212.75C276.452 213.332 278.561 213.985 280.682 214.706C282.812 215.425 284.968 216.212 287.129 217.065C289.288 217.909 291.473 218.822 293.645 219.79C295.82 220.752 298.007 221.784 300.172 222.857C302.337 223.931 304.501 225.067 306.631 226.239C308.762 227.412 310.882 228.633 312.955 229.891C315.027 231.148 317.071 232.445 319.067 233.777C321.059 235.101 323.015 236.466 324.902 237.848C326.797 239.227 328.638 240.639 330.409 242.066C332.177 243.485 333.885 244.932 335.507 246.38C337.139 247.826 338.693 249.29 340.164 250.749C341.63 252.204 343.014 253.669 344.308 255.116C345.598 256.568 346.801 258.012 347.905 259.44C349.002 260.865 350.009 262.287 350.911 263.674C351.804 265.064 352.606 266.436 353.288 267.773C353.979 269.107 354.558 270.419 355.023 271.683C355.494 272.951 355.851 274.187 356.097 275.37C356.334 276.555 356.468 277.7 356.476 278.792C356.494 279.88 356.394 280.927 356.183 281.906C355.969 282.89 355.643 283.821 355.207 284.684C354.768 285.552 354.215 286.358 353.56 287.092C352.902 287.832 352.133 288.504 351.259 289.11C350.394 289.713 349.412 290.243 348.34 290.709C347.266 291.166 346.086 291.556 344.817 291.867C343.551 292.186 342.189 292.422 340.74 292.587C339.301 292.748 337.759 292.838 336.158 292.849C334.552 292.856 332.858 292.792 331.111 292.651C329.358 292.508 327.533 292.293 325.658 291.997C323.78 291.706 321.842 291.336 319.86 290.902C317.875 290.458 315.843 289.942 313.775 289.359C311.716 288.774 309.606 288.121 307.482 287.406C305.356 286.682 303.2 285.894 301.035 285.047C298.88 284.197 296.695 283.284 294.519 282.322C292.341 281.35 290.161 280.323 287.996 279.249C285.831 278.175 282.608 276.433 281.536 275.867ZM281.536 275.867C282.586 276.476 280.462 275.307 281.536 275.867Z" stroke="#1E1E1E" stroke-width="8" stroke-linecap="round"/>
<path d="M84.1379 195.993C86.3897 195.007 88.681 194.063 90.9593 193.178C93.235 192.287 95.5314 191.446 97.8025 190.669C100.076 189.898 102.353 189.171 104.592 188.514C106.834 187.862 109.066 187.26 111.242 186.734C113.417 186.209 115.574 185.745 117.663 185.348C119.748 184.96 121.801 184.638 123.772 184.383C125.751 184.131 127.671 183.95 129.503 183.839C131.336 183.733 133.111 183.699 134.775 183.735C136.446 183.769 138.045 183.879 139.527 184.062C141.016 184.243 142.415 184.493 143.698 184.816C144.98 185.14 146.168 185.535 147.236 185.997C148.298 186.462 149.256 186.996 150.089 187.583C150.925 188.177 151.642 188.839 152.228 189.557C152.82 190.273 153.287 191.059 153.627 191.893C153.967 192.726 154.185 193.621 154.267 194.56C154.356 195.497 154.316 196.497 154.142 197.526C153.97 198.561 153.671 199.645 153.25 200.752C152.825 201.868 152.271 203.026 151.601 204.204C150.93 205.383 150.13 206.604 149.217 207.836C148.308 209.059 147.27 210.324 146.131 211.595C144.996 212.857 143.733 214.146 142.382 215.435C141.031 216.724 139.567 218.025 138.01 219.315C136.463 220.607 134.806 221.903 133.084 223.182C131.356 224.464 129.532 225.743 127.649 226.987C125.769 228.238 123.799 229.483 121.783 230.689C119.767 231.894 117.68 233.086 115.559 234.232C113.439 235.378 111.256 236.499 109.056 237.575C106.855 238.651 104.603 239.69 102.351 240.676C100.099 241.662 97.8108 242.612 95.5325 243.497C93.2542 244.382 90.9577 245.222 88.6866 245.999C86.4156 246.776 84.1362 247.497 81.8972 248.155C79.6582 248.813 77.4296 249.406 75.2476 249.934C73.0744 250.466 70.9178 250.93 68.8327 251.318C66.7414 251.709 64.6905 252.037 62.7174 252.286C60.7468 252.541 58.8203 252.724 56.9865 252.83C55.1528 252.935 53.387 252.973 51.7165 252.94C50.0434 252.9 48.4507 252.787 46.9647 252.613C45.4762 252.432 44.0742 252.176 42.7914 251.852C41.5087 251.529 40.3213 251.134 39.2593 250.668C38.1937 250.212 37.2359 249.679 36.4 249.085C35.5728 248.495 34.8535 247.827 34.2612 247.111C33.6689 246.395 33.202 245.61 32.8621 244.776C32.5222 243.942 32.3042 243.047 32.2219 242.108C32.1397 241.169 32.1818 240.175 32.3474 239.143C32.5217 238.114 32.8205 237.03 33.2453 235.914C33.6638 234.801 34.2181 233.643 34.8886 232.464C35.5591 231.285 36.3617 230.071 37.2743 228.839C38.1869 227.607 39.2192 226.344 40.3604 225.08C41.5016 223.815 42.7563 222.523 44.1075 221.233C45.4612 219.95 46.9311 218.647 48.4788 217.354C50.029 216.067 51.6829 214.766 53.411 213.484C55.1355 212.211 56.96 210.932 58.84 209.681C60.7262 208.428 62.6928 207.191 64.7061 205.98C66.7219 204.774 68.8119 203.589 70.9299 202.437C73.0505 201.29 75.2328 200.17 77.4359 199.1C79.6363 198.024 83.0223 196.511 84.1379 195.993C85.256 195.481 83.0042 196.467 84.1379 195.993Z" fill="white"/>
<path d="M84.1379 195.993C86.3897 195.007 88.681 194.063 90.9593 193.178C93.235 192.287 95.5314 191.446 97.8025 190.669C100.076 189.898 102.353 189.171 104.592 188.514C106.834 187.862 109.066 187.26 111.242 186.734C113.417 186.209 115.574 185.745 117.663 185.348C119.748 184.96 121.801 184.638 123.772 184.383C125.751 184.131 127.671 183.95 129.503 183.839C131.336 183.733 133.111 183.699 134.775 183.735C136.446 183.769 138.045 183.879 139.527 184.062C141.016 184.243 142.415 184.493 143.698 184.816C144.98 185.14 146.168 185.535 147.236 185.997C148.298 186.462 149.256 186.996 150.089 187.583C150.925 188.177 151.642 188.839 152.228 189.557C152.82 190.273 153.287 191.059 153.627 191.893C153.967 192.726 154.185 193.621 154.267 194.56C154.356 195.497 154.316 196.497 154.142 197.526C153.97 198.561 153.671 199.645 153.25 200.752C152.825 201.868 152.271 203.026 151.601 204.204C150.93 205.383 150.13 206.604 149.217 207.836C148.308 209.059 147.27 210.324 146.131 211.595C144.996 212.857 143.733 214.146 142.382 215.435C141.031 216.724 139.567 218.025 138.01 219.315C136.463 220.607 134.806 221.903 133.084 223.182C131.356 224.464 129.532 225.743 127.649 226.987C125.769 228.238 123.799 229.483 121.783 230.689C119.767 231.894 117.68 233.086 115.559 234.232C113.439 235.378 111.256 236.499 109.056 237.575C106.855 238.651 104.603 239.69 102.351 240.676C100.099 241.662 97.8108 242.612 95.5325 243.497C93.2542 244.382 90.9577 245.222 88.6866 245.999C86.4156 246.776 84.1362 247.497 81.8972 248.155C79.6582 248.813 77.4296 249.406 75.2476 249.934C73.0744 250.466 70.9178 250.93 68.8327 251.318C66.7414 251.709 64.6905 252.037 62.7174 252.286C60.7468 252.541 58.8203 252.724 56.9865 252.83C55.1528 252.935 53.387 252.973 51.7165 252.94C50.0434 252.9 48.4507 252.787 46.9647 252.613C45.4762 252.432 44.0742 252.176 42.7914 251.852C41.5087 251.529 40.3213 251.134 39.2593 250.668C38.1937 250.212 37.2359 249.679 36.4 249.085C35.5728 248.495 34.8535 247.827 34.2612 247.111C33.6689 246.395 33.202 245.61 32.8621 244.776C32.5222 243.942 32.3042 243.047 32.2219 242.108C32.1397 241.169 32.1818 240.175 32.3474 239.143C32.5217 238.114 32.8205 237.03 33.2453 235.914C33.6638 234.801 34.2181 233.643 34.8886 232.464C35.5591 231.285 36.3617 230.071 37.2743 228.839C38.1869 227.607 39.2192 226.344 40.3604 225.08C41.5016 223.815 42.7563 222.523 44.1075 221.233C45.4612 219.95 46.9311 218.647 48.4788 217.354C50.029 216.067 51.6829 214.766 53.411 213.484C55.1355 212.211 56.96 210.932 58.84 209.681C60.7262 208.428 62.6928 207.191 64.7061 205.98C66.7219 204.774 68.8119 203.589 70.9299 202.437C73.0505 201.29 75.2328 200.17 77.4359 199.1C79.6363 198.024 83.0224 196.511 84.1379 195.993ZM84.1379 195.993C83.0042 196.467 85.256 195.481 84.1379 195.993Z" stroke="#1E1E1E" stroke-width="8" stroke-linecap="round"/>
<path d="M111.594 123.507C113.628 124.741 115.65 126.023 117.615 127.336C119.587 128.652 121.535 130.01 123.419 131.385C125.303 132.76 127.151 134.17 128.92 135.595C130.698 137.019 132.424 138.466 134.061 139.916C135.705 141.37 137.284 142.84 138.776 144.298C140.258 145.759 141.674 147.226 142.994 148.684C144.311 150.132 145.54 151.583 146.67 153.014C147.798 154.435 148.835 155.849 149.756 157.234C150.68 158.612 151.512 159.973 152.218 161.292C152.931 162.613 153.536 163.902 154.02 165.141C154.51 166.384 154.887 167.59 155.143 168.731C155.402 169.882 155.548 170.981 155.571 172.02C155.594 173.06 155.498 174.044 155.292 174.96C155.085 175.876 154.764 176.731 154.325 177.515C153.886 178.299 153.331 179.011 152.667 179.65C152.003 180.29 151.228 180.861 150.348 181.353C149.472 181.839 148.478 182.254 147.389 182.587C146.309 182.918 145.115 183.172 143.835 183.341C142.561 183.514 141.186 183.601 139.73 183.607C138.28 183.617 136.732 183.536 135.125 183.378C133.514 183.227 131.82 182.985 130.077 182.664C128.324 182.346 126.505 181.948 124.646 181.469C122.777 180.993 120.853 180.435 118.901 179.812C116.947 179.18 114.94 178.475 112.915 177.703C110.895 176.935 108.835 176.086 106.769 175.177C104.705 174.278 102.616 173.299 100.538 172.271C98.4598 171.243 96.3643 170.148 94.2923 169.012C92.2261 167.878 90.1574 166.68 88.1239 165.446C86.0903 164.213 84.0685 162.93 82.0969 161.614C80.1312 160.301 78.183 158.943 76.2993 157.568C74.4156 156.193 72.5671 154.783 70.7922 153.354C69.0199 151.935 67.2944 150.487 65.651 149.034C64.0134 147.583 62.4344 146.113 60.9425 144.655C59.4598 143.195 58.0382 141.723 56.7246 140.269C55.4076 138.821 54.1727 137.367 53.0483 135.94C51.9205 134.518 50.8832 133.104 49.9622 131.72C49.0321 130.338 48.2065 128.98 47.4999 127.662C46.7873 126.34 46.182 125.051 45.6921 123.808C45.2082 122.569 44.8314 121.363 44.5751 120.222C44.3163 119.071 44.1731 117.967 44.1471 116.933C44.1244 115.893 44.2139 114.906 44.4206 113.99C44.6332 113.077 44.9546 112.222 45.3932 111.438C45.8318 110.654 46.3876 109.942 47.0455 109.299C47.7093 108.66 48.4904 108.092 49.3702 107.6C50.25 107.108 51.2403 106.699 52.3294 106.366C53.4093 106.035 54.6031 105.782 55.8772 105.609C57.1572 105.44 58.5326 105.352 59.9884 105.346C61.4384 105.336 62.9804 105.414 64.5936 105.575C66.2043 105.727 67.8979 105.969 69.6417 106.289C71.3888 106.604 73.213 107.005 75.0724 107.484C76.9351 107.956 78.8656 108.518 80.817 109.141C82.771 109.774 84.7785 110.478 86.7978 111.246C88.8229 112.018 90.8832 112.867 92.9435 113.772C95.013 114.675 97.1027 115.654 99.1805 116.682C101.258 117.71 103.354 118.805 105.42 119.938C107.492 121.075 110.561 122.912 111.594 123.507C112.622 124.098 110.588 122.865 111.594 123.507Z" fill="white"/>
<path d="M111.594 123.507C113.628 124.741 115.65 126.023 117.615 127.336C119.587 128.652 121.535 130.01 123.419 131.385C125.303 132.76 127.151 134.17 128.92 135.595C130.698 137.019 132.424 138.466 134.061 139.916C135.705 141.37 137.284 142.84 138.776 144.298C140.258 145.759 141.674 147.226 142.994 148.684C144.311 150.132 145.54 151.583 146.67 153.014C147.798 154.435 148.835 155.849 149.756 157.234C150.68 158.612 151.512 159.973 152.218 161.292C152.931 162.613 153.536 163.902 154.02 165.141C154.51 166.384 154.887 167.59 155.143 168.731C155.402 169.882 155.548 170.981 155.571 172.02C155.594 173.06 155.498 174.044 155.292 174.96C155.085 175.876 154.764 176.731 154.325 177.515C153.886 178.299 153.331 179.011 152.667 179.65C152.003 180.29 151.228 180.861 150.348 181.353C149.472 181.839 148.478 182.254 147.389 182.587C146.309 182.918 145.115 183.172 143.835 183.341C142.561 183.514 141.186 183.601 139.73 183.607C138.28 183.617 136.732 183.536 135.125 183.378C133.514 183.227 131.82 182.985 130.077 182.664C128.324 182.346 126.505 181.948 124.646 181.469C122.777 180.993 120.853 180.435 118.901 179.812C116.947 179.18 114.94 178.475 112.915 177.703C110.895 176.935 108.835 176.086 106.769 175.177C104.705 174.278 102.616 173.299 100.538 172.271C98.4598 171.243 96.3643 170.148 94.2923 169.012C92.2261 167.878 90.1574 166.68 88.1239 165.446C86.0903 164.213 84.0685 162.93 82.0969 161.614C80.1312 160.301 78.183 158.943 76.2993 157.568C74.4156 156.193 72.5671 154.783 70.7922 153.354C69.0199 151.935 67.2944 150.487 65.651 149.034C64.0134 147.583 62.4344 146.113 60.9425 144.655C59.4598 143.195 58.0382 141.723 56.7246 140.269C55.4076 138.821 54.1727 137.367 53.0483 135.94C51.9205 134.518 50.8832 133.104 49.9622 131.72C49.0321 130.338 48.2065 128.98 47.4999 127.662C46.7873 126.34 46.182 125.051 45.6921 123.808C45.2082 122.569 44.8314 121.363 44.5751 120.222C44.3163 119.071 44.1731 117.967 44.1471 116.933C44.1244 115.893 44.2139 114.906 44.4206 113.99C44.6332 113.077 44.9546 112.222 45.3932 111.438C45.8318 110.654 46.3876 109.942 47.0455 109.299C47.7093 108.66 48.4904 108.092 49.3702 107.6C50.25 107.108 51.2403 106.699 52.3294 106.366C53.4093 106.035 54.6031 105.782 55.8772 105.609C57.1572 105.44 58.5326 105.352 59.9884 105.346C61.4384 105.336 62.9804 105.414 64.5936 105.575C66.2043 105.727 67.8979 105.969 69.6417 106.289C71.3888 106.604 73.213 107.005 75.0724 107.484C76.9351 107.956 78.8656 108.518 80.817 109.141C82.771 109.774 84.7785 110.478 86.7978 111.246C88.8229 112.018 90.8832 112.867 92.9435 113.772C95.013 114.675 97.1027 115.654 99.1805 116.682C101.258 117.71 103.354 118.805 105.42 119.938C107.492 121.075 110.561 122.912 111.594 123.507ZM111.594 123.507C110.588 122.865 112.622 124.098 111.594 123.507Z" stroke="#1E1E1E" stroke-width="8" stroke-linecap="round"/>
<path d="M169.687 89.3161C170.589 91.6112 171.452 93.9379 172.261 96.2574C173.064 98.5796 173.829 100.918 174.527 103.239C175.226 105.559 175.876 107.886 176.468 110.177C177.055 112.476 177.586 114.763 178.058 117.013C178.528 119.257 178.939 121.481 179.286 123.657C179.631 125.826 179.92 127.965 180.138 130.037C180.35 132.111 180.505 134.134 180.595 136.086C180.685 138.038 180.703 139.938 180.661 141.743C180.614 143.55 180.51 145.29 180.334 146.94C180.158 148.59 179.919 150.154 179.62 151.622C179.312 153.086 178.941 154.465 178.514 155.738C178.084 157.005 177.595 158.177 177.048 159.238C176.498 160.292 175.882 161.253 175.224 162.089C174.557 162.922 173.834 163.649 173.057 164.257C172.286 164.861 171.463 165.352 170.592 165.721C169.72 166.089 168.794 166.337 167.835 166.463C166.876 166.59 165.869 166.593 164.831 166.481C163.79 166.363 162.708 166.119 161.604 165.764C160.497 165.403 159.351 164.922 158.189 164.327C157.025 163.726 155.83 163.01 154.629 162.183C153.419 161.352 152.193 160.408 150.955 159.355C149.723 158.3 148.469 157.134 147.216 155.876C145.97 154.616 144.708 153.242 143.456 151.781C142.197 150.322 140.944 148.764 139.703 147.124C138.462 145.485 137.22 143.748 136.004 141.948C134.785 140.14 133.579 138.253 132.402 136.307C131.222 134.356 130.06 132.336 128.935 130.263C127.807 128.199 126.703 126.065 125.638 123.899C124.579 121.73 123.543 119.507 122.557 117.262C121.565 115.02 120.613 112.73 119.711 110.435C118.809 108.14 117.945 105.814 117.143 103.491C116.334 101.172 115.578 98.8375 114.87 96.513C114.171 94.1922 113.522 91.8657 112.937 89.5723C112.343 87.2751 111.812 84.9888 111.339 82.7382C110.869 80.4941 110.459 78.2702 110.114 76.1013C109.767 73.926 109.487 71.7901 109.266 69.7121C109.048 67.6405 108.893 65.6176 108.809 63.6626C108.719 61.7104 108.697 59.8197 108.736 58.0089C108.784 56.2018 108.894 54.459 109.064 52.8117C109.242 51.1681 109.479 49.5979 109.787 48.1334C110.086 46.6651 110.457 45.2869 110.886 44.0198C111.313 42.7461 111.809 41.5717 112.356 40.5111C112.906 39.4568 113.516 38.498 114.183 37.6659C114.847 36.8272 115.57 36.0997 116.341 35.4949C117.112 34.8901 117.941 34.3964 118.812 34.0282C119.684 33.66 120.603 33.4146 121.563 33.2883C122.528 33.1592 123.535 33.1557 124.576 33.2739C125.607 33.3883 126.696 33.6294 127.8 33.9845C128.907 34.3461 130.047 34.8294 131.211 35.4307C132.373 36.0254 133.568 36.7419 134.778 37.5725C135.979 38.3993 137.207 39.3504 138.443 40.3963C139.681 41.4487 140.929 42.6178 142.182 43.8752C143.431 45.1417 144.696 46.5067 145.948 47.968C147.2 49.4293 148.454 50.9879 149.701 52.6246C150.945 54.2704 152.178 56.0033 153.397 57.8104C154.613 59.6111 155.819 61.4989 156.996 63.4441C158.176 65.3958 159.338 67.4153 160.469 69.4857C161.59 71.5523 162.695 73.6867 163.76 75.8527C164.828 78.0251 165.855 80.2448 166.847 82.4869C167.833 84.7317 169.218 88.1798 169.687 89.3161C170.162 90.4498 169.262 88.1612 169.687 89.3161Z" fill="white"/>
<path d="M169.687 89.3161C170.589 91.6112 171.452 93.9379 172.261 96.2574C173.064 98.5796 173.829 100.918 174.527 103.239C175.226 105.559 175.876 107.886 176.468 110.177C177.055 112.476 177.586 114.763 178.058 117.013C178.528 119.257 178.939 121.481 179.286 123.657C179.631 125.826 179.92 127.965 180.138 130.037C180.35 132.111 180.505 134.134 180.595 136.086C180.685 138.038 180.703 139.938 180.661 141.743C180.614 143.55 180.51 145.29 180.334 146.94C180.158 148.59 179.919 150.154 179.62 151.622C179.312 153.086 178.941 154.465 178.514 155.738C178.084 157.005 177.595 158.177 177.048 159.238C176.498 160.292 175.882 161.253 175.224 162.089C174.557 162.922 173.834 163.649 173.057 164.257C172.286 164.861 171.463 165.352 170.592 165.721C169.72 166.089 168.794 166.337 167.835 166.463C166.876 166.59 165.869 166.593 164.831 166.481C163.79 166.363 162.708 166.119 161.604 165.764C160.497 165.403 159.351 164.922 158.189 164.327C157.025 163.726 155.83 163.01 154.629 162.183C153.419 161.352 152.193 160.408 150.955 159.355C149.723 158.3 148.469 157.134 147.216 155.876C145.97 154.616 144.708 153.242 143.456 151.781C142.197 150.322 140.944 148.764 139.703 147.124C138.462 145.485 137.22 143.748 136.004 141.948C134.785 140.14 133.579 138.253 132.402 136.307C131.222 134.356 130.06 132.336 128.935 130.263C127.807 128.199 126.703 126.065 125.638 123.899C124.579 121.73 123.543 119.507 122.557 117.262C121.565 115.02 120.613 112.73 119.711 110.435C118.809 108.14 117.945 105.814 117.143 103.491C116.334 101.172 115.578 98.8375 114.87 96.513C114.171 94.1922 113.522 91.8657 112.937 89.5723C112.343 87.2751 111.812 84.9888 111.339 82.7382C110.869 80.4941 110.459 78.2702 110.114 76.1013C109.767 73.926 109.487 71.7901 109.266 69.7121C109.048 67.6405 108.893 65.6176 108.809 63.6626C108.719 61.7104 108.697 59.8197 108.736 58.0089C108.784 56.2018 108.894 54.459 109.064 52.8117C109.242 51.1681 109.479 49.5979 109.787 48.1334C110.086 46.6651 110.457 45.2869 110.886 44.0198C111.313 42.7461 111.809 41.5717 112.356 40.5111C112.906 39.4568 113.516 38.498 114.183 37.6659C114.847 36.8272 115.57 36.0997 116.341 35.4949C117.112 34.8901 117.941 34.3964 118.812 34.0282C119.684 33.66 120.603 33.4146 121.563 33.2883C122.528 33.1592 123.535 33.1557 124.576 33.2739C125.607 33.3883 126.696 33.6294 127.8 33.9845C128.907 34.3461 130.047 34.8294 131.211 35.4307C132.373 36.0254 133.568 36.7419 134.778 37.5725C135.979 38.3993 137.207 39.3504 138.443 40.3963C139.681 41.4487 140.929 42.6178 142.182 43.8752C143.431 45.1417 144.696 46.5067 145.948 47.968C147.2 49.4293 148.454 50.9879 149.701 52.6246C150.945 54.2704 152.178 56.0033 153.397 57.8104C154.613 59.6111 155.819 61.4989 156.996 63.4441C158.176 65.3958 159.338 67.4153 160.469 69.4857C161.59 71.5523 162.695 73.6867 163.76 75.8527C164.828 78.0251 165.855 80.2448 166.847 82.4869C167.833 84.7317 169.218 88.1798 169.687 89.3161ZM169.687 89.3161C169.262 88.1612 170.162 90.4498 169.687 89.3161Z" stroke="#1E1E1E" stroke-width="8" stroke-linecap="round"/>
<path d="M237.907 268.63C238.809 270.925 239.672 273.252 240.475 275.574C241.277 277.896 242.036 280.236 242.734 282.557C243.427 284.88 244.07 287.209 244.655 289.503C245.237 291.805 245.761 294.094 246.227 296.347C246.684 298.596 247.082 300.825 247.423 303.003C247.755 305.177 248.032 307.322 248.237 309.399C248.436 311.478 248.578 313.506 248.65 315.467C248.727 317.424 248.733 319.329 248.672 321.141C248.612 322.954 248.483 324.704 248.294 326.36C248.106 328.015 247.841 329.589 247.524 331.065C247.197 332.538 246.813 333.921 246.361 335.205C245.913 336.48 245.399 337.663 244.832 338.731C244.257 339.796 243.628 340.763 242.945 341.609C242.253 342.452 241.512 343.188 240.716 343.803C239.926 344.416 239.078 344.917 238.182 345.296C237.291 345.672 236.347 345.929 235.363 346.065C234.385 346.2 233.352 346.214 232.296 346.11C231.23 346.003 230.129 345.767 229 345.423C227.874 345.069 226.709 344.596 225.529 344.01C224.346 343.416 223.132 342.708 221.912 341.889C220.684 341.067 219.439 340.13 218.182 339.086C216.931 338.039 215.659 336.88 214.393 335.628C213.128 334.376 211.854 333.008 210.583 331.554C209.319 330.099 208.047 328.548 206.793 326.914C205.54 325.28 204.285 323.549 203.063 321.751C201.832 319.949 200.613 318.067 199.43 316.125C198.238 314.178 197.07 312.162 195.939 310.091C194.805 308.03 193.694 305.899 192.629 303.733C191.558 301.57 190.522 299.346 189.53 297.104C188.538 294.862 187.587 292.573 186.684 290.278C185.782 287.983 184.919 285.657 184.117 283.335C183.314 281.013 182.558 278.678 181.863 276.349C181.164 274.028 180.521 271.699 179.942 269.403C179.355 267.103 178.83 264.815 178.371 262.559C177.907 260.312 177.509 258.083 177.177 255.909C176.836 253.731 176.569 251.59 176.361 249.507C176.155 247.43 176.019 245.399 175.942 243.442C175.87 241.482 175.861 239.586 175.919 237.767C175.98 235.955 176.109 234.204 176.297 232.549C176.494 230.897 176.75 229.319 177.077 227.847C177.394 226.371 177.784 224.985 178.233 223.71C178.679 222.428 179.193 221.246 179.759 220.177C180.335 219.112 180.963 218.146 181.655 217.303C182.338 216.456 183.086 215.718 183.876 215.105C184.672 214.49 185.52 213.988 186.41 213.612C187.306 213.233 188.251 212.977 189.229 212.843C190.213 212.706 191.239 212.694 192.305 212.802C193.361 212.906 194.463 213.141 195.592 213.486C196.717 213.839 197.882 214.312 199.065 214.905C200.252 215.489 201.459 216.2 202.688 217.023C203.908 217.842 205.161 218.782 206.409 219.823C207.66 220.87 208.933 222.028 210.198 223.28C211.466 224.538 212.744 225.898 214.008 227.354C215.279 228.807 216.545 230.36 217.804 231.992C219.06 233.632 220.306 235.359 221.537 237.161C222.76 238.959 223.978 240.841 225.168 242.781C226.354 244.73 227.522 246.747 228.659 248.814C229.787 250.878 230.897 253.01 231.968 255.173C233.036 257.345 234.069 259.562 235.061 261.804C236.053 264.046 237.438 267.494 237.907 268.63C238.382 269.764 237.482 267.475 237.907 268.63Z" fill="white"/>
<path d="M237.907 268.63C238.809 270.925 239.672 273.252 240.475 275.574C241.277 277.896 242.036 280.236 242.734 282.557C243.427 284.88 244.07 287.209 244.655 289.503C245.237 291.805 245.761 294.094 246.227 296.347C246.684 298.596 247.082 300.825 247.423 303.003C247.755 305.177 248.032 307.322 248.237 309.399C248.436 311.478 248.578 313.506 248.65 315.467C248.727 317.424 248.733 319.329 248.672 321.141C248.612 322.954 248.483 324.704 248.294 326.359C248.106 328.015 247.841 329.589 247.524 331.065C247.197 332.538 246.813 333.921 246.361 335.205C245.913 336.48 245.399 337.663 244.832 338.731C244.257 339.796 243.628 340.763 242.945 341.609C242.253 342.452 241.512 343.188 240.716 343.803C239.926 344.416 239.078 344.917 238.182 345.296C237.291 345.672 236.347 345.929 235.363 346.066C234.385 346.2 233.352 346.214 232.296 346.11C231.23 346.003 230.129 345.767 229 345.423C227.874 345.069 226.709 344.596 225.529 344.01C224.346 343.416 223.132 342.708 221.912 341.889C220.684 341.067 219.439 340.13 218.182 339.086C216.931 338.039 215.659 336.88 214.393 335.628C213.128 334.376 211.854 333.008 210.583 331.555C209.319 330.099 208.047 328.548 206.793 326.914C205.54 325.28 204.285 323.549 203.063 321.751C201.832 319.949 200.613 318.067 199.43 316.125C198.238 314.178 197.07 312.162 195.939 310.091C194.805 308.03 193.694 305.899 192.629 303.733C191.558 301.57 190.522 299.346 189.53 297.104C188.538 294.862 187.587 292.573 186.684 290.278C185.782 287.983 184.919 285.657 184.117 283.335C183.314 281.013 182.558 278.678 181.863 276.349C181.164 274.028 180.521 271.699 179.942 269.403C179.355 267.103 178.83 264.815 178.371 262.559C177.907 260.312 177.509 258.083 177.177 255.909C176.836 253.731 176.569 251.59 176.361 249.507C176.155 247.43 176.019 245.399 175.942 243.442C175.87 241.482 175.861 239.586 175.919 237.767C175.98 235.955 176.109 234.204 176.297 232.549C176.494 230.897 176.75 229.319 177.077 227.847C177.394 226.371 177.784 224.985 178.233 223.71C178.679 222.428 179.193 221.246 179.759 220.177C180.335 219.112 180.963 218.146 181.655 217.303C182.338 216.456 183.086 215.718 183.876 215.105C184.672 214.49 185.52 213.988 186.41 213.612C187.306 213.233 188.251 212.977 189.229 212.843C190.213 212.706 191.239 212.694 192.305 212.802C193.361 212.906 194.463 213.141 195.592 213.486C196.717 213.839 197.882 214.312 199.065 214.905C200.252 215.489 201.459 216.2 202.688 217.023C203.908 217.842 205.161 218.782 206.409 219.823C207.66 220.87 208.933 222.028 210.198 223.28C211.466 224.538 212.744 225.898 214.008 227.354C215.279 228.807 216.545 230.36 217.804 231.992C219.06 233.632 220.306 235.359 221.537 237.161C222.76 238.959 223.978 240.841 225.168 242.781C226.354 244.73 227.522 246.747 228.659 248.814C229.787 250.878 230.897 253.01 231.968 255.173C233.036 257.345 234.069 259.562 235.061 261.804C236.053 264.046 237.438 267.494 237.907 268.63ZM237.907 268.63C237.482 267.475 238.382 269.764 237.907 268.63Z" stroke="#1E1E1E" stroke-width="8" stroke-linecap="round"/>
<path d="M245.265 119.661C244.197 121.861 243.08 124.052 241.927 126.191C240.773 128.331 239.577 130.448 238.357 132.506C237.13 134.56 235.867 136.58 234.591 138.53C233.306 140.483 231.994 142.383 230.669 144.214C229.341 146.036 227.988 147.798 226.636 149.481C225.28 151.156 223.908 152.767 222.54 154.279C221.165 155.787 219.79 157.218 218.417 158.548C217.051 159.882 215.675 161.125 214.323 162.256C212.97 163.387 211.618 164.424 210.295 165.353C208.973 166.281 207.658 167.097 206.38 167.808C205.099 168.509 203.845 169.107 202.618 169.587C201.399 170.064 200.205 170.43 199.058 170.68C197.909 170.921 196.795 171.056 195.732 171.07C194.667 171.075 193.646 170.972 192.677 170.747C191.714 170.525 190.792 170.186 189.928 169.729C189.07 169.275 188.263 168.7 187.516 168.016C186.776 167.336 186.086 166.535 185.466 165.638C184.843 164.732 184.289 163.714 183.795 162.604C183.311 161.491 182.887 160.269 182.535 158.961C182.186 157.647 181.901 156.234 181.691 154.744C181.478 153.244 181.338 151.659 181.267 149.993C181.202 148.33 181.203 146.578 181.277 144.771C181.352 142.964 181.504 141.074 181.721 139.131C181.943 137.192 182.229 135.185 182.587 133.139C182.946 131.093 183.374 128.982 183.872 126.854C184.366 124.716 184.928 122.536 185.556 120.344C186.181 118.143 186.872 115.914 187.628 113.681C188.374 111.45 189.187 109.192 190.055 106.948C190.916 104.701 191.845 102.442 192.816 100.205C193.787 97.9691 194.818 95.7337 195.886 93.5332C196.955 91.3328 198.071 89.1424 199.225 87.0027C200.378 84.8629 201.572 82.7519 202.801 80.6914C204.022 78.6339 205.285 76.6146 206.567 74.6674C207.846 72.7107 209.158 70.8108 210.489 68.9831C211.811 67.1583 213.163 65.3965 214.519 63.7222C215.872 62.0385 217.247 60.4363 218.618 58.9184C219.987 57.4067 221.368 55.9795 222.735 54.6458C224.107 53.3153 225.474 52.0753 226.829 50.9382C228.181 49.8072 229.534 48.77 230.857 47.8416C232.182 46.9226 233.493 46.0971 234.775 45.396C236.053 44.6855 237.313 44.0903 238.531 43.6131C239.753 43.1297 240.947 42.7646 242.094 42.5143C243.243 42.2733 244.357 42.138 245.422 42.1331C246.485 42.1188 247.512 42.2257 248.475 42.4472C249.444 42.6719 250.366 43.0114 251.224 43.4654C252.088 43.9226 252.895 44.4977 253.635 45.1778C254.382 45.8612 255.066 46.6591 255.689 47.5654C256.309 48.4623 256.863 49.4799 257.357 50.5902C257.841 51.7035 258.265 52.9252 258.614 54.2394C258.972 55.5506 259.251 56.9605 259.464 58.4599C259.674 59.9498 259.817 61.545 259.885 63.2013C259.95 64.8639 259.949 66.616 259.874 68.4232C259.797 70.2365 259.654 72.1238 259.431 74.0628C259.215 76.0051 258.923 78.0087 258.571 80.0582C258.209 82.1106 257.778 84.2119 257.283 86.3497C256.786 88.478 256.224 90.6584 255.602 92.8535C254.971 95.0516 254.279 97.2799 253.53 99.5167C252.778 101.744 251.965 104.002 251.103 106.249C250.233 108.5 249.307 110.752 248.336 112.989C247.365 115.225 245.78 118.554 245.265 119.661C244.757 120.771 245.822 118.577 245.265 119.661Z" fill="white"/>
<path d="M245.265 119.661C244.197 121.861 243.08 124.052 241.927 126.191C240.773 128.331 239.577 130.448 238.357 132.506C237.13 134.56 235.867 136.58 234.591 138.53C233.306 140.483 231.994 142.383 230.669 144.214C229.341 146.036 227.988 147.798 226.636 149.481C225.28 151.156 223.908 152.767 222.54 154.279C221.165 155.787 219.79 157.218 218.417 158.548C217.051 159.882 215.675 161.125 214.323 162.256C212.97 163.387 211.618 164.424 210.295 165.353C208.973 166.281 207.658 167.097 206.38 167.808C205.099 168.509 203.845 169.107 202.618 169.587C201.399 170.064 200.205 170.43 199.058 170.68C197.909 170.921 196.795 171.056 195.732 171.07C194.667 171.075 193.646 170.972 192.677 170.747C191.714 170.525 190.792 170.186 189.928 169.729C189.07 169.275 188.263 168.7 187.516 168.016C186.776 167.336 186.086 166.535 185.466 165.638C184.843 164.732 184.289 163.714 183.795 162.604C183.311 161.491 182.887 160.269 182.535 158.961C182.186 157.647 181.901 156.234 181.691 154.744C181.478 153.244 181.338 151.659 181.267 149.993C181.202 148.33 181.203 146.578 181.277 144.771C181.352 142.964 181.504 141.074 181.721 139.131C181.943 137.192 182.229 135.185 182.587 133.139C182.946 131.093 183.374 128.982 183.872 126.854C184.366 124.716 184.928 122.536 185.556 120.344C186.181 118.143 186.872 115.914 187.628 113.681C188.374 111.45 189.187 109.192 190.055 106.948C190.916 104.701 191.845 102.442 192.816 100.205C193.787 97.9691 194.818 95.7337 195.886 93.5332C196.955 91.3328 198.071 89.1424 199.225 87.0027C200.378 84.8629 201.572 82.7519 202.801 80.6914C204.022 78.6339 205.285 76.6146 206.567 74.6674C207.846 72.7107 209.158 70.8109 210.489 68.9831C211.811 67.1583 213.163 65.3965 214.519 63.7222C215.872 62.0385 217.247 60.4363 218.618 58.9184C219.987 57.4067 221.368 55.9795 222.735 54.6458C224.107 53.3153 225.474 52.0753 226.829 50.9382C228.181 49.8072 229.534 48.77 230.857 47.8416C232.182 46.9226 233.493 46.0971 234.775 45.396C236.053 44.6855 237.313 44.0903 238.531 43.6131C239.753 43.1297 240.947 42.7646 242.094 42.5143C243.243 42.2733 244.357 42.138 245.422 42.1331C246.485 42.1188 247.512 42.2257 248.475 42.4472C249.444 42.6719 250.366 43.0114 251.224 43.4654C252.088 43.9226 252.895 44.4977 253.635 45.1778C254.382 45.8612 255.066 46.6591 255.689 47.5654C256.309 48.4623 256.863 49.4799 257.357 50.5902C257.841 51.7035 258.265 52.9252 258.614 54.2394C258.972 55.5506 259.251 56.9605 259.464 58.4599C259.674 59.9498 259.817 61.545 259.885 63.2013C259.95 64.8639 259.949 66.616 259.874 68.4232C259.797 70.2365 259.654 72.1238 259.431 74.0628C259.215 76.0052 258.923 78.0087 258.571 80.0582C258.209 82.1106 257.778 84.2119 257.283 86.3497C256.786 88.478 256.224 90.6584 255.602 92.8535C254.971 95.0516 254.279 97.2799 253.53 99.5167C252.778 101.744 251.965 104.002 251.103 106.249C250.233 108.5 249.307 110.752 248.336 112.989C247.365 115.225 245.78 118.554 245.265 119.661ZM245.265 119.661C245.822 118.577 244.757 120.771 245.265 119.661Z" stroke="#1E1E1E" stroke-width="8" stroke-linecap="round"/>
<path d="M155.785 286.996C154.565 289.112 153.291 291.211 151.991 293.261C150.69 295.311 149.343 297.332 147.975 299.292C146.608 301.252 145.201 303.17 143.786 305.019C142.362 306.87 140.914 308.666 139.453 310.389C137.995 312.106 136.517 313.761 135.038 315.336C133.563 316.904 132.071 318.405 130.589 319.806C129.107 321.208 127.618 322.524 126.144 323.745C124.677 324.969 123.206 326.102 121.768 327.125C120.323 328.145 118.89 329.075 117.489 329.895C116.088 330.715 114.709 331.427 113.368 332.033C112.03 332.633 110.715 333.125 109.446 333.509C108.181 333.886 106.953 334.158 105.769 334.311C104.595 334.462 103.453 334.503 102.375 334.43C101.302 334.352 100.269 334.161 99.301 333.857C98.3392 333.557 97.4218 333.138 96.5813 332.614C95.735 332.085 94.9539 331.444 94.2406 330.699C93.5331 329.957 92.885 329.099 92.3129 328.15C91.7383 327.191 91.2408 326.127 90.8099 324.974C90.3882 323.819 90.0343 322.561 89.7586 321.221C89.4864 319.876 89.2902 318.44 89.163 316.926C89.045 315.409 88.9996 313.808 89.0349 312.136C89.0701 310.464 89.1838 308.711 89.3736 306.908C89.5635 305.105 89.8317 303.221 90.1727 301.294C90.5137 299.366 90.9344 297.383 91.4245 295.363C91.9146 293.342 92.4843 291.265 93.119 289.173C93.7513 287.07 94.4588 284.934 95.2336 282.791C96.0061 280.638 96.8468 278.464 97.7456 276.284C98.641 274.111 99.6105 271.919 100.628 269.741C101.645 267.563 102.724 265.375 103.849 263.215C104.975 261.056 106.155 258.898 107.375 256.782C108.595 254.665 109.868 252.566 111.169 250.516C112.469 248.466 113.813 246.451 115.184 244.485C116.551 242.526 117.953 240.604 119.373 238.758C120.798 236.907 122.245 235.111 123.707 233.388C125.158 231.668 126.636 230.012 128.117 228.448C129.596 226.874 131.085 225.379 132.57 223.971C134.053 222.57 135.536 221.25 137.009 220.029C138.482 218.808 139.949 217.681 141.392 216.652C142.831 215.629 144.263 214.699 145.664 213.879C147.062 213.065 148.444 212.347 149.782 211.747C151.129 211.145 152.439 210.649 153.704 210.271C154.973 209.887 156.206 209.62 157.384 209.463C158.564 209.316 159.701 209.271 160.78 209.353C161.858 209.426 162.891 209.616 163.852 209.917C164.82 210.221 165.732 210.635 166.578 211.164C167.418 211.688 168.205 212.333 168.913 213.075C169.626 213.82 170.274 214.679 170.843 215.633C171.415 216.582 171.919 217.65 172.344 218.799C172.771 219.958 173.119 221.213 173.391 222.558C173.667 223.898 173.869 225.337 173.987 226.854C174.108 228.364 174.15 229.971 174.119 231.638C174.083 233.31 173.97 235.063 173.786 236.87C173.592 238.678 173.328 240.556 172.981 242.48C172.64 244.407 172.225 246.394 171.735 248.415C171.241 250.441 170.675 252.512 170.037 254.611C169.402 256.703 168.695 258.84 167.926 260.986C167.153 263.139 166.312 265.314 165.414 267.493C164.512 269.663 163.549 271.858 162.531 274.036C161.511 276.22 160.435 278.403 159.31 280.562C158.185 282.721 156.369 285.926 155.785 286.996C155.194 288.062 156.41 285.951 155.785 286.996Z" fill="white"/>
<path d="M155.785 286.996C154.565 289.112 153.291 291.211 151.991 293.261C150.69 295.311 149.343 297.332 147.975 299.292C146.608 301.252 145.201 303.17 143.786 305.019C142.362 306.87 140.914 308.666 139.453 310.389C137.995 312.106 136.517 313.761 135.038 315.336C133.563 316.904 132.071 318.405 130.589 319.806C129.107 321.208 127.618 322.524 126.144 323.745C124.677 324.969 123.206 326.102 121.768 327.125C120.323 328.145 118.89 329.075 117.489 329.895C116.088 330.715 114.709 331.427 113.368 332.033C112.03 332.633 110.715 333.125 109.446 333.509C108.181 333.886 106.953 334.158 105.769 334.311C104.595 334.462 103.453 334.503 102.375 334.43C101.302 334.352 100.269 334.161 99.301 333.857C98.3392 333.557 97.4218 333.138 96.5813 332.614C95.735 332.085 94.9539 331.444 94.2406 330.699C93.5331 329.957 92.885 329.099 92.3129 328.15C91.7383 327.191 91.2408 326.127 90.8099 324.974C90.3882 323.819 90.0343 322.561 89.7586 321.221C89.4864 319.876 89.2902 318.44 89.163 316.926C89.045 315.409 88.9996 313.808 89.0349 312.136C89.0701 310.464 89.1838 308.711 89.3736 306.908C89.5635 305.105 89.8317 303.221 90.1727 301.294C90.5137 299.366 90.9344 297.383 91.4245 295.363C91.9146 293.342 92.4843 291.265 93.119 289.173C93.7513 287.07 94.4588 284.934 95.2336 282.791C96.0061 280.638 96.8468 278.464 97.7456 276.284C98.641 274.111 99.6105 271.919 100.628 269.741C101.645 267.563 102.724 265.375 103.849 263.215C104.975 261.056 106.155 258.898 107.375 256.782C108.595 254.665 109.868 252.566 111.169 250.516C112.469 248.466 113.813 246.451 115.184 244.485C116.551 242.526 117.953 240.604 119.373 238.758C120.798 236.907 122.245 235.111 123.707 233.388C125.158 231.668 126.636 230.012 128.117 228.448C129.596 226.874 131.085 225.379 132.57 223.971C134.053 222.57 135.536 221.25 137.009 220.029C138.482 218.808 139.949 217.681 141.392 216.652C142.831 215.629 144.263 214.699 145.664 213.879C147.062 213.065 148.444 212.347 149.782 211.747C151.129 211.145 152.439 210.649 153.704 210.271C154.973 209.887 156.206 209.62 157.384 209.463C158.564 209.316 159.701 209.271 160.78 209.353C161.858 209.426 162.891 209.616 163.852 209.917C164.82 210.221 165.732 210.635 166.578 211.164C167.418 211.688 168.205 212.333 168.913 213.075C169.626 213.82 170.274 214.679 170.843 215.633C171.415 216.582 171.919 217.65 172.344 218.799C172.771 219.958 173.119 221.213 173.391 222.558C173.667 223.898 173.869 225.337 173.987 226.854C174.108 228.364 174.15 229.971 174.119 231.638C174.083 233.31 173.97 235.063 173.786 236.87C173.592 238.678 173.328 240.556 172.981 242.48C172.64 244.407 172.225 246.394 171.735 248.415C171.241 250.441 170.675 252.512 170.037 254.611C169.402 256.703 168.695 258.84 167.926 260.986C167.153 263.139 166.312 265.314 165.414 267.493C164.512 269.663 163.549 271.858 162.531 274.036C161.511 276.22 160.435 278.403 159.31 280.562C158.185 282.721 156.369 285.926 155.785 286.996ZM155.785 286.996C156.41 285.951 155.194 288.062 155.785 286.996Z" stroke="#1E1E1E" stroke-width="8" stroke-linecap="round"/>
<path d="M167.631 153.304C169.106 152.68 170.622 152.143 172.152 151.698C173.685 151.259 175.251 150.905 176.821 150.653C178.388 150.395 179.987 150.237 181.566 150.177C183.148 150.108 184.744 150.146 186.317 150.276C187.89 150.406 189.459 150.636 191.002 150.952C192.542 151.277 194.066 151.691 195.554 152.202C197.04 152.708 198.498 153.307 199.909 153.995C201.32 154.682 202.694 155.46 204.001 156.311C205.318 157.166 206.581 158.111 207.773 159.116C208.974 160.125 210.114 161.22 211.173 162.371C212.233 163.523 213.235 164.751 214.145 166.026C215.055 167.301 215.899 168.649 216.646 170.03C217.393 171.412 218.068 172.853 218.645 174.322C219.219 175.784 219.706 177.305 220.102 178.835C220.498 180.365 220.802 181.942 221.009 183.514C221.217 185.086 221.327 186.692 221.345 188.284C221.363 189.877 221.285 191.487 221.106 193.081C220.93 194.665 220.662 196.258 220.297 197.825C219.935 199.382 219.477 200.936 218.93 202.452C218.384 203.968 217.745 205.455 217.023 206.895C216.303 208.342 215.492 209.744 214.61 211.094C213.718 212.44 212.752 213.743 211.715 214.978C210.678 216.214 209.562 217.399 208.384 218.499C207.215 219.602 205.965 220.65 204.671 221.603C203.379 222.563 202.021 223.446 200.629 224.245C199.236 225.038 197.79 225.755 196.316 226.38C194.841 227.004 193.325 227.54 191.788 227.988C190.255 228.427 188.69 228.782 187.12 229.033C185.553 229.291 183.96 229.447 182.381 229.507C180.798 229.576 179.203 229.537 177.63 229.407C176.056 229.277 174.482 229.05 172.945 228.731C171.405 228.407 169.875 227.995 168.392 227.481C166.906 226.976 165.443 226.379 164.038 225.689C162.626 225.002 161.253 224.224 159.939 223.375C158.629 222.517 157.359 221.575 156.167 220.57C154.972 219.559 153.833 218.464 152.773 217.312C151.708 216.163 150.712 214.932 149.802 213.657C148.892 212.383 148.048 211.035 147.301 209.653C146.548 208.275 145.878 206.83 145.304 205.368C144.728 203.899 144.234 202.381 143.845 200.848C143.449 199.318 143.145 197.742 142.937 196.169C142.73 194.597 142.613 192.994 142.602 191.399C142.584 189.806 142.662 188.196 142.835 186.606C143.011 185.021 143.284 183.426 143.644 181.861C144.012 180.301 144.47 178.747 145.017 177.231C145.557 175.718 146.201 174.229 146.924 172.788C147.638 171.345 148.455 169.94 149.337 168.59C150.222 167.246 151.195 165.94 152.232 164.705C153.269 163.47 154.384 162.284 155.563 161.184C156.732 160.081 157.976 159.036 159.27 158.083C160.561 157.123 161.92 156.24 163.311 155.441C164.711 154.645 166.157 153.928 167.631 153.304Z" fill="#FFD43B"/>
<path d="M167.631 153.304C169.106 152.68 170.622 152.143 172.152 151.698C173.685 151.259 175.251 150.905 176.821 150.653C178.388 150.395 179.987 150.237 181.566 150.177C183.148 150.108 184.744 150.146 186.317 150.276C187.89 150.406 189.459 150.636 191.002 150.952C192.542 151.277 194.066 151.691 195.554 152.202C197.04 152.708 198.498 153.307 199.909 153.995C201.32 154.682 202.694 155.46 204.001 156.311C205.318 157.166 206.581 158.111 207.773 159.116C208.974 160.125 210.114 161.22 211.173 162.371C212.233 163.523 213.235 164.751 214.145 166.026C215.055 167.301 215.899 168.649 216.646 170.03C217.393 171.412 218.068 172.853 218.645 174.322C219.219 175.784 219.706 177.305 220.102 178.835C220.498 180.365 220.802 181.942 221.009 183.514C221.217 185.086 221.327 186.692 221.345 188.284C221.363 189.877 221.285 191.487 221.106 193.081C220.93 194.665 220.662 196.258 220.297 197.825C219.935 199.382 219.477 200.936 218.93 202.452C218.384 203.968 217.745 205.455 217.023 206.895C216.303 208.342 215.492 209.744 214.61 211.094C213.718 212.44 212.752 213.743 211.715 214.978C210.678 216.214 209.562 217.399 208.384 218.499C207.215 219.602 205.965 220.65 204.671 221.603C203.379 222.563 202.021 223.446 200.629 224.245C199.236 225.038 197.79 225.755 196.316 226.38C194.841 227.004 193.325 227.54 191.788 227.988C190.255 228.427 188.69 228.782 187.12 229.033C185.553 229.291 183.96 229.447 182.381 229.507C180.798 229.576 179.203 229.537 177.63 229.407C176.056 229.277 174.482 229.05 172.945 228.731C171.405 228.407 169.875 227.995 168.392 227.481C166.906 226.976 165.443 226.379 164.038 225.689C162.626 225.002 161.253 224.224 159.939 223.375C158.629 222.517 157.359 221.575 156.167 220.57C154.972 219.559 153.833 218.464 152.773 217.312C151.708 216.163 150.712 214.932 149.802 213.657C148.892 212.383 148.048 211.035 147.301 209.653C146.548 208.275 145.878 206.83 145.304 205.368C144.728 203.899 144.234 202.381 143.845 200.848C143.449 199.318 143.145 197.742 142.937 196.169C142.73 194.597 142.613 192.994 142.602 191.399C142.584 189.806 142.662 188.196 142.835 186.606C143.011 185.021 143.284 183.426 143.644 181.861C144.012 180.301 144.47 178.747 145.017 177.231C145.557 175.718 146.201 174.229 146.924 172.788C147.638 171.345 148.455 169.94 149.337 168.59C150.222 167.246 151.195 165.94 152.232 164.705C153.269 163.47 154.384 162.284 155.563 161.184C156.732 160.081 157.976 159.036 159.27 158.083C160.561 157.123 161.92 156.24 163.311 155.441C164.711 154.645 166.157 153.928 167.631 153.304Z" stroke="#1E1E1E" stroke-width="8" stroke-linecap="round"/>
</g>
<defs>
<clipPath id="clip0_1_4">
<rect width="328.589" height="339" fill="white" transform="translate(0 41.5605) rotate(-7.26633)"/>
</clipPath>
</defs>
</svg>
