<svg width="369" height="182" viewBox="0 0 369 182" fill="none" xmlns="http://www.w3.org/2000/svg">
<g clip-path="url(#clip0_1_4)">
<path d="M284.079 80.3877C281.911 81.4511 279.711 82.4768 277.513 83.4405C275.315 84.4043 273.097 85.3242 270.896 86.1825C268.692 87.0345 266.48 87.8367 264.299 88.5775C262.11 89.3151 259.931 89.9939 257.785 90.6113C255.641 91.2194 253.514 91.7657 251.434 92.2509C249.357 92.7269 247.305 93.1443 245.316 93.4854C243.325 93.8201 241.38 94.0937 239.497 94.2908C237.617 94.4942 235.784 94.6209 234.038 94.6747C232.291 94.7284 230.601 94.7087 229 94.6223C227.398 94.536 225.872 94.3672 224.437 94.1379C223.006 93.8995 221.657 93.5973 220.401 93.2192C219.154 92.8444 217.993 92.3966 216.94 91.8887C215.889 91.3715 214.931 90.7939 214.086 90.1531C213.244 89.5031 212.502 88.7959 211.874 88.0255C211.249 87.2614 210.728 86.4309 210.324 85.5434C209.922 84.6622 209.633 83.7178 209.457 82.7258C209.283 81.74 209.223 80.691 209.275 79.6099C209.331 78.5195 209.508 77.3847 209.789 76.2145C210.078 75.0475 210.481 73.8328 210.992 72.5953C211.51 71.3547 212.137 70.0757 212.87 68.783C213.606 67.4811 214.451 66.1562 215.399 64.8114C216.35 63.4728 217.408 62.1051 218.555 60.7389C219.703 59.3727 220.963 57.9899 222.304 56.6053C223.648 55.227 225.082 53.8347 226.598 52.4562C228.114 51.0778 229.723 49.6916 231.398 48.3345C233.076 46.9681 234.832 45.6092 236.648 44.2824C238.467 42.9463 240.355 41.6301 242.296 40.3488C244.228 39.0643 246.229 37.7995 248.265 36.5788C250.299 35.3518 252.391 34.1569 254.504 33.0057C256.616 31.8544 258.776 30.7413 260.944 29.6778C263.111 28.6143 265.311 27.5886 267.509 26.6249C269.707 25.6612 271.919 24.7442 274.13 23.8892C276.331 23.031 278.543 22.2287 280.726 21.4942C282.912 20.7504 285.091 20.0716 287.241 19.4605C289.382 18.8461 291.509 18.2997 293.586 17.8238C295.666 17.3386 297.714 16.9304 299.709 16.5864C301.698 16.2453 303.646 15.978 305.526 15.7746C307.409 15.5775 309.232 15.4476 310.985 15.3908C312.731 15.3371 314.422 15.3568 316.023 15.4431C317.621 15.5387 319.151 15.6983 320.582 15.9368C322.017 16.166 323.368 16.4744 324.615 16.8493C325.868 17.2211 327.029 17.6689 328.083 18.1768C329.133 18.694 330.092 19.2716 330.934 19.9216C331.779 20.5624 332.523 21.2759 333.148 22.04C333.776 22.8103 334.297 23.6409 334.699 24.5221C335.104 25.4095 335.393 26.3539 335.566 27.3397C335.742 28.3317 335.799 29.3744 335.744 30.4648C335.691 31.546 335.514 32.6808 335.234 33.851C334.944 35.018 334.542 36.2326 334.024 37.4732C333.516 38.717 332.886 39.9898 332.15 41.2917C331.417 42.5844 330.568 43.9185 329.623 45.2541C328.672 46.5926 327.615 47.9604 326.467 49.3266C325.313 50.6957 324.063 52.0819 322.719 53.4602C321.378 54.8447 319.94 56.2308 318.427 57.6155C316.906 58.997 315.299 60.3739 313.621 61.7403C311.946 63.0974 310.19 64.4563 308.377 65.7893C306.555 67.1191 304.668 68.4354 302.729 69.7229C300.794 71.0012 298.793 72.2659 296.76 73.4929C294.718 74.7167 292.631 75.9086 290.519 77.0598C288.406 78.211 285.151 79.8387 284.079 80.3877C283.009 80.9429 285.171 79.8824 284.079 80.3877Z" fill="white"/>
<path d="M284.079 80.3877C281.911 81.4511 279.711 82.4768 277.513 83.4405C275.315 84.4043 273.097 85.3242 270.896 86.1825C268.692 87.0345 266.48 87.8367 264.299 88.5775C262.11 89.3151 259.931 89.9939 257.784 90.6113C255.641 91.2194 253.514 91.7657 251.434 92.2509C249.357 92.7269 247.305 93.1443 245.316 93.4854C243.325 93.8201 241.38 94.0937 239.497 94.2908C237.617 94.4942 235.784 94.6209 234.038 94.6747C232.291 94.7284 230.601 94.7087 229 94.6223C227.398 94.536 225.872 94.3672 224.437 94.1379C223.006 93.8995 221.657 93.5973 220.401 93.2192C219.154 92.8444 217.993 92.3966 216.94 91.8887C215.889 91.3715 214.931 90.7939 214.086 90.1531C213.244 89.5031 212.502 88.7959 211.874 88.0255C211.249 87.2614 210.728 86.4309 210.324 85.5434C209.922 84.6622 209.633 83.7178 209.457 82.7258C209.283 81.74 209.223 80.691 209.275 79.6099C209.331 78.5195 209.508 77.3847 209.789 76.2145C210.078 75.0475 210.481 73.8328 210.992 72.5953C211.51 71.3547 212.137 70.0757 212.87 68.783C213.606 67.4811 214.451 66.1562 215.399 64.8114C216.35 63.4728 217.408 62.1051 218.555 60.7389C219.703 59.3727 220.963 57.9899 222.304 56.6053C223.648 55.227 225.082 53.8347 226.598 52.4562C228.114 51.0778 229.723 49.6916 231.398 48.3345C233.076 46.9681 234.832 45.6092 236.648 44.2824C238.467 42.9463 240.355 41.6301 242.296 40.3488C244.228 39.0643 246.229 37.7995 248.265 36.5788C250.299 35.3518 252.391 34.1569 254.504 33.0057C256.616 31.8544 258.776 30.7413 260.944 29.6778C263.111 28.6143 265.311 27.5886 267.509 26.6249C269.707 25.6612 271.919 24.7442 274.13 23.8892C276.331 23.031 278.543 22.2287 280.726 21.4942C282.912 20.7504 285.091 20.0716 287.241 19.4605C289.382 18.8461 291.509 18.2997 293.586 17.8238C295.666 17.3386 297.714 16.9304 299.709 16.5864C301.698 16.2453 303.646 15.978 305.526 15.7746C307.409 15.5775 309.232 15.4476 310.985 15.3908C312.731 15.3371 314.422 15.3568 316.023 15.4431C317.621 15.5387 319.151 15.6983 320.582 15.9368C322.017 16.166 323.368 16.4744 324.615 16.8493C325.868 17.2211 327.029 17.6689 328.083 18.1768C329.133 18.694 330.092 19.2716 330.934 19.9216C331.779 20.5624 332.523 21.2759 333.148 22.04C333.776 22.8103 334.297 23.6409 334.699 24.5221C335.104 25.4095 335.393 26.3539 335.566 27.3397C335.742 28.3317 335.799 29.3744 335.744 30.4648C335.691 31.546 335.514 32.6808 335.234 33.851C334.944 35.018 334.542 36.2326 334.024 37.4732C333.516 38.717 332.886 39.9898 332.15 41.2917C331.417 42.5844 330.568 43.9185 329.623 45.2541C328.672 46.5926 327.615 47.9604 326.467 49.3266C325.313 50.6957 324.063 52.0819 322.719 53.4602C321.378 54.8447 319.94 56.2308 318.427 57.6155C316.906 58.997 315.299 60.3739 313.621 61.7403C311.946 63.0974 310.19 64.4563 308.377 65.7893C306.555 67.1191 304.668 68.4354 302.729 69.7229C300.794 71.0012 298.793 72.2659 296.76 73.4929C294.718 74.7167 292.631 75.9086 290.519 77.0598C288.406 78.211 285.151 79.8387 284.079 80.3877ZM284.079 80.3877C285.171 79.8824 283.009 80.9429 284.079 80.3877Z" stroke="#1E1E1E" stroke-width="8" stroke-linecap="round"/>
<path d="M281.866 178.366C279.735 177.194 277.614 175.972 275.542 174.715C273.47 173.457 271.42 172.157 269.427 170.834C267.437 169.505 265.481 168.139 263.592 166.764C261.699 165.378 259.859 163.967 258.085 162.545C256.319 161.121 254.612 159.673 252.98 158.228C251.357 156.78 249.795 155.318 248.329 153.863C246.867 152.402 245.48 150.943 244.189 149.49C242.896 148.043 241.69 146.59 240.592 145.165C239.494 143.74 238.487 142.319 237.586 140.931C236.684 139.544 235.891 138.169 235.2 136.835C234.518 135.499 233.936 134.193 233.467 132.919C233.002 131.655 232.645 130.419 232.4 129.236C232.163 128.05 232.029 126.905 232.011 125.817C232.003 124.726 232.1 123.684 232.314 122.7C232.525 121.721 232.85 120.79 233.289 119.922C233.725 119.059 234.279 118.253 234.937 117.513C235.592 116.779 236.364 116.102 237.229 115.499C238.103 114.893 239.085 114.362 240.156 113.896C241.231 113.44 242.41 113.049 243.674 112.736C244.943 112.425 246.308 112.183 247.747 112.022C249.196 111.857 250.728 111.77 252.338 111.757C253.945 111.75 255.639 111.814 257.386 111.954C259.133 112.094 260.96 112.318 262.839 112.609C264.714 112.906 266.654 113.27 268.633 113.71C270.613 114.15 272.654 114.663 274.713 115.249C276.781 115.832 278.89 116.484 281.011 117.205C283.141 117.924 285.297 118.711 287.459 119.565C289.617 120.408 291.802 121.321 293.974 122.289C296.149 123.252 298.336 124.283 300.501 125.357C302.666 126.431 304.83 127.567 306.96 128.739C309.091 129.911 311.212 131.133 313.284 132.39C315.356 133.647 317.4 134.944 319.396 136.277C321.389 137.6 323.345 138.965 325.231 140.347C327.126 141.726 328.967 143.138 330.738 144.566C332.506 145.984 334.214 147.432 335.837 148.88C337.469 150.325 339.022 151.789 340.493 153.248C341.959 154.703 343.343 156.168 344.637 157.615C345.927 159.068 347.13 160.511 348.234 161.94C349.331 163.364 350.338 164.786 351.24 166.174C352.133 167.564 352.935 168.935 353.617 170.272C354.308 171.606 354.887 172.918 355.352 174.182C355.824 175.45 356.18 176.686 356.426 177.869C356.663 179.055 356.797 180.2 356.805 181.291C356.823 182.379 356.723 183.427 356.512 184.405C356.298 185.39 355.973 186.321 355.537 187.183C355.097 188.052 354.544 188.857 353.889 189.592C353.231 190.332 352.462 191.003 351.588 191.609C350.723 192.212 349.741 192.743 348.67 193.209C347.595 193.665 346.415 194.056 345.146 194.366C343.88 194.686 342.518 194.921 341.069 195.086C339.63 195.248 338.089 195.338 336.488 195.348C334.881 195.355 333.187 195.291 331.44 195.151C329.687 195.007 327.862 194.793 325.987 194.496C324.109 194.205 322.172 193.835 320.189 193.401C318.204 192.958 316.172 192.441 314.104 191.859C312.045 191.273 309.935 190.621 307.812 189.905C305.685 189.181 303.529 188.393 301.364 187.546C299.209 186.697 297.024 185.784 294.849 184.821C292.67 183.85 290.49 182.822 288.325 181.748C286.16 180.674 282.937 178.932 281.866 178.366C280.791 177.806 282.915 178.975 281.866 178.366Z" fill="white"/>
<path d="M281.536 175.784C279.406 174.612 277.285 173.39 275.213 172.133C273.141 170.876 271.09 169.575 269.098 168.252C267.108 166.923 265.152 165.558 263.263 164.182C261.37 162.797 259.529 161.385 257.755 159.963C255.99 158.539 254.283 157.091 252.651 155.646C251.028 154.198 249.466 152.736 248 151.281C246.538 149.82 245.151 148.361 243.86 146.908C242.566 145.461 241.36 144.008 240.263 142.583C239.165 141.159 238.158 139.737 237.257 138.349C236.355 136.962 235.562 135.587 234.871 134.254C234.189 132.917 233.606 131.611 233.138 130.337C232.673 129.073 232.316 127.837 232.07 126.654C231.834 125.468 231.699 124.323 231.682 123.235C231.674 122.144 231.771 121.103 231.985 120.118C232.196 119.139 232.521 118.208 232.96 117.34C233.396 116.477 233.949 115.672 234.608 114.931C235.263 114.197 236.035 113.52 236.9 112.917C237.774 112.311 238.755 111.78 239.827 111.314C240.902 110.858 242.081 110.467 243.344 110.154C244.614 109.843 245.979 109.602 247.418 109.44C248.867 109.275 250.399 109.188 252.009 109.175C253.616 109.168 255.309 109.232 257.057 109.372C258.804 109.513 260.631 109.736 262.509 110.027C264.384 110.324 266.325 110.688 268.304 111.128C270.283 111.568 272.325 112.082 274.384 112.667C276.452 113.25 278.561 113.902 280.682 114.624C282.812 115.342 284.968 116.13 287.129 116.983C289.288 117.826 291.473 118.739 293.645 119.708C295.82 120.67 298.007 121.701 300.172 122.775C302.337 123.849 304.501 124.985 306.631 126.157C308.762 127.329 310.882 128.551 312.954 129.808C315.027 131.065 317.071 132.362 319.067 133.695C321.059 135.018 323.015 136.384 324.902 137.765C326.797 139.145 328.638 140.556 330.409 141.984C332.177 143.402 333.885 144.85 335.507 146.298C337.139 147.743 338.692 149.207 340.164 150.666C341.63 152.121 343.014 153.587 344.308 155.033C345.598 156.486 346.801 157.93 347.905 159.358C349.002 160.783 350.009 162.204 350.911 163.592C351.804 164.982 352.606 166.354 353.288 167.69C353.979 169.024 354.558 170.336 355.023 171.6C355.494 172.868 355.851 174.104 356.097 175.287C356.334 176.473 356.468 177.618 356.476 178.709C356.494 179.797 356.394 180.845 356.183 181.823C355.969 182.808 355.643 183.739 355.207 184.601C354.768 185.47 354.215 186.276 353.56 187.01C352.902 187.75 352.133 188.421 351.259 189.027C350.394 189.63 349.412 190.161 348.34 190.627C347.266 191.083 346.086 191.474 344.817 191.784C343.551 192.104 342.189 192.339 340.74 192.504C339.301 192.666 337.759 192.756 336.158 192.766C334.552 192.773 332.858 192.709 331.111 192.569C329.358 192.425 327.533 192.211 325.658 191.914C323.78 191.623 321.842 191.253 319.86 190.819C317.875 190.376 315.843 189.86 313.775 189.277C311.716 188.691 309.606 188.039 307.482 187.324C305.356 186.599 303.199 185.811 301.035 184.965C298.88 184.115 296.695 183.202 294.519 182.24C292.341 181.268 290.161 180.24 287.996 179.166C285.831 178.092 282.608 176.35 281.536 175.784ZM281.536 175.784C282.586 176.393 280.462 175.224 281.536 175.784Z" stroke="#1E1E1E" stroke-width="8" stroke-linecap="round"/>
<path d="M84.1379 95.9102C86.3897 94.9241 88.681 93.9808 90.9593 93.0956C93.235 92.2041 95.5314 91.3635 97.8025 90.5865C100.076 89.8159 102.353 89.0889 104.592 88.431C106.834 87.7795 109.066 87.1771 111.242 86.6519C113.417 86.1266 115.574 85.6623 117.663 85.2653C119.748 84.8773 121.801 84.5557 123.772 84.3004C125.751 84.0487 127.671 83.8679 129.503 83.7561C131.336 83.6508 133.111 83.6163 134.775 83.6526C136.446 83.6862 138.045 83.7962 139.527 83.9797C141.016 84.1605 142.415 84.4103 143.698 84.7338C144.98 85.0572 146.168 85.4524 147.236 85.9148C148.298 86.3799 149.256 86.9131 150.089 87.5009C150.925 88.0949 151.642 88.7563 152.228 89.4748C152.82 90.1905 153.287 90.9763 153.627 91.8101C153.967 92.6439 154.185 93.5386 154.267 94.4777C154.356 95.4142 154.316 96.4141 154.142 97.4432C153.97 98.4785 153.671 99.562 153.25 100.669C152.825 101.785 152.271 102.943 151.601 104.122C150.93 105.301 150.13 106.521 149.217 107.753C148.309 108.977 147.27 110.241 146.131 111.513C144.996 112.775 143.733 114.063 142.382 115.353C141.031 116.642 139.567 117.943 138.01 119.232C136.463 120.525 134.806 121.82 133.084 123.099C131.356 124.381 129.532 125.66 127.649 126.905C125.769 128.156 123.799 129.401 121.783 130.606C119.767 131.812 117.68 133.003 115.559 134.149C113.439 135.295 111.256 136.416 109.056 137.492C106.855 138.568 104.603 139.607 102.351 140.593C100.099 141.579 97.8108 142.529 95.5325 143.414C93.2542 144.299 90.9577 145.14 88.6867 145.917C86.4156 146.694 84.1362 147.414 81.8972 148.072C79.6582 148.73 77.4296 149.324 75.2476 149.852C73.0744 150.383 70.9178 150.847 68.8327 151.235C66.7414 151.626 64.6905 151.954 62.7174 152.203C60.7468 152.458 58.8203 152.642 56.9866 152.747C55.1528 152.853 53.387 152.891 51.7165 152.857C50.0434 152.817 48.4507 152.705 46.9647 152.53C45.4762 152.349 44.0742 152.093 42.7914 151.77C41.5087 151.446 40.3213 151.051 39.2593 150.586C38.1937 150.13 37.236 149.597 36.4 149.003C35.5729 148.412 34.8535 147.744 34.2612 147.029C33.6689 146.313 33.202 145.527 32.8621 144.693C32.5222 143.86 32.3042 142.965 32.2219 142.026C32.1397 141.087 32.1819 140.093 32.3474 139.06C32.5218 138.031 32.8205 136.948 33.2453 135.832C33.6638 134.718 34.2181 133.56 34.8886 132.382C35.5591 131.203 36.3617 129.989 37.2743 128.756C38.1869 127.524 39.2192 126.262 40.3604 124.997C41.5016 123.732 42.7563 122.44 44.1075 121.151C45.4612 119.868 46.9311 118.564 48.4788 117.271C50.029 115.985 51.683 114.683 53.411 113.401C55.1355 112.128 56.96 110.849 58.84 109.599C60.7262 108.345 62.6928 107.109 64.7061 105.897C66.7219 104.692 68.8119 103.507 70.9299 102.354C73.0505 101.208 75.2328 100.087 77.4359 99.0175C79.6363 97.9414 83.0224 96.4287 84.1379 95.9102C85.256 95.398 83.0042 96.3841 84.1379 95.9102Z" fill="white"/>
<path d="M84.1379 95.9102C86.3897 94.9241 88.681 93.9808 90.9593 93.0956C93.235 92.2041 95.5314 91.3635 97.8025 90.5865C100.076 89.8159 102.353 89.0889 104.592 88.431C106.834 87.7795 109.066 87.1771 111.242 86.6519C113.417 86.1266 115.574 85.6623 117.663 85.2653C119.748 84.8773 121.801 84.5557 123.772 84.3004C125.751 84.0487 127.671 83.8679 129.503 83.7561C131.336 83.6508 133.111 83.6163 134.775 83.6526C136.446 83.6862 138.045 83.7962 139.527 83.9797C141.016 84.1605 142.415 84.4103 143.698 84.7338C144.98 85.0572 146.168 85.4524 147.236 85.9148C148.298 86.3799 149.256 86.9131 150.089 87.5009C150.925 88.0949 151.642 88.7563 152.228 89.4748C152.82 90.1905 153.287 90.9763 153.627 91.8101C153.967 92.6439 154.185 93.5386 154.267 94.4777C154.356 95.4142 154.316 96.4141 154.142 97.4432C153.97 98.4785 153.671 99.562 153.25 100.669C152.825 101.785 152.271 102.943 151.601 104.122C150.93 105.301 150.13 106.521 149.217 107.753C148.309 108.977 147.27 110.241 146.131 111.513C144.996 112.775 143.733 114.063 142.382 115.353C141.031 116.642 139.567 117.943 138.01 119.232C136.463 120.525 134.806 121.82 133.084 123.099C131.356 124.381 129.532 125.66 127.649 126.905C125.769 128.156 123.799 129.401 121.783 130.606C119.767 131.812 117.68 133.003 115.559 134.149C113.439 135.295 111.256 136.416 109.056 137.492C106.855 138.568 104.603 139.607 102.351 140.593C100.099 141.579 97.8108 142.529 95.5325 143.414C93.2542 144.299 90.9577 145.14 88.6867 145.917C86.4156 146.694 84.1362 147.414 81.8972 148.072C79.6582 148.73 77.4296 149.324 75.2476 149.852C73.0744 150.383 70.9178 150.847 68.8327 151.235C66.7414 151.626 64.6905 151.954 62.7174 152.203C60.7468 152.458 58.8203 152.642 56.9866 152.747C55.1528 152.853 53.387 152.891 51.7165 152.857C50.0434 152.817 48.4507 152.705 46.9647 152.53C45.4762 152.349 44.0742 152.093 42.7914 151.77C41.5087 151.446 40.3213 151.051 39.2593 150.586C38.1937 150.13 37.236 149.597 36.4 149.003C35.5729 148.412 34.8535 147.744 34.2612 147.029C33.6689 146.313 33.202 145.527 32.8621 144.693C32.5222 143.86 32.3042 142.965 32.2219 142.026C32.1397 141.087 32.1819 140.093 32.3474 139.06C32.5218 138.031 32.8205 136.948 33.2453 135.832C33.6638 134.718 34.2181 133.56 34.8886 132.382C35.5591 131.203 36.3617 129.989 37.2743 128.756C38.1869 127.524 39.2192 126.262 40.3604 124.997C41.5016 123.732 42.7563 122.44 44.1075 121.151C45.4612 119.868 46.9311 118.564 48.4788 117.271C50.029 115.985 51.683 114.683 53.411 113.401C55.1355 112.128 56.96 110.849 58.84 109.599C60.7262 108.345 62.6928 107.109 64.7061 105.897C66.7219 104.692 68.8119 103.507 70.9299 102.354C73.0505 101.208 75.2328 100.087 77.4359 99.0175C79.6363 97.9414 83.0224 96.4287 84.1379 95.9102ZM84.1379 95.9102C83.0042 96.3841 85.256 95.398 84.1379 95.9102Z" stroke="#1E1E1E" stroke-width="8" stroke-linecap="round"/>
<path d="M111.594 23.4245C113.628 24.658 115.65 25.9406 117.615 27.2531C119.587 28.5693 121.535 29.9273 123.419 31.3024C125.303 32.6774 127.151 34.0872 128.92 35.5128C130.698 36.9361 132.424 38.3834 134.061 39.8335C135.705 41.2872 137.284 42.7579 138.776 44.2158C140.258 45.6761 141.674 47.144 142.994 48.6015C144.311 50.0494 145.54 51.5001 146.67 52.931C147.798 54.3524 148.835 55.7669 149.756 57.151C150.68 58.5291 151.512 59.8909 152.218 61.209C152.931 62.5308 153.536 63.8195 154.02 65.0587C154.51 66.3015 154.887 67.5077 155.143 68.6488C155.402 69.7995 155.548 70.8982 155.571 71.9377C155.594 72.9772 155.498 73.9611 155.292 74.8775C155.085 75.7939 154.764 76.6487 154.325 77.4325C153.886 78.2162 153.331 78.9289 152.667 79.568C152.003 80.2071 151.228 80.7787 150.348 81.2708C149.472 81.7569 148.478 82.1718 147.389 82.5049C146.309 82.8355 145.115 83.0891 143.835 83.2583C142.561 83.431 141.186 83.5183 139.73 83.5247C138.28 83.5347 136.732 83.4533 135.125 83.2957C133.514 83.144 131.82 82.9021 130.077 82.5816C128.324 82.2635 126.505 81.8657 124.646 81.387C122.777 80.9106 120.853 80.3522 118.901 79.7294C116.947 79.0971 114.94 78.3923 112.915 77.6206C110.895 76.8525 108.835 76.0035 106.769 75.0948C104.705 74.1956 102.616 73.2165 100.538 72.1885C98.4598 71.1605 96.3643 70.0657 94.2923 68.929C92.2261 67.7959 90.1574 66.5972 88.1239 65.3636C86.0904 64.1301 84.0685 62.8476 82.0969 61.5315C80.1312 60.2189 78.1831 58.8608 76.2994 57.4858C74.4157 56.1108 72.5671 54.701 70.7923 53.2718C69.0199 51.8521 67.2944 50.4048 65.651 48.9511C64.0134 47.501 62.4344 46.0303 60.9425 44.5724C59.4598 43.112 58.0382 41.6407 56.7246 40.1867C55.4076 38.7388 54.1727 37.2845 53.0483 35.8571C51.9206 34.4358 50.8832 33.0212 49.9623 31.6372C49.0321 30.2555 48.2065 28.8973 47.4999 27.5791C46.7874 26.2574 46.182 24.9686 45.6922 23.7259C45.2082 22.4867 44.8314 21.2805 44.5751 20.1393C44.3164 18.9887 44.1731 17.884 44.1471 16.8505C44.1244 15.811 44.2139 14.8235 44.4206 13.9071C44.6332 12.9943 44.9546 12.1394 45.3932 11.3557C45.8318 10.5719 46.3876 9.8593 47.0456 9.21662C47.7094 8.5775 48.4904 8.00948 49.3702 7.51741C50.25 7.02534 51.2403 6.61632 52.3294 6.28327C53.4093 5.95263 54.6031 5.69909 55.8772 5.52634C57.1572 5.35715 58.5326 5.2699 59.9884 5.26345C61.4384 5.25345 62.9804 5.33137 64.5936 5.49252C66.2043 5.64413 67.8979 5.88609 69.6417 6.20661C71.3889 6.52114 73.2131 6.92246 75.0724 7.40121C76.9351 7.87398 78.8656 8.43597 80.8171 9.05873C82.771 9.69103 84.7786 10.3959 86.7978 11.164C88.823 11.9356 90.8833 12.7847 92.9436 13.6899C95.0131 14.5926 97.1027 15.5716 99.1806 16.5997C101.258 17.6277 103.354 18.7225 105.42 19.8556C107.492 20.9923 110.561 22.8299 111.594 23.4245C112.622 24.0156 110.588 22.7821 111.594 23.4245Z" fill="white"/>
<path d="M111.594 23.4245C113.628 24.658 115.65 25.9406 117.615 27.2531C119.587 28.5693 121.535 29.9273 123.419 31.3024C125.303 32.6774 127.151 34.0872 128.92 35.5128C130.698 36.9361 132.424 38.3834 134.061 39.8335C135.705 41.2872 137.284 42.7579 138.776 44.2158C140.258 45.6761 141.674 47.144 142.994 48.6015C144.311 50.0494 145.54 51.5001 146.67 52.931C147.798 54.3524 148.835 55.7669 149.756 57.151C150.68 58.5291 151.512 59.8909 152.218 61.209C152.931 62.5308 153.536 63.8195 154.02 65.0587C154.51 66.3015 154.887 67.5077 155.143 68.6488C155.402 69.7995 155.548 70.8982 155.571 71.9377C155.594 72.9772 155.498 73.9611 155.292 74.8775C155.085 75.7939 154.764 76.6487 154.325 77.4325C153.886 78.2162 153.331 78.9289 152.667 79.568C152.003 80.2071 151.228 80.7787 150.348 81.2708C149.472 81.7569 148.478 82.1718 147.389 82.5049C146.309 82.8355 145.115 83.0891 143.835 83.2583C142.561 83.431 141.186 83.5183 139.73 83.5247C138.28 83.5347 136.732 83.4533 135.125 83.2957C133.514 83.144 131.82 82.9021 130.077 82.5816C128.324 82.2635 126.505 81.8657 124.646 81.387C122.777 80.9106 120.853 80.3522 118.901 79.7294C116.947 79.0971 114.94 78.3923 112.915 77.6206C110.895 76.8525 108.835 76.0035 106.769 75.0948C104.705 74.1956 102.616 73.2165 100.538 72.1885C98.4598 71.1605 96.3643 70.0657 94.2923 68.929C92.2261 67.7959 90.1574 66.5972 88.1239 65.3636C86.0904 64.1301 84.0685 62.8476 82.0969 61.5315C80.1312 60.2189 78.1831 58.8608 76.2994 57.4858C74.4157 56.1108 72.5671 54.701 70.7923 53.2718C69.0199 51.8521 67.2944 50.4048 65.651 48.9511C64.0134 47.501 62.4344 46.0303 60.9425 44.5724C59.4598 43.112 58.0382 41.6407 56.7246 40.1867C55.4076 38.7388 54.1727 37.2845 53.0483 35.8571C51.9206 34.4358 50.8832 33.0212 49.9623 31.6372C49.0321 30.2555 48.2065 28.8973 47.4999 27.5791C46.7874 26.2574 46.182 24.9686 45.6922 23.7259C45.2082 22.4867 44.8314 21.2805 44.5751 20.1393C44.3164 18.9887 44.1731 17.884 44.1471 16.8505C44.1244 15.811 44.2139 14.8235 44.4206 13.9071C44.6332 12.9943 44.9546 12.1394 45.3932 11.3557C45.8318 10.5719 46.3876 9.8593 47.0456 9.21663C47.7094 8.5775 48.4904 8.00948 49.3702 7.51741C50.25 7.02534 51.2403 6.61632 52.3294 6.28327C53.4093 5.95263 54.6031 5.69908 55.8772 5.52634C57.1572 5.35715 58.5326 5.2699 59.9884 5.26345C61.4384 5.25345 62.9804 5.33136 64.5936 5.49252C66.2043 5.64413 67.8979 5.88609 69.6417 6.20661C71.3889 6.52114 73.2131 6.92246 75.0724 7.40121C76.9351 7.87398 78.8656 8.43596 80.8171 9.05873C82.771 9.69103 84.7786 10.3959 86.7978 11.164C88.823 11.9356 90.8833 12.7847 92.9436 13.6899C95.0131 14.5926 97.1027 15.5716 99.1806 16.5997C101.258 17.6277 103.354 18.7225 105.42 19.8556C107.492 20.9923 110.561 22.8299 111.594 23.4245ZM111.594 23.4245C110.588 22.7821 112.622 24.0156 111.594 23.4245Z" stroke="#1E1E1E" stroke-width="8" stroke-linecap="round"/>
<path d="M169.687 -10.7664C170.589 -8.47127 171.452 -6.14459 172.261 -3.82508C173.064 -1.5029 173.829 0.835283 174.527 3.15603C175.226 5.47677 175.876 7.80326 176.468 10.094C177.055 12.3939 177.586 14.6802 178.058 16.9308C178.528 19.1748 178.939 21.3988 179.286 23.5742C179.631 25.743 179.92 27.8827 180.138 29.9542C180.35 32.0285 180.505 34.0514 180.595 36.0037C180.685 37.9559 180.703 39.8557 180.661 41.6601C180.614 43.4671 180.51 45.2073 180.334 46.8573C180.158 48.5073 179.919 50.0711 179.62 51.5394C179.312 53.0039 178.941 54.3821 178.514 55.6557C178.084 56.9229 177.595 58.0946 177.048 59.1553C176.498 60.2095 175.882 61.171 175.224 62.0069C174.557 62.8391 173.834 63.5667 173.057 64.1741C172.286 64.7789 171.463 65.2699 170.592 65.6381C169.72 66.0063 168.794 66.2544 167.835 66.3807C166.876 66.5071 165.869 66.5106 164.831 66.3989C163.79 66.2807 162.708 66.037 161.604 65.6818C160.497 65.3202 159.351 64.8396 158.189 64.2448C157.025 63.6436 155.83 62.9271 154.629 62.1003C153.419 61.2697 152.193 60.325 150.955 59.2727C149.723 58.2177 148.469 57.0512 147.216 55.7938C145.97 54.5338 144.708 53.1596 143.456 51.6983C142.197 50.2397 140.944 48.6811 139.703 47.0417C138.462 45.4024 137.22 43.6657 136.004 41.865C134.785 40.0579 133.579 38.1701 132.402 36.2249C131.222 34.2732 130.06 32.2537 128.935 30.1806C127.807 28.1167 126.703 25.9823 125.638 23.8163C124.579 21.6476 123.543 19.4242 122.557 17.1794C121.565 14.9373 120.613 12.6479 119.711 10.3529C118.809 8.05778 117.945 5.73109 117.143 3.40891C116.334 1.08941 115.578 -1.24498 114.87 -3.56952C114.171 -5.89026 113.522 -8.21675 112.937 -10.5102C112.343 -12.8074 111.812 -15.0937 111.339 -17.3443C110.869 -19.5883 110.459 -21.8123 110.114 -23.9812C109.767 -26.1565 109.487 -28.2923 109.266 -30.3704C109.048 -32.442 108.893 -34.4649 108.809 -36.4198C108.719 -38.3721 108.697 -40.2628 108.736 -42.0736C108.784 -43.8806 108.894 -45.6234 109.064 -47.2708C109.242 -48.9144 109.479 -50.4846 109.787 -51.9491C110.086 -53.4174 110.457 -54.7956 110.886 -56.0627C111.313 -57.3363 111.809 -58.5107 112.356 -59.5714C112.906 -60.6257 113.516 -61.5845 114.183 -62.4166C114.847 -63.2552 115.57 -63.9828 116.341 -64.5876C117.112 -65.1923 117.941 -65.6861 118.812 -66.0543C119.684 -66.4225 120.603 -66.6679 121.563 -66.7942C122.528 -66.9232 123.535 -66.9268 124.576 -66.8086C125.607 -66.6942 126.696 -66.4531 127.8 -66.098C128.907 -65.7364 130.047 -65.2531 131.211 -64.6518C132.373 -64.0571 133.568 -63.3406 134.778 -62.51C135.979 -61.6832 137.207 -60.7321 138.443 -59.6862C139.681 -58.6338 140.929 -57.4647 142.182 -56.2073C143.431 -54.9408 144.696 -53.5758 145.948 -52.1145C147.2 -50.6532 148.454 -49.0945 149.701 -47.4579C150.945 -45.8121 152.178 -44.0792 153.397 -42.2721C154.613 -40.4714 155.819 -38.5836 156.996 -36.6384C158.176 -34.6867 159.338 -32.6672 160.469 -30.5968C161.59 -28.5302 162.695 -26.3958 163.76 -24.2298C164.828 -22.0573 165.855 -19.8377 166.847 -17.5956C167.833 -15.3508 169.218 -11.9027 169.687 -10.7664C170.162 -9.63272 169.262 -11.9213 169.687 -10.7664Z" fill="white"/>
<path d="M169.687 -10.7664C170.589 -8.47127 171.452 -6.14458 172.261 -3.82508C173.064 -1.5029 173.829 0.835283 174.527 3.15602C175.226 5.47676 175.876 7.80326 176.468 10.094C177.055 12.3939 177.586 14.6802 178.058 16.9308C178.528 19.1748 178.939 21.3988 179.286 23.5742C179.631 25.743 179.92 27.8827 180.138 29.9542C180.35 32.0285 180.505 34.0514 180.595 36.0037C180.685 37.9559 180.703 39.8557 180.661 41.6601C180.614 43.4671 180.51 45.2073 180.334 46.8573C180.158 48.5073 179.919 50.0711 179.62 51.5394C179.312 53.0039 178.941 54.3821 178.514 55.6557C178.084 56.9229 177.595 58.0946 177.048 59.1553C176.498 60.2095 175.882 61.171 175.224 62.0069C174.557 62.8391 173.834 63.5667 173.057 64.1741C172.286 64.7789 171.463 65.2699 170.592 65.6381C169.72 66.0063 168.794 66.2544 167.835 66.3807C166.876 66.5071 165.869 66.5106 164.831 66.3989C163.79 66.2807 162.708 66.037 161.604 65.6818C160.497 65.3202 159.351 64.8396 158.189 64.2448C157.025 63.6436 155.83 62.9271 154.629 62.1003C153.419 61.2697 152.193 60.325 150.955 59.2727C149.723 58.2177 148.469 57.0512 147.216 55.7938C145.97 54.5338 144.708 53.1596 143.456 51.6983C142.197 50.2397 140.944 48.6811 139.703 47.0417C138.462 45.4024 137.22 43.6657 136.004 41.865C134.785 40.0579 133.579 38.1701 132.402 36.2249C131.222 34.2732 130.06 32.2537 128.935 30.1806C127.807 28.1167 126.703 25.9823 125.638 23.8163C124.579 21.6476 123.543 19.4242 122.557 17.1794C121.565 14.9373 120.613 12.6479 119.711 10.3529C118.809 8.05778 117.945 5.73109 117.143 3.40891C116.334 1.08941 115.578 -1.24498 114.87 -3.56952C114.171 -5.89026 113.522 -8.21675 112.937 -10.5102C112.343 -12.8074 111.812 -15.0937 111.339 -17.3443C110.869 -19.5883 110.459 -21.8123 110.114 -23.9812C109.767 -26.1565 109.487 -28.2923 109.266 -30.3704C109.048 -32.442 108.893 -34.4649 108.809 -36.4198C108.719 -38.3721 108.697 -40.2628 108.736 -42.0736C108.784 -43.8806 108.894 -45.6234 109.064 -47.2708C109.242 -48.9144 109.479 -50.4846 109.787 -51.9491C110.086 -53.4174 110.457 -54.7956 110.886 -56.0627C111.313 -57.3363 111.809 -58.5107 112.356 -59.5714C112.906 -60.6257 113.516 -61.5845 114.183 -62.4166C114.847 -63.2552 115.57 -63.9828 116.341 -64.5876C117.112 -65.1923 117.941 -65.6861 118.812 -66.0543C119.684 -66.4225 120.603 -66.6679 121.563 -66.7942C122.528 -66.9232 123.535 -66.9268 124.576 -66.8086C125.607 -66.6942 126.696 -66.4531 127.8 -66.098C128.907 -65.7364 130.047 -65.2531 131.211 -64.6518C132.373 -64.0571 133.568 -63.3406 134.778 -62.51C135.979 -61.6832 137.207 -60.7321 138.443 -59.6862C139.681 -58.6338 140.929 -57.4647 142.182 -56.2073C143.431 -54.9408 144.696 -53.5758 145.948 -52.1145C147.2 -50.6532 148.454 -49.0945 149.701 -47.4579C150.945 -45.8121 152.178 -44.0792 153.397 -42.2721C154.613 -40.4714 155.819 -38.5836 156.996 -36.6384C158.176 -34.6867 159.338 -32.6672 160.469 -30.5968C161.59 -28.5302 162.695 -26.3958 163.76 -24.2298C164.828 -22.0573 165.855 -19.8377 166.847 -17.5956C167.833 -15.3508 169.218 -11.9027 169.687 -10.7664ZM169.687 -10.7664C169.262 -11.9213 170.162 -9.63272 169.687 -10.7664Z" stroke="#1E1E1E" stroke-width="8" stroke-linecap="round"/>
<path d="M237.907 168.548C238.809 170.843 239.672 173.169 240.475 175.491C241.277 177.813 242.036 180.154 242.734 182.475C243.427 184.798 244.07 187.127 244.655 189.42C245.237 191.723 245.761 194.011 246.227 196.264C246.684 198.514 247.082 200.743 247.423 202.921C247.755 205.095 248.032 207.24 248.237 209.316C248.436 211.396 248.578 213.424 248.65 215.384C248.727 217.342 248.733 219.247 248.672 221.059C248.612 222.871 248.483 224.622 248.294 226.277C248.106 227.932 247.841 229.507 247.524 230.983C247.197 232.455 246.813 233.839 246.361 235.123C245.913 236.398 245.399 237.58 244.832 238.649C244.257 239.714 243.628 240.68 242.945 241.527C242.253 242.37 241.512 243.105 240.716 243.721C239.926 244.333 239.078 244.835 238.182 245.214C237.291 245.59 236.347 245.846 235.363 245.983C234.385 246.117 233.352 246.131 232.296 246.028C231.23 245.92 230.129 245.685 229 245.34C227.874 244.986 226.709 244.514 225.529 243.927C224.346 243.334 223.132 242.625 221.912 241.807C220.684 240.984 219.439 240.048 218.182 239.003C216.931 237.956 215.659 236.798 214.393 235.546C213.128 234.294 211.854 232.925 210.583 231.472C209.319 230.016 208.047 228.466 206.793 226.832C205.54 225.198 204.285 223.466 203.063 221.669C201.832 219.867 200.613 217.985 199.43 216.042C198.238 214.096 197.07 212.079 195.939 210.009C194.805 207.948 193.694 205.816 192.629 203.65C191.558 201.487 190.522 199.264 189.53 197.022C188.538 194.78 187.587 192.491 186.684 190.196C185.782 187.901 184.919 185.574 184.117 183.252C183.314 180.93 182.558 178.596 181.863 176.266C181.164 173.946 180.521 171.617 179.942 169.321C179.355 167.021 178.83 164.732 178.371 162.476C177.907 160.23 177.509 158.001 177.177 155.827C176.836 153.649 176.569 151.508 176.361 149.424C176.155 147.348 176.019 145.317 175.942 143.359C175.87 141.399 175.861 139.503 175.919 137.685C175.98 135.872 176.109 134.122 176.297 132.466C176.494 130.815 176.75 129.237 177.077 127.764C177.394 126.288 177.784 124.902 178.233 123.627C178.679 122.346 179.193 121.163 179.759 120.095C180.335 119.03 180.963 118.063 181.655 117.22C182.338 116.374 183.086 115.636 183.876 115.023C184.672 114.407 185.52 113.906 186.41 113.53C187.306 113.151 188.251 112.895 189.229 112.76C190.213 112.623 191.239 112.612 192.305 112.719C193.361 112.823 194.463 113.059 195.592 113.403C196.717 113.757 197.882 114.23 199.065 114.823C200.252 115.407 201.459 116.118 202.688 116.94C203.908 117.759 205.161 118.7 206.409 119.74C207.66 120.787 208.933 121.946 210.198 123.197C211.466 124.456 212.744 125.816 214.008 127.271C215.279 128.725 216.545 130.278 217.804 131.909C219.06 133.549 220.306 135.277 221.537 137.079C222.76 138.877 223.978 140.759 225.168 142.699C226.354 144.648 227.522 146.664 228.659 148.732C229.787 150.796 230.897 152.927 231.968 155.09C233.036 157.263 234.069 159.48 235.061 161.722C236.053 163.964 237.438 167.411 237.907 168.548C238.382 169.681 237.482 167.393 237.907 168.548Z" fill="white"/>
<path d="M237.907 168.548C238.809 170.843 239.672 173.169 240.475 175.491C241.277 177.813 242.036 180.154 242.734 182.475C243.427 184.798 244.07 187.127 244.655 189.42C245.237 191.723 245.761 194.011 246.227 196.264C246.684 198.514 247.082 200.743 247.423 202.921C247.755 205.095 248.032 207.24 248.237 209.316C248.436 211.396 248.578 213.424 248.65 215.384C248.727 217.342 248.733 219.247 248.672 221.059C248.612 222.871 248.483 224.622 248.294 226.277C248.106 227.932 247.841 229.507 247.524 230.983C247.197 232.455 246.813 233.839 246.361 235.123C245.913 236.398 245.399 237.58 244.832 238.649C244.257 239.714 243.628 240.68 242.945 241.527C242.253 242.37 241.512 243.105 240.716 243.721C239.926 244.333 239.078 244.835 238.182 245.214C237.291 245.59 236.347 245.846 235.363 245.983C234.385 246.117 233.352 246.132 232.296 246.028C231.23 245.92 230.129 245.685 229 245.34C227.874 244.986 226.709 244.514 225.529 243.927C224.346 243.334 223.132 242.625 221.912 241.807C220.684 240.984 219.439 240.048 218.182 239.003C216.931 237.956 215.659 236.798 214.393 235.546C213.128 234.294 211.854 232.925 210.583 231.472C209.319 230.016 208.047 228.466 206.793 226.832C205.54 225.198 204.285 223.466 203.063 221.669C201.832 219.867 200.613 217.985 199.43 216.042C198.238 214.096 197.07 212.079 195.939 210.009C194.805 207.948 193.694 205.816 192.629 203.65C191.558 201.487 190.522 199.264 189.53 197.022C188.538 194.78 187.587 192.491 186.684 190.196C185.782 187.901 184.919 185.574 184.117 183.252C183.314 180.93 182.558 178.596 181.863 176.266C181.164 173.946 180.521 171.617 179.942 169.321C179.355 167.021 178.83 164.732 178.371 162.476C177.907 160.23 177.509 158.001 177.177 155.827C176.836 153.649 176.569 151.508 176.361 149.424C176.155 147.348 176.019 145.317 175.942 143.359C175.87 141.399 175.861 139.503 175.919 137.685C175.98 135.872 176.109 134.122 176.297 132.466C176.494 130.815 176.75 129.237 177.077 127.764C177.394 126.288 177.784 124.902 178.233 123.627C178.679 122.346 179.193 121.163 179.759 120.095C180.335 119.03 180.963 118.063 181.655 117.22C182.338 116.374 183.086 115.636 183.876 115.023C184.672 114.407 185.52 113.906 186.41 113.53C187.306 113.151 188.251 112.895 189.229 112.76C190.213 112.623 191.239 112.612 192.305 112.719C193.361 112.823 194.463 113.059 195.592 113.403C196.717 113.757 197.882 114.23 199.065 114.823C200.252 115.407 201.459 116.118 202.688 116.94C203.908 117.759 205.161 118.7 206.409 119.74C207.66 120.787 208.933 121.946 210.198 123.197C211.466 124.456 212.744 125.816 214.008 127.271C215.279 128.725 216.545 130.278 217.804 131.909C219.06 133.549 220.306 135.277 221.537 137.079C222.76 138.877 223.978 140.759 225.168 142.699C226.354 144.648 227.522 146.664 228.659 148.732C229.787 150.796 230.897 152.927 231.968 155.09C233.036 157.263 234.069 159.48 235.061 161.722C236.053 163.964 237.438 167.412 237.907 168.548ZM237.907 168.548C237.482 167.393 238.382 169.681 237.907 168.548Z" stroke="#1E1E1E" stroke-width="8" stroke-linecap="round"/>
<path d="M245.265 19.5784C244.197 21.7789 243.08 23.9692 241.927 26.109C240.773 28.2488 239.577 30.366 238.357 32.4235C237.13 34.4778 235.867 36.4971 234.591 38.4475C233.306 40.4009 231.994 42.3008 230.669 44.1318C229.341 45.9533 227.988 47.7151 226.636 49.3989C225.28 51.0732 223.908 52.6848 222.54 54.1965C221.165 55.705 219.79 57.1354 218.417 58.4659C217.051 59.7996 215.675 61.0426 214.323 62.1735C212.97 63.3044 211.618 64.3417 210.295 65.2701C208.973 66.1985 207.658 67.0146 206.38 67.7251C205.099 68.4261 203.845 69.0245 202.618 69.5047C201.399 69.9819 200.205 70.3471 199.058 70.5974C197.909 70.8383 196.795 70.9736 195.732 70.9879C194.667 70.9928 193.646 70.8892 192.677 70.6645C191.714 70.443 190.792 70.1035 189.928 69.6463C189.07 69.1922 188.263 68.6172 187.516 67.9338C186.776 67.2537 186.086 66.4525 185.466 65.5557C184.843 64.6494 184.289 63.6318 183.795 62.5214C183.311 61.4081 182.887 60.1864 182.535 58.8785C182.186 57.5643 181.901 56.1512 181.691 54.6612C181.478 53.1618 181.338 51.5761 181.267 49.9103C181.202 48.2478 181.203 46.4957 181.277 44.6885C181.352 42.8814 181.504 40.9911 181.721 39.0488C181.943 37.1097 182.229 35.1029 182.587 33.0567C182.946 31.0105 183.374 28.8998 183.872 26.7714C184.366 24.6337 184.928 22.4532 185.556 20.2614C186.181 18.0601 186.872 15.8318 187.628 13.5982C188.374 11.3676 189.187 9.11002 190.055 6.86576C190.916 4.61828 191.845 2.35937 192.816 0.123C193.787 -2.11337 194.818 -4.34877 195.886 -6.54924C196.955 -8.74971 198.071 -10.94 199.225 -13.0798C200.378 -15.2196 201.572 -17.3306 202.801 -19.3911C204.022 -21.4486 205.285 -23.4679 206.567 -25.4151C207.846 -27.3717 209.158 -29.2716 210.489 -31.0994C211.811 -32.9241 213.163 -34.6859 214.519 -36.3603C215.872 -38.044 217.247 -39.6462 218.618 -41.1641C219.987 -42.6758 221.368 -44.103 222.735 -45.4367C224.107 -46.7672 225.474 -48.0072 226.829 -49.1443C228.181 -50.2752 229.534 -51.3125 230.857 -52.2409C232.182 -53.1599 233.493 -53.9854 234.775 -54.6864C236.053 -55.3969 237.313 -55.9921 238.531 -56.4693C239.753 -56.9527 240.947 -57.3179 242.094 -57.5682C243.243 -57.8091 244.357 -57.9444 245.422 -57.9493C246.485 -57.9637 247.512 -57.8567 248.475 -57.6353C249.444 -57.4106 250.366 -57.0711 251.224 -56.6171C252.088 -56.1598 252.895 -55.5848 253.635 -54.9047C254.382 -54.2213 255.066 -53.4233 255.689 -52.5171C256.309 -51.6202 256.863 -50.6026 257.357 -49.4923C257.841 -48.3789 258.265 -47.1573 258.614 -45.8431C258.972 -44.5319 259.251 -43.122 259.464 -41.6226C259.674 -40.1326 259.817 -38.5375 259.885 -36.8811C259.95 -35.2186 259.949 -33.4665 259.874 -31.6593C259.797 -29.846 259.654 -27.9587 259.431 -26.0196C259.215 -24.0773 258.923 -22.0737 258.571 -20.0243C258.209 -17.9719 257.778 -15.8706 257.283 -13.7328C256.786 -11.6045 256.224 -9.42404 255.602 -7.22896C254.971 -5.0309 254.279 -2.80258 253.53 -0.565803C252.778 1.66155 251.965 3.91918 251.103 6.16665C250.233 8.41711 249.307 10.6698 248.336 12.9062C247.365 15.1426 245.78 18.4716 245.265 19.5784C244.757 20.6885 245.822 18.4942 245.265 19.5784Z" fill="white"/>
<path d="M245.265 19.5784C244.197 21.7789 243.08 23.9692 241.927 26.109C240.773 28.2488 239.577 30.366 238.357 32.4235C237.13 34.4778 235.867 36.4971 234.591 38.4475C233.306 40.4009 231.994 42.3008 230.669 44.1318C229.341 45.9533 227.988 47.7151 226.636 49.3989C225.28 51.0732 223.908 52.6848 222.54 54.1965C221.165 55.705 219.79 57.1354 218.417 58.4659C217.051 59.7996 215.675 61.0426 214.323 62.1735C212.97 63.3044 211.618 64.3417 210.295 65.2701C208.973 66.1985 207.658 67.0146 206.38 67.7251C205.099 68.4261 203.845 69.0245 202.618 69.5047C201.399 69.9819 200.205 70.3471 199.058 70.5974C197.909 70.8383 196.795 70.9736 195.732 70.9879C194.667 70.9928 193.646 70.8892 192.677 70.6645C191.714 70.443 190.792 70.1035 189.928 69.6463C189.07 69.1922 188.263 68.6172 187.516 67.9338C186.776 67.2537 186.086 66.4525 185.466 65.5557C184.843 64.6494 184.289 63.6318 183.795 62.5215C183.311 61.4081 182.887 60.1864 182.535 58.8785C182.186 57.5643 181.901 56.1512 181.691 54.6612C181.478 53.1618 181.338 51.5761 181.267 49.9103C181.202 48.2477 181.203 46.4957 181.277 44.6885C181.352 42.8814 181.504 40.9911 181.721 39.0488C181.943 37.1097 182.229 35.1029 182.587 33.0567C182.946 31.0105 183.374 28.8998 183.872 26.7714C184.366 24.6337 184.928 22.4532 185.556 20.2614C186.181 18.0601 186.872 15.8318 187.628 13.5982C188.374 11.3676 189.187 9.11002 190.055 6.86576C190.916 4.61828 191.845 2.35937 192.816 0.122998C193.787 -2.11337 194.818 -4.34878 195.886 -6.54924C196.955 -8.74971 198.071 -10.94 199.225 -13.0798C200.378 -15.2196 201.572 -17.3306 202.801 -19.3911C204.022 -21.4486 205.285 -23.4679 206.567 -25.4151C207.846 -27.3717 209.158 -29.2716 210.489 -31.0994C211.811 -32.9241 213.163 -34.6859 214.519 -36.3603C215.872 -38.044 217.247 -39.6462 218.618 -41.1641C219.987 -42.6758 221.368 -44.103 222.735 -45.4367C224.107 -46.7672 225.474 -48.0072 226.829 -49.1443C228.181 -50.2752 229.534 -51.3125 230.857 -52.2409C232.182 -53.1599 233.493 -53.9854 234.775 -54.6864C236.053 -55.3969 237.313 -55.9921 238.531 -56.4693C239.753 -56.9527 240.947 -57.3179 242.094 -57.5682C243.243 -57.8091 244.357 -57.9444 245.422 -57.9493C246.485 -57.9637 247.512 -57.8567 248.475 -57.6353C249.444 -57.4106 250.366 -57.0711 251.224 -56.6171C252.088 -56.1598 252.895 -55.5848 253.635 -54.9047C254.382 -54.2213 255.066 -53.4234 255.689 -52.5171C256.309 -51.6202 256.863 -50.6026 257.357 -49.4923C257.841 -48.3789 258.265 -47.1573 258.614 -45.8431C258.972 -44.5319 259.251 -43.122 259.464 -41.6226C259.674 -40.1326 259.817 -38.5375 259.885 -36.8811C259.95 -35.2186 259.949 -33.4665 259.874 -31.6593C259.797 -29.846 259.654 -27.9587 259.431 -26.0196C259.215 -24.0773 258.923 -22.0737 258.571 -20.0243C258.209 -17.9719 257.778 -15.8706 257.283 -13.7328C256.786 -11.6045 256.224 -9.42403 255.602 -7.22896C254.971 -5.0309 254.279 -2.80258 253.53 -0.565804C252.778 1.66155 251.965 3.91918 251.103 6.16666C250.233 8.41711 249.307 10.6698 248.336 12.9062C247.365 15.1426 245.78 18.4716 245.265 19.5784ZM245.265 19.5784C245.822 18.4942 244.757 20.6884 245.265 19.5784Z" stroke="#1E1E1E" stroke-width="8" stroke-linecap="round"/>
<path d="M155.785 186.913C154.565 189.03 153.291 191.129 151.991 193.179C150.69 195.229 149.343 197.25 147.975 199.209C146.608 201.169 145.201 203.088 143.786 204.937C142.362 206.788 140.914 208.584 139.453 210.307C137.995 212.023 136.517 213.679 135.038 215.253C133.563 216.821 132.071 218.322 130.589 219.724C129.107 221.125 127.618 222.441 126.145 223.662C124.677 224.886 123.206 226.02 121.768 227.043C120.323 228.063 118.89 228.992 117.489 229.812C116.088 230.632 114.709 231.344 113.368 231.95C112.03 232.55 110.715 233.043 109.446 233.426C108.181 233.804 106.953 234.075 105.769 234.228C104.595 234.379 103.453 234.42 102.375 234.348C101.302 234.269 100.269 234.079 99.301 233.775C98.3393 233.474 97.4218 233.056 96.5813 232.531C95.735 232.003 94.9539 231.361 94.2406 230.616C93.5331 229.875 92.885 229.016 92.3129 228.067C91.7384 227.109 91.2408 226.044 90.8099 224.892C90.3882 223.737 90.0343 222.478 89.7586 221.139C89.4865 219.794 89.2902 218.358 89.163 216.843C89.045 215.327 88.9996 213.726 89.0349 212.053C89.0702 210.381 89.1838 208.628 89.3736 206.825C89.5635 205.022 89.8317 203.139 90.1727 201.211C90.5137 199.284 90.9344 197.301 91.4245 195.28C91.9146 193.259 92.4844 191.183 93.119 189.09C93.7513 186.988 94.4588 184.852 95.2337 182.709C96.0061 180.556 96.8468 178.381 97.7456 176.202C98.641 174.029 99.6106 171.837 100.628 169.659C101.645 167.481 102.724 165.292 103.849 163.133C104.975 160.974 106.155 158.816 107.375 156.699C108.595 154.583 109.868 152.483 111.169 150.433C112.469 148.383 113.813 146.368 115.184 144.403C116.551 142.443 117.953 140.521 119.373 138.676C120.798 136.825 122.245 135.029 123.707 133.306C125.158 131.585 126.636 129.93 128.117 128.365C129.596 126.791 131.085 125.296 132.57 123.889C134.053 122.487 135.536 121.167 137.009 119.947C138.482 118.726 139.949 117.599 141.392 116.569C142.831 115.546 144.263 114.616 145.665 113.796C147.062 112.983 148.444 112.264 149.782 111.664C151.129 111.062 152.439 110.566 153.704 110.188C154.973 109.805 156.206 109.537 157.384 109.38C158.564 109.233 159.701 109.189 160.78 109.271C161.858 109.343 162.891 109.534 163.852 109.834C164.82 110.138 165.732 110.553 166.578 111.081C167.419 111.606 168.205 112.251 168.913 112.992C169.626 113.738 170.274 114.596 170.843 115.551C171.415 116.5 171.919 117.568 172.344 118.717C172.771 119.875 173.119 121.13 173.391 122.476C173.667 123.815 173.869 125.255 173.987 126.771C174.108 128.282 174.15 129.889 174.119 131.555C174.083 133.228 173.97 134.981 173.786 136.787C173.592 138.596 173.328 140.474 172.981 142.397C172.64 144.325 172.225 146.311 171.735 148.332C171.241 150.359 170.675 152.429 170.037 154.528C169.402 156.621 168.695 158.757 167.926 160.904C167.153 163.057 166.312 165.231 165.414 167.41C164.512 169.58 163.549 171.775 162.531 173.954C161.511 176.138 160.435 178.32 159.31 180.479C158.185 182.639 156.369 185.843 155.785 186.913C155.194 187.979 156.41 185.869 155.785 186.913Z" fill="white"/>
<path d="M155.785 186.913C154.565 189.03 153.291 191.129 151.991 193.179C150.69 195.229 149.343 197.25 147.975 199.209C146.608 201.169 145.201 203.088 143.786 204.937C142.362 206.788 140.914 208.584 139.453 210.307C137.995 212.023 136.517 213.679 135.038 215.253C133.563 216.821 132.071 218.322 130.589 219.724C129.107 221.125 127.618 222.441 126.145 223.662C124.677 224.886 123.206 226.02 121.768 227.043C120.323 228.063 118.89 228.992 117.489 229.812C116.088 230.632 114.709 231.344 113.368 231.95C112.03 232.55 110.715 233.043 109.446 233.426C108.181 233.804 106.953 234.075 105.769 234.228C104.595 234.379 103.453 234.42 102.375 234.348C101.302 234.269 100.269 234.079 99.301 233.775C98.3393 233.474 97.4218 233.056 96.5813 232.531C95.735 232.003 94.9539 231.361 94.2406 230.616C93.5331 229.875 92.885 229.016 92.3129 228.067C91.7384 227.109 91.2408 226.044 90.8099 224.892C90.3882 223.737 90.0343 222.478 89.7586 221.139C89.4865 219.794 89.2902 218.358 89.163 216.843C89.045 215.327 88.9996 213.726 89.0349 212.053C89.0702 210.381 89.1838 208.628 89.3736 206.825C89.5635 205.022 89.8317 203.139 90.1727 201.211C90.5137 199.284 90.9344 197.301 91.4245 195.28C91.9146 193.259 92.4844 191.183 93.119 189.09C93.7513 186.988 94.4588 184.852 95.2337 182.709C96.0061 180.556 96.8468 178.381 97.7456 176.202C98.641 174.029 99.6106 171.837 100.628 169.659C101.645 167.481 102.724 165.292 103.849 163.133C104.975 160.974 106.155 158.816 107.375 156.699C108.595 154.583 109.868 152.483 111.169 150.433C112.469 148.383 113.813 146.368 115.184 144.403C116.551 142.443 117.953 140.521 119.373 138.676C120.798 136.825 122.245 135.029 123.707 133.306C125.158 131.585 126.636 129.93 128.117 128.365C129.596 126.791 131.085 125.296 132.57 123.889C134.053 122.487 135.536 121.167 137.009 119.947C138.482 118.726 139.949 117.599 141.392 116.569C142.831 115.546 144.263 114.616 145.665 113.796C147.062 112.983 148.444 112.264 149.782 111.664C151.129 111.062 152.439 110.566 153.704 110.188C154.973 109.805 156.206 109.537 157.384 109.38C158.564 109.233 159.701 109.189 160.78 109.271C161.858 109.343 162.891 109.534 163.852 109.834C164.82 110.138 165.732 110.553 166.578 111.081C167.419 111.606 168.205 112.251 168.913 112.992C169.626 113.738 170.274 114.596 170.843 115.551C171.415 116.5 171.919 117.568 172.344 118.717C172.771 119.875 173.119 121.13 173.391 122.476C173.667 123.815 173.869 125.255 173.987 126.771C174.108 128.282 174.15 129.889 174.119 131.555C174.083 133.228 173.97 134.981 173.786 136.787C173.592 138.596 173.328 140.474 172.981 142.397C172.64 144.325 172.225 146.311 171.735 148.332C171.241 150.359 170.675 152.429 170.037 154.528C169.402 156.621 168.695 158.757 167.926 160.904C167.153 163.057 166.312 165.231 165.414 167.41C164.512 169.58 163.549 171.775 162.531 173.954C161.511 176.138 160.435 178.32 159.31 180.479C158.185 182.639 156.369 185.843 155.785 186.913ZM155.785 186.913C156.41 185.869 155.194 187.979 155.785 186.913Z" stroke="#1E1E1E" stroke-width="8" stroke-linecap="round"/>
<path d="M167.631 53.2213C169.106 52.5971 170.622 52.0604 172.152 51.6154C173.685 51.1768 175.251 50.822 176.821 50.5707C178.388 50.3129 179.987 50.1544 181.566 50.0944C183.148 50.0253 184.744 50.0635 186.317 50.1937C187.89 50.324 189.459 50.5539 191.002 50.8695C192.542 51.1942 194.066 51.6084 195.554 52.12C197.04 52.6251 198.498 53.225 199.909 53.912C201.32 54.5991 202.694 55.3772 204.001 56.2284C205.318 57.0834 206.581 58.0283 207.773 59.0334C208.974 60.0424 210.114 61.1374 211.173 62.2889C212.233 63.4404 213.234 64.6689 214.145 65.9436C215.055 67.2184 215.899 68.5663 216.646 69.9477C217.393 71.329 218.068 72.7707 218.645 74.2393C219.219 75.7014 219.706 77.2227 220.102 78.7528C220.498 80.2829 220.802 81.8593 221.009 83.4316C221.217 85.0038 221.327 86.6095 221.345 88.202C221.363 89.7944 221.285 91.4047 221.106 92.998C220.93 94.5823 220.662 96.1752 220.297 97.7421C219.935 99.2999 219.477 100.854 218.93 102.369C218.384 103.885 217.745 105.372 217.023 106.812C216.303 108.259 215.492 109.661 214.61 111.011C213.718 112.358 212.752 113.661 211.715 114.896C210.677 116.131 209.562 117.317 208.384 118.417C207.215 119.52 205.965 120.567 204.671 121.521C203.379 122.481 202.021 123.364 200.629 124.163C199.236 124.956 197.79 125.673 196.316 126.297C194.841 126.921 193.325 127.458 191.788 127.906C190.255 128.344 188.69 128.699 187.12 128.95C185.553 129.208 183.96 129.364 182.381 129.424C180.798 129.493 179.203 129.455 177.63 129.325C176.056 129.194 174.482 128.967 172.944 128.649C171.405 128.324 169.875 127.913 168.392 127.398C166.906 126.893 165.443 126.296 164.038 125.606C162.626 124.919 161.253 124.141 159.939 123.293C158.629 122.435 157.359 121.493 156.167 120.488C154.972 119.476 153.833 118.381 152.773 117.23C151.708 116.081 150.712 114.85 149.802 113.575C148.892 112.3 148.048 110.952 147.301 109.571C146.548 108.192 145.878 106.748 145.304 105.286C144.728 103.817 144.234 102.298 143.845 100.766C143.449 99.2355 143.145 97.6591 142.937 96.0868C142.73 94.5146 142.613 92.9116 142.602 91.3165C142.584 89.724 142.662 88.1137 142.835 86.523C143.011 84.9388 143.284 83.3432 143.643 81.7789C144.012 80.2185 144.47 78.6648 145.017 77.149C145.557 75.6358 146.201 74.1461 146.924 72.7059C147.638 71.262 148.455 69.8571 149.337 68.5071C150.222 67.1635 151.195 65.8578 152.232 64.6225C153.269 63.3872 154.384 62.2016 155.563 61.1019C156.732 59.9984 157.976 58.9537 159.27 58.0002C160.561 57.0403 161.92 56.1573 163.311 55.3581C164.711 54.5626 166.156 53.8455 167.631 53.2213Z" fill="#FFD43B"/>
<path d="M167.631 53.2213C169.106 52.5971 170.622 52.0604 172.152 51.6154C173.685 51.1769 175.251 50.822 176.821 50.5707C178.388 50.3129 179.987 50.1543 181.566 50.0944C183.148 50.0253 184.744 50.0635 186.317 50.1937C187.89 50.324 189.459 50.5539 191.002 50.8695C192.542 51.1942 194.066 51.6084 195.554 52.12C197.04 52.6251 198.498 53.225 199.909 53.912C201.32 54.5991 202.694 55.3772 204.001 56.2284C205.318 57.0834 206.581 58.0283 207.773 59.0334C208.974 60.0424 210.114 61.1374 211.173 62.2889C212.233 63.4404 213.235 64.6689 214.145 65.9436C215.055 67.2184 215.899 68.5663 216.646 69.9477C217.393 71.329 218.068 72.7707 218.645 74.2393C219.219 75.7014 219.706 77.2227 220.102 78.7528C220.498 80.2829 220.802 81.8593 221.009 83.4316C221.217 85.0038 221.327 86.6095 221.345 88.202C221.363 89.7944 221.285 91.4047 221.106 92.998C220.93 94.5823 220.662 96.1752 220.297 97.7421C219.935 99.2999 219.477 100.854 218.93 102.369C218.384 103.885 217.745 105.372 217.023 106.812C216.303 108.259 215.492 109.661 214.61 111.011C213.718 112.358 212.752 113.661 211.715 114.896C210.677 116.131 209.562 117.317 208.384 118.417C207.215 119.52 205.965 120.567 204.671 121.521C203.379 122.481 202.021 123.364 200.629 124.163C199.236 124.956 197.79 125.673 196.316 126.297C194.841 126.921 193.325 127.458 191.788 127.906C190.255 128.344 188.69 128.699 187.12 128.95C185.553 129.208 183.96 129.364 182.381 129.424C180.798 129.493 179.203 129.455 177.63 129.325C176.056 129.194 174.482 128.967 172.944 128.649C171.405 128.324 169.875 127.913 168.392 127.398C166.906 126.893 165.443 126.296 164.038 125.606C162.626 124.919 161.253 124.141 159.939 123.293C158.629 122.435 157.359 121.493 156.167 120.488C154.972 119.476 153.833 118.381 152.773 117.23C151.708 116.081 150.712 114.85 149.802 113.575C148.892 112.3 148.048 110.952 147.301 109.571C146.548 108.192 145.878 106.748 145.304 105.286C144.728 103.817 144.234 102.298 143.845 100.766C143.449 99.2355 143.145 97.6591 142.937 96.0868C142.73 94.5146 142.613 92.9116 142.602 91.3165C142.584 89.724 142.662 88.1137 142.835 86.523C143.011 84.9388 143.284 83.3432 143.643 81.7789C144.012 80.2185 144.47 78.6648 145.017 77.149C145.557 75.6358 146.201 74.1461 146.924 72.706C147.638 71.262 148.455 69.8571 149.337 68.5071C150.222 67.1635 151.195 65.8578 152.232 64.6225C153.269 63.3872 154.384 62.2016 155.563 61.1019C156.732 59.9984 157.976 58.9537 159.27 58.0002C160.561 57.0403 161.92 56.1573 163.311 55.3581C164.711 54.5626 166.156 53.8455 167.631 53.2213Z" stroke="#1E1E1E" stroke-width="8" stroke-linecap="round"/>
</g>
<defs>
<clipPath id="clip0_1_4">
<rect width="328.589" height="339" fill="white" transform="translate(0 -58.5219) rotate(-7.26633)"/>
</clipPath>
</defs>
</svg>
