<svg width="30" height="30" viewBox="0 0 30 30" fill="none" xmlns="http://www.w3.org/2000/svg">
<g clip-path="url(#clip0_2_234)">
<path d="M23.3829 15.3738C23.1808 15.4429 22.9762 15.5083 22.7724 15.5683C22.5687 15.6283 22.3637 15.6842 22.1608 15.7349C21.9578 15.7851 21.7546 15.8307 21.5549 15.8714C21.3545 15.9116 21.1557 15.9468 20.9603 15.977C20.7653 16.0064 20.5725 16.0305 20.3844 16.0498C20.1968 16.0684 20.012 16.0821 19.8336 16.0898C19.655 16.0969 19.4812 16.0991 19.3137 16.0953C19.1464 16.0922 18.9841 16.0828 18.8302 16.0679C18.6763 16.0531 18.5281 16.0325 18.3885 16.007C18.2489 15.9815 18.1168 15.9496 17.9934 15.9134C17.8704 15.8764 17.7554 15.8348 17.6494 15.7876C17.5441 15.7407 17.4473 15.6884 17.3604 15.6321C17.274 15.5749 17.1963 15.5135 17.1293 15.4478C17.0627 15.3813 17.0055 15.3109 16.959 15.2363C16.9127 15.1622 16.8763 15.0835 16.8507 15.001C16.8252 14.9192 16.8104 14.833 16.8061 14.744C16.8019 14.6555 16.8084 14.5628 16.825 14.4684C16.8421 14.3733 16.8704 14.2757 16.9081 14.1761C16.9466 14.0769 16.9955 13.9748 17.0542 13.8719C17.1136 13.7688 17.1829 13.6635 17.2617 13.5582C17.3409 13.4522 17.4299 13.3454 17.5282 13.2379C17.6267 13.1311 17.7348 13.0228 17.8508 12.9157C17.9669 12.8087 18.0929 12.7014 18.2262 12.5948C18.3596 12.4889 18.5011 12.3827 18.6496 12.2787C18.798 12.1746 18.9548 12.0709 19.1171 11.9706C19.2797 11.8694 19.449 11.7698 19.6233 11.6736C19.7979 11.5767 19.9784 11.4823 20.1631 11.3915C20.3471 11.3004 20.5369 11.2117 20.7293 11.1274C20.9215 11.0424 21.1186 10.9609 21.3169 10.8835C21.5153 10.8061 21.7173 10.7326 21.9195 10.6635C22.1217 10.5944 22.3263 10.5289 22.53 10.4689C22.7338 10.4089 22.9382 10.3532 23.1418 10.3029C23.3447 10.2522 23.5478 10.2065 23.7477 10.1664C23.9479 10.1256 24.1468 10.0904 24.3423 10.0608C24.5372 10.0309 24.73 10.0067 24.9176 9.98815C25.1057 9.96884 25.29 9.95592 25.469 9.94805C25.6474 9.94037 25.8214 9.9387 25.9887 9.94189C26.1562 9.94565 26.3178 9.95465 26.4723 9.96928C26.6262 9.98411 26.7743 10.0048 26.9139 10.0303C27.0531 10.0565 27.1857 10.0877 27.3086 10.1246C27.432 10.1608 27.5472 10.203 27.6525 10.2498C27.7583 10.2965 27.8552 10.3488 27.942 10.4052C28.0284 10.4623 28.1061 10.5238 28.1728 10.5902C28.2398 10.6559 28.2971 10.7269 28.3434 10.801C28.3899 10.8756 28.4264 10.9544 28.4518 11.0362C28.4774 11.1186 28.4922 11.2048 28.4964 11.2932C28.5007 11.3823 28.4941 11.4745 28.477 11.5696C28.4603 11.6639 28.4321 11.7615 28.3944 11.8611C28.3559 11.9603 28.307 12.0624 28.2477 12.1655C28.1891 12.269 28.1195 12.3737 28.0404 12.4798C27.9616 12.585 27.8721 12.6927 27.7742 12.7993C27.6758 12.9062 27.5677 13.0144 27.4516 13.1215C27.335 13.2288 27.2097 13.3365 27.0763 13.4424C26.9431 13.5489 26.8014 13.6545 26.6531 13.7591C26.504 13.8634 26.3476 13.9663 26.185 14.0674C26.0228 14.1678 25.8534 14.2675 25.6793 14.3642C25.5045 14.4605 25.3241 14.555 25.1395 14.6463C24.9553 14.7369 24.7655 14.8255 24.5733 14.9104C24.3804 14.995 24.1839 15.0763 23.9855 15.1537C23.7872 15.2311 23.4832 15.3376 23.3829 15.3738C23.2829 15.4105 23.4845 15.3416 23.3829 15.3738Z" fill="white"/>
<path d="M23.3829 15.3738C23.1808 15.4429 22.9762 15.5083 22.7724 15.5683C22.5687 15.6283 22.3637 15.6842 22.1608 15.7349C21.9578 15.7851 21.7546 15.8307 21.5549 15.8714C21.3545 15.9116 21.1557 15.9468 20.9603 15.977C20.7653 16.0064 20.5725 16.0305 20.3844 16.0498C20.1968 16.0684 20.012 16.0821 19.8336 16.0898C19.655 16.0969 19.4812 16.0991 19.3137 16.0953C19.1464 16.0922 18.9841 16.0828 18.8302 16.0679C18.6763 16.0531 18.5281 16.0325 18.3885 16.007C18.2489 15.9815 18.1168 15.9496 17.9934 15.9134C17.8704 15.8764 17.7554 15.8348 17.6494 15.7876C17.5441 15.7407 17.4473 15.6884 17.3604 15.6321C17.274 15.5749 17.1963 15.5135 17.1293 15.4478C17.0627 15.3813 17.0055 15.3109 16.959 15.2363C16.9127 15.1622 16.8763 15.0835 16.8507 15.001C16.8252 14.9192 16.8104 14.833 16.8061 14.744C16.8019 14.6555 16.8084 14.5628 16.825 14.4684C16.8421 14.3733 16.8704 14.2757 16.9081 14.1761C16.9466 14.0769 16.9955 13.9748 17.0542 13.8719C17.1136 13.7688 17.1829 13.6635 17.2617 13.5582C17.3409 13.4522 17.4299 13.3454 17.5282 13.2379C17.6267 13.1311 17.7348 13.0228 17.8508 12.9157C17.9669 12.8087 18.0929 12.7014 18.2262 12.5948C18.3596 12.4889 18.5011 12.3827 18.6496 12.2787C18.798 12.1746 18.9548 12.0709 19.1171 11.9706C19.2797 11.8694 19.449 11.7698 19.6233 11.6736C19.7979 11.5767 19.9784 11.4823 20.1631 11.3915C20.3471 11.3004 20.5369 11.2117 20.7293 11.1274C20.9215 11.0424 21.1186 10.9609 21.3169 10.8835C21.5153 10.8061 21.7173 10.7326 21.9195 10.6635C22.1217 10.5944 22.3263 10.5289 22.53 10.4689C22.7338 10.4089 22.9382 10.3532 23.1418 10.3029C23.3447 10.2522 23.5478 10.2065 23.7477 10.1664C23.9479 10.1256 24.1468 10.0904 24.3423 10.0608C24.5372 10.0309 24.73 10.0067 24.9176 9.98815C25.1057 9.96884 25.29 9.95592 25.469 9.94805C25.6474 9.94037 25.8214 9.9387 25.9887 9.94189C26.1562 9.94565 26.3178 9.95465 26.4723 9.96928C26.6262 9.98411 26.7743 10.0048 26.9139 10.0303C27.0531 10.0565 27.1857 10.0877 27.3086 10.1246C27.432 10.1608 27.5472 10.203 27.6525 10.2498C27.7583 10.2965 27.8552 10.3488 27.942 10.4052C28.0284 10.4623 28.1061 10.5238 28.1728 10.5902C28.2398 10.6559 28.2971 10.7269 28.3434 10.801C28.3899 10.8756 28.4264 10.9544 28.4518 11.0362C28.4774 11.1186 28.4922 11.2048 28.4964 11.2932C28.5007 11.3823 28.4941 11.4745 28.477 11.5696C28.4603 11.6639 28.4321 11.7615 28.3944 11.8611C28.3559 11.9603 28.307 12.0624 28.2477 12.1655C28.1891 12.269 28.1195 12.3737 28.0404 12.4798C27.9616 12.585 27.8721 12.6927 27.7742 12.7993C27.6758 12.9062 27.5677 13.0144 27.4516 13.1215C27.335 13.2288 27.2097 13.3365 27.0763 13.4424C26.9431 13.5489 26.8014 13.6545 26.6531 13.7591C26.504 13.8634 26.3476 13.9663 26.185 14.0674C26.0228 14.1678 25.8534 14.2675 25.6793 14.3642C25.5045 14.4605 25.3241 14.555 25.1395 14.6463C24.9553 14.7369 24.7655 14.8255 24.5733 14.9104C24.3804 14.995 24.1839 15.0763 23.9855 15.1537C23.7872 15.2311 23.4832 15.3376 23.3829 15.3738ZM23.3829 15.3738C23.4845 15.3416 23.2829 15.4105 23.3829 15.3738Z" stroke="#1E1E1E" stroke-linecap="round"/>
<path d="M22.092 23.9501C21.9181 23.8233 21.7456 23.6924 21.5778 23.5588C21.41 23.4252 21.2445 23.2881 21.0844 23.1497C20.9246 23.0107 20.7682 22.869 20.6177 22.727C20.4671 22.5843 20.3213 22.4397 20.1815 22.2951C20.0425 22.1503 19.9088 22.0041 19.7817 21.859C19.6555 21.7137 19.5347 21.5679 19.4223 21.4237C19.3103 21.2791 19.2048 21.1355 19.1078 20.9935C19.0105 20.852 18.9209 20.7109 18.8404 20.5736C18.76 20.4362 18.6876 20.3001 18.6239 20.1683C18.5603 20.0364 18.5061 19.9068 18.4603 19.782C18.4155 19.657 18.3789 19.5359 18.3521 19.4188C18.3254 19.3026 18.3079 19.1901 18.2996 19.0835C18.2921 18.9768 18.2931 18.8748 18.3038 18.779C18.3153 18.6832 18.3354 18.5928 18.3652 18.5088C18.3947 18.4253 18.4337 18.3472 18.4819 18.2758C18.5299 18.205 18.5875 18.1405 18.6535 18.0829C18.7192 18.0258 18.7946 17.9749 18.8773 17.9317C18.9608 17.8883 19.0529 17.8527 19.1522 17.8238C19.2517 17.7957 19.3596 17.7746 19.474 17.7613C19.5888 17.7482 19.7114 17.7423 19.8396 17.7442C19.9686 17.746 20.1041 17.7555 20.2455 17.7723C20.3867 17.7897 20.5346 17.8143 20.6864 17.8461C20.8382 17.878 20.9962 17.9181 21.1578 17.9647C21.3191 18.0117 21.4853 18.0654 21.6541 18.1262C21.823 18.1869 21.9964 18.2549 22.1706 18.3293C22.3456 18.4036 22.5235 18.4845 22.7016 18.5716C22.8805 18.6585 23.061 18.7518 23.2412 18.8508C23.4212 18.9491 23.6028 19.0536 23.7827 19.163C23.9628 19.2718 24.1432 19.3868 24.3213 19.5053C24.4993 19.6238 24.6765 19.7477 24.8504 19.8745C25.0243 20.0012 25.1968 20.1322 25.3647 20.2658C25.5325 20.3993 25.6974 20.5361 25.8577 20.6754C26.0178 20.8139 26.1743 20.9556 26.3244 21.098C26.4754 21.2403 26.6211 21.3848 26.7606 21.53C26.9 21.6743 27.0336 21.8205 27.1599 21.9658C27.287 22.1109 27.4069 22.2568 27.5198 22.4013C27.6322 22.5455 27.7373 22.6896 27.8346 22.8311C27.9317 22.9731 28.0211 23.1133 28.102 23.251C28.1824 23.3883 28.2549 23.5244 28.3185 23.6563C28.3813 23.7883 28.4364 23.9177 28.4813 24.0427C28.527 24.1675 28.5632 24.2892 28.5899 24.4054C28.617 24.522 28.6345 24.6345 28.6429 24.741C28.6504 24.8478 28.6493 24.9498 28.6379 25.0457C28.6272 25.1414 28.6067 25.2322 28.5772 25.3158C28.5474 25.3998 28.5084 25.4779 28.4605 25.5487C28.4122 25.6201 28.3547 25.6846 28.2889 25.7417C28.2229 25.7993 28.1478 25.8496 28.0643 25.893C27.9817 25.9363 27.8895 25.9719 27.7902 26.0008C27.6908 26.0288 27.5829 26.0499 27.468 26.063C27.3533 26.0768 27.2311 26.0823 27.1021 26.0805C26.9739 26.0786 26.8376 26.0693 26.6969 26.0523C26.5558 26.0349 26.4078 26.0103 26.256 25.9784C26.1037 25.9462 25.946 25.907 25.7847 25.8599C25.6231 25.8134 25.4571 25.7592 25.288 25.6989C25.1187 25.6378 24.946 25.5697 24.771 25.4954C24.5968 25.4209 24.4189 25.34 24.2405 25.2535C24.0619 25.1661 23.8815 25.0728 23.7009 24.9742C23.5212 24.8755 23.3396 24.7709 23.1595 24.6621C22.9791 24.5524 22.7992 24.4378 22.6212 24.3193C22.4432 24.2008 22.1797 24.0118 22.092 23.9501C22.0039 23.8889 22.1774 24.0153 22.092 23.9501Z" fill="white"/>
<path d="M22.092 23.7198C21.9181 23.593 21.7456 23.462 21.5778 23.3285C21.41 23.1949 21.2445 23.0578 21.0844 22.9194C20.9246 22.7804 20.7682 22.6386 20.6177 22.4967C20.4671 22.3539 20.3213 22.2094 20.1815 22.0647C20.0425 21.9199 19.9088 21.7737 19.7817 21.6286C19.6555 21.4833 19.5347 21.3376 19.4223 21.1934C19.3103 21.0487 19.2048 20.9051 19.1078 20.7632C19.0105 20.6217 18.9209 20.4806 18.8404 20.3433C18.76 20.2059 18.6876 20.0698 18.6239 19.9379C18.5603 19.806 18.5061 19.6765 18.4603 19.5517C18.4155 19.4267 18.3789 19.3056 18.3521 19.1885C18.3254 19.0723 18.3079 18.9598 18.2996 18.8532C18.2921 18.7465 18.2931 18.6445 18.3038 18.5487C18.3153 18.4528 18.3354 18.3625 18.3652 18.2785C18.3947 18.195 18.4337 18.1168 18.4819 18.0455C18.5299 17.9747 18.5875 17.9102 18.6535 17.8525C18.7192 17.7954 18.7946 17.7446 18.8773 17.7013C18.9608 17.6579 19.0529 17.6223 19.1522 17.5934C19.2516 17.5654 19.3596 17.5443 19.474 17.5309C19.5888 17.5179 19.7114 17.5119 19.8396 17.5139C19.9686 17.5156 20.1041 17.5251 20.2455 17.542C20.3867 17.5593 20.5346 17.5839 20.6864 17.6158C20.8382 17.6477 20.9962 17.6878 21.1578 17.7343C21.3191 17.7814 21.4853 17.8351 21.6541 17.8958C21.823 17.9566 21.9964 18.0245 22.1706 18.099C22.3456 18.1733 22.5235 18.2542 22.7016 18.3412C22.8805 18.4281 23.061 18.5214 23.2412 18.6205C23.4212 18.7187 23.6028 18.8233 23.7827 18.9326C23.9628 19.0415 24.1432 19.1565 24.3213 19.275C24.4993 19.3935 24.6765 19.5174 24.8504 19.6441C25.0243 19.7709 25.1968 19.9019 25.3647 20.0354C25.5325 20.169 25.6974 20.3057 25.8577 20.4451C26.0178 20.5835 26.1743 20.7253 26.3244 20.8677C26.4754 21.01 26.6211 21.1545 26.7606 21.2997C26.9 21.444 27.0336 21.5902 27.1599 21.7354C27.287 21.8806 27.4069 22.0265 27.5198 22.171C27.6322 22.3152 27.7373 22.4593 27.8346 22.6008C27.9317 22.7427 28.0211 22.8829 28.102 23.0207C28.1824 23.158 28.2549 23.2941 28.3185 23.426C28.3813 23.558 28.4364 23.6874 28.4813 23.8124C28.527 23.9372 28.5632 24.0588 28.5899 24.1751C28.617 24.2916 28.6345 24.4041 28.6429 24.5107C28.6504 24.6174 28.6493 24.7195 28.6379 24.8153C28.6272 24.9111 28.6067 25.0019 28.5772 25.0854C28.5474 25.1695 28.5084 25.2476 28.4605 25.3184C28.4122 25.3897 28.3547 25.4543 28.2889 25.5114C28.2229 25.569 28.1478 25.6193 28.0643 25.6627C27.9817 25.706 27.8895 25.7416 27.7902 25.7705C27.6908 25.7985 27.5829 25.8196 27.468 25.8326C27.3533 25.8465 27.2311 25.852 27.1021 25.8502C26.9739 25.8483 26.8376 25.8389 26.6969 25.8219C26.5558 25.8046 26.4078 25.78 26.256 25.7481C26.1037 25.7159 25.946 25.6766 25.7847 25.6296C25.6231 25.5831 25.4571 25.5289 25.288 25.4686C25.1187 25.4074 24.946 25.3394 24.771 25.2651C24.5968 25.1906 24.4189 25.1097 24.2405 25.0232C24.0619 24.9358 23.8815 24.8425 23.7009 24.7439C23.5212 24.6452 23.3396 24.5406 23.1595 24.4318C22.9791 24.3221 22.7992 24.2075 22.6212 24.089C22.4432 23.9705 22.1797 23.7815 22.092 23.7198ZM22.092 23.7198C22.1774 23.785 22.0039 23.6586 22.092 23.7198Z" stroke="#1E1E1E" stroke-linecap="round"/>
<path d="M5.65741 14.4987C5.86612 14.4373 6.07781 14.3801 6.28772 14.3279C6.49746 14.2751 6.70847 14.2271 6.91653 14.1843C7.12474 14.1421 7.33275 14.1037 7.53666 14.071C7.74073 14.0389 7.94343 14.011 8.1403 13.9893C8.33718 13.9675 8.53169 13.9509 8.7195 13.9394C8.90688 13.9287 9.09074 13.9234 9.26658 13.923C9.44316 13.9231 9.61375 13.9287 9.77575 13.9394C9.9379 13.9507 10.0941 13.9675 10.2398 13.9893C10.386 14.011 10.5252 14.0385 10.6532 14.0712C10.7819 14.1037 10.9019 14.1413 11.0109 14.1841C11.1199 14.2268 11.2197 14.2748 11.3083 14.3273C11.3963 14.38 11.4745 14.4376 11.541 14.4985C11.6078 14.56 11.6633 14.6261 11.7067 14.6957C11.7507 14.7651 11.7829 14.8393 11.8034 14.9163C11.8239 14.9933 11.833 15.0743 11.8297 15.1577C11.827 15.2409 11.8124 15.3282 11.7855 15.4166C11.7589 15.5055 11.7205 15.5973 11.6712 15.6898C11.6214 15.783 11.5598 15.8784 11.4877 15.9744C11.4157 16.0704 11.3318 16.1686 11.2379 16.2665C11.1444 16.3637 11.0391 16.4631 10.9249 16.562C10.8111 16.6601 10.6858 16.759 10.5528 16.8571C10.4197 16.9552 10.2767 17.053 10.1256 17.1487C9.97528 17.2449 9.81536 17.3401 9.6499 17.4331C9.48385 17.5263 9.30938 17.6181 9.13019 17.7063C8.95115 17.7951 8.76426 17.8823 8.57381 17.9656C8.38336 18.0488 8.18679 18.1301 7.9878 18.207C7.78882 18.2838 7.58471 18.3578 7.3795 18.4276C7.17429 18.4975 6.96494 18.5635 6.75623 18.6248C6.54752 18.6862 6.33598 18.7439 6.12608 18.7961C5.91617 18.8484 5.70517 18.8964 5.49711 18.9392C5.28905 18.982 5.08089 19.0198 4.87698 19.0525C4.67307 19.0852 4.47079 19.1123 4.27333 19.1342C4.07661 19.1566 3.8821 19.1732 3.69472 19.1839C3.50676 19.1948 3.32305 19.2007 3.14706 19.2005C2.97121 19.2008 2.80004 19.1954 2.63789 19.1841C2.47573 19.1728 2.32029 19.1564 2.17403 19.1348C2.0276 19.1125 1.88905 19.0848 1.76055 19.0529C1.63191 19.0204 1.5117 18.9822 1.40271 18.9394C1.29372 18.8967 1.19391 18.8487 1.10589 18.796C1.01745 18.744 0.939341 18.6865 0.872605 18.625C0.806602 18.5639 0.750927 18.4973 0.70694 18.4278C0.662953 18.3584 0.63076 18.2842 0.610255 18.2072C0.58975 18.1302 0.580619 18.0492 0.583909 17.9658C0.587199 17.8825 0.60202 17.7957 0.628109 17.7069C0.65493 17.6185 0.693282 17.5268 0.743059 17.4335C0.792259 17.3405 0.853879 17.2451 0.925927 17.1491C0.997975 17.0531 1.08202 16.9555 1.17592 16.8576C1.26982 16.7596 1.37457 16.6604 1.4889 16.5621C1.60324 16.4638 1.72784 16.3645 1.86088 16.2664C1.99408 16.1689 2.1377 16.0709 2.28803 15.9748C2.43852 15.8792 2.59827 15.7834 2.76432 15.6902C2.92994 15.5978 3.10442 15.5059 3.28345 15.4172C3.46306 15.3283 3.64953 15.2417 3.83983 15.1579C4.03027 15.0747 4.22701 14.994 4.42583 14.9165C4.62482 14.8397 4.82893 14.7657 5.0343 14.6964C5.23951 14.6266 5.55368 14.5317 5.65741 14.4987C5.76129 14.4662 5.55258 14.5276 5.65741 14.4987Z" fill="white"/>
<path d="M5.65741 14.4987C5.86612 14.4373 6.07781 14.3801 6.28772 14.3279C6.49746 14.2751 6.70847 14.2271 6.91653 14.1843C7.12474 14.1421 7.33275 14.1037 7.53666 14.071C7.74073 14.0389 7.94343 14.011 8.1403 13.9893C8.33718 13.9675 8.53169 13.9509 8.7195 13.9394C8.90688 13.9287 9.09074 13.9234 9.26658 13.923C9.44316 13.9231 9.61375 13.9287 9.77575 13.9394C9.93791 13.9507 10.0941 13.9675 10.2398 13.9893C10.386 14.011 10.5252 14.0385 10.6532 14.0712C10.7819 14.1037 10.9019 14.1413 11.0109 14.1841C11.1199 14.2268 11.2197 14.2748 11.3083 14.3273C11.3963 14.38 11.4745 14.4376 11.541 14.4985C11.6078 14.56 11.6633 14.6261 11.7067 14.6957C11.7507 14.7651 11.7829 14.8393 11.8034 14.9163C11.8239 14.9933 11.833 15.0743 11.8297 15.1577C11.827 15.2409 11.8124 15.3282 11.7855 15.4166C11.7589 15.5055 11.7205 15.5973 11.6712 15.6898C11.6214 15.783 11.5598 15.8784 11.4877 15.9744C11.4157 16.0704 11.3318 16.1686 11.2379 16.2665C11.1444 16.3637 11.0391 16.4631 10.9249 16.562C10.8111 16.6601 10.6858 16.759 10.5528 16.8571C10.4197 16.9552 10.2767 17.053 10.1256 17.1487C9.97528 17.2449 9.81536 17.3401 9.6499 17.4331C9.48385 17.5263 9.30938 17.6181 9.13019 17.7063C8.95115 17.7951 8.76426 17.8823 8.57381 17.9656C8.38336 18.0488 8.18679 18.1301 7.9878 18.207C7.78882 18.2838 7.58471 18.3578 7.3795 18.4276C7.17429 18.4975 6.96494 18.5635 6.75623 18.6248C6.54752 18.6862 6.33598 18.7439 6.12608 18.7961C5.91617 18.8484 5.70517 18.8964 5.49711 18.9392C5.28905 18.982 5.08089 19.0198 4.87698 19.0525C4.67307 19.0852 4.47079 19.1123 4.27333 19.1342C4.07661 19.1566 3.8821 19.1732 3.69472 19.1839C3.50676 19.1948 3.32305 19.2007 3.14706 19.2005C2.97121 19.2008 2.80004 19.1954 2.63789 19.1841C2.47573 19.1728 2.32029 19.1564 2.17403 19.1348C2.0276 19.1125 1.88905 19.0848 1.76055 19.0529C1.63191 19.0204 1.5117 18.9822 1.40271 18.9394C1.29372 18.8967 1.19391 18.8487 1.10589 18.796C1.01745 18.744 0.939341 18.6865 0.872605 18.625C0.806602 18.5639 0.750927 18.4973 0.70694 18.4278C0.662953 18.3584 0.63076 18.2842 0.610255 18.2072C0.58975 18.1302 0.580619 18.0492 0.583909 17.9658C0.587199 17.8825 0.60202 17.7957 0.628109 17.7069C0.65493 17.6185 0.693282 17.5268 0.743059 17.4335C0.792259 17.3405 0.853879 17.2451 0.925927 17.1491C0.997975 17.0531 1.08202 16.9555 1.17592 16.8576C1.26982 16.7596 1.37457 16.6604 1.4889 16.5621C1.60324 16.4638 1.72784 16.3645 1.86088 16.2664C1.99408 16.1689 2.1377 16.0709 2.28803 15.9748C2.43852 15.8792 2.59827 15.7834 2.76432 15.6902C2.92994 15.5978 3.10442 15.5059 3.28345 15.4172C3.46306 15.3283 3.64953 15.2417 3.83983 15.1579C4.03027 15.0747 4.22701 14.994 4.42583 14.9165C4.62482 14.8397 4.82893 14.7657 5.0343 14.6964C5.23951 14.6266 5.55368 14.5317 5.65741 14.4987ZM5.65741 14.4987C5.55258 14.5276 5.76129 14.4662 5.65741 14.4987Z" stroke="#1E1E1E" stroke-linecap="round"/>
<path d="M8.87803 9.14107C9.04274 9.27211 9.20587 9.40733 9.36374 9.54456C9.52208 9.68216 9.6779 9.82318 9.82787 9.96497C9.97784 10.1068 10.1243 10.2512 10.2637 10.3962C10.4038 10.541 10.5391 10.6874 10.6666 10.833C10.7946 10.979 10.9168 11.1258 11.0314 11.2705C11.1452 11.4153 11.2531 11.56 11.3526 11.7027C11.452 11.8445 11.5437 11.9856 11.6269 12.1239C11.71 12.2613 11.7852 12.3971 11.8505 12.5289C11.9163 12.6602 11.974 12.7891 12.0213 12.9127C12.069 13.0367 12.1077 13.1566 12.1364 13.2708C12.1655 13.3854 12.185 13.4955 12.1948 13.5985C12.2046 13.7024 12.2052 13.8005 12.1955 13.892C12.1859 13.9835 12.1665 14.0688 12.1381 14.147C12.1097 14.2251 12.0719 14.2965 12.0246 14.3604C11.9773 14.4243 11.9206 14.4807 11.8552 14.5293C11.7897 14.578 11.7153 14.6195 11.6325 14.6529C11.5502 14.6857 11.4583 14.711 11.359 14.7281C11.2605 14.745 11.1528 14.7539 11.0386 14.7544C10.9248 14.7553 10.8031 14.7476 10.6752 14.7319C10.5478 14.7165 10.4128 14.692 10.2735 14.6602C10.1338 14.6289 9.98783 14.5887 9.83834 14.541C9.68801 14.4935 9.53284 14.4382 9.37497 14.3754C9.21628 14.3126 9.05357 14.2421 8.88923 14.1656C8.72478 14.0882 8.55644 14.0038 8.3873 13.9134C8.21864 13.8234 8.04728 13.7258 7.87607 13.6229C7.70498 13.5209 7.5325 13.4115 7.3616 13.298C7.1907 13.1845 7.01901 13.065 6.84984 12.942C6.68114 12.8194 6.51296 12.691 6.34825 12.56C6.18354 12.4289 6.02041 12.2937 5.86207 12.1561C5.7042 12.0189 5.54838 11.8779 5.39841 11.7361C5.24844 11.5943 5.10195 11.4498 4.96214 11.3045C4.82244 11.16 4.68717 11.0137 4.55918 10.8677C4.43165 10.722 4.3095 10.5753 4.19485 10.4306C4.08104 10.2858 3.97272 10.1407 3.87367 9.99836C3.77427 9.85651 3.68215 9.71503 3.59942 9.57714C3.51633 9.43975 3.4411 9.30396 3.37574 9.17215C3.30955 9.04045 3.25228 8.91198 3.205 8.78836C3.15725 8.66435 3.11853 8.54444 3.08944 8.42986C3.06083 8.31567 3.04125 8.20556 3.03153 8.10252C3.02169 7.99861 3.02148 7.90004 3.03077 7.80902C3.04041 7.71751 3.05932 7.63182 3.08772 7.55369C3.1166 7.47594 3.15438 7.40449 3.20166 7.3406C3.24893 7.27671 3.3057 7.22037 3.37065 7.17132C3.43608 7.12265 3.511 7.08152 3.59374 7.04818C3.67648 7.01483 3.768 6.99001 3.86733 6.97296C3.96583 6.95602 4.07346 6.94713 4.18725 6.94623C4.3015 6.9457 4.42322 6.95344 4.55109 6.96916C4.67849 6.98452 4.81298 7.00862 4.95279 7.04082C5.09249 7.07216 5.23845 7.11236 5.38795 7.16001C5.5378 7.20718 5.69344 7.26283 5.85131 7.32567C6.00953 7.38802 6.17271 7.45896 6.33705 7.53547C6.5015 7.61285 6.66984 7.6972 6.83851 7.78723C7.00764 7.87763 7.179 7.97523 7.34974 8.07775C7.5213 8.18016 7.69378 8.28949 7.86468 8.403C8.03558 8.5165 8.20728 8.63606 8.37597 8.75866C8.54514 8.88163 8.794 9.0773 8.87803 9.14107C8.96159 9.20445 8.79689 9.0734 8.87803 9.14107Z" fill="white"/>
<path d="M8.87803 9.14107C9.04274 9.27211 9.20587 9.40733 9.36374 9.54456C9.52208 9.68216 9.6779 9.82318 9.82787 9.96497C9.97784 10.1068 10.1243 10.2512 10.2637 10.3962C10.4038 10.541 10.5391 10.6874 10.6666 10.833C10.7946 10.979 10.9168 11.1258 11.0314 11.2705C11.1452 11.4153 11.2531 11.56 11.3526 11.7027C11.452 11.8445 11.5437 11.9856 11.6269 12.1239C11.71 12.2613 11.7852 12.3971 11.8505 12.5289C11.9163 12.6602 11.974 12.7891 12.0213 12.9127C12.069 13.0367 12.1077 13.1566 12.1364 13.2708C12.1655 13.3854 12.185 13.4955 12.1948 13.5985C12.2046 13.7024 12.2052 13.8005 12.1955 13.892C12.1859 13.9835 12.1665 14.0688 12.1381 14.147C12.1097 14.2251 12.0719 14.2965 12.0246 14.3604C11.9773 14.4243 11.9206 14.4807 11.8552 14.5293C11.7897 14.578 11.7153 14.6195 11.6325 14.6529C11.5502 14.6857 11.4583 14.711 11.359 14.7281C11.2605 14.745 11.1528 14.7539 11.0386 14.7544C10.9248 14.7553 10.8031 14.7476 10.6752 14.7319C10.5478 14.7165 10.4128 14.692 10.2735 14.6602C10.1338 14.6289 9.98783 14.5887 9.83834 14.541C9.68801 14.4935 9.53284 14.4382 9.37498 14.3754C9.21628 14.3126 9.05357 14.2421 8.88923 14.1656C8.72478 14.0882 8.55644 14.0038 8.3873 13.9134C8.21864 13.8234 8.04728 13.7258 7.87607 13.6229C7.70498 13.5209 7.5325 13.4115 7.3616 13.298C7.1907 13.1845 7.01901 13.065 6.84984 12.942C6.68114 12.8194 6.51296 12.691 6.34825 12.56C6.18354 12.4289 6.02041 12.2937 5.86207 12.1561C5.7042 12.0189 5.54838 11.8779 5.39841 11.7361C5.24844 11.5943 5.10195 11.4498 4.96214 11.3045C4.82244 11.16 4.68717 11.0137 4.55918 10.8677C4.43165 10.722 4.3095 10.5753 4.19485 10.4306C4.08104 10.2858 3.97272 10.1407 3.87367 9.99836C3.77427 9.85651 3.68215 9.71503 3.59942 9.57714C3.51633 9.43975 3.4411 9.30396 3.37574 9.17215C3.30955 9.04045 3.25228 8.91198 3.205 8.78836C3.15725 8.66435 3.11853 8.54444 3.08944 8.42986C3.06083 8.31567 3.04125 8.20556 3.03153 8.10252C3.02169 7.99861 3.02148 7.90004 3.03077 7.80902C3.04041 7.71751 3.05932 7.63182 3.08772 7.55369C3.1166 7.47594 3.15438 7.40449 3.20166 7.3406C3.24893 7.27671 3.3057 7.22037 3.37065 7.17132C3.43608 7.12265 3.511 7.08152 3.59374 7.04818C3.67648 7.01483 3.768 6.99001 3.86733 6.97296C3.96583 6.95602 4.07346 6.94713 4.18725 6.94623C4.3015 6.9457 4.42322 6.95344 4.55109 6.96916C4.67849 6.98452 4.81298 7.00862 4.95279 7.04082C5.09249 7.07216 5.23845 7.11236 5.38795 7.16001C5.5378 7.20718 5.69344 7.26283 5.85131 7.32567C6.00953 7.38802 6.17271 7.45896 6.33705 7.53547C6.5015 7.61285 6.66984 7.6972 6.83851 7.78723C7.00764 7.87763 7.179 7.97523 7.34974 8.07775C7.5213 8.18016 7.69378 8.28949 7.86468 8.403C8.03558 8.5165 8.20728 8.63606 8.37597 8.75866C8.54514 8.88163 8.794 9.0773 8.87803 9.14107ZM8.87803 9.14107C8.79689 9.0734 8.96159 9.20445 8.87803 9.14107Z" stroke="#1E1E1E" stroke-linecap="round"/>
<path d="M14.3612 6.09145C14.4147 6.30302 14.4645 6.51693 14.5095 6.7296C14.554 6.94243 14.595 7.15624 14.6304 7.36779C14.6657 7.57934 14.6967 7.79084 14.723 7.99855C14.7489 8.20702 14.7699 8.41366 14.7862 8.61651C14.8023 8.81877 14.8135 9.01859 14.8196 9.21344C14.8256 9.40769 14.827 9.59875 14.823 9.78305C14.8184 9.9675 14.8093 10.1468 14.7954 10.3192C14.7815 10.4916 14.7618 10.6586 14.7379 10.8165C14.7135 10.9746 14.6849 11.1262 14.651 11.2691C14.6171 11.4119 14.5786 11.5465 14.536 11.6721C14.4925 11.7972 14.4445 11.914 14.3928 12.0211C14.3409 12.1275 14.2849 12.2249 14.2249 12.3119C14.1649 12.3983 14.1 12.4758 14.0329 12.5418C13.9651 12.6074 13.8935 12.6632 13.8185 12.7078C13.744 12.7522 13.6663 12.7861 13.5857 12.8087C13.5051 12.8313 13.421 12.8427 13.3354 12.8431C13.2498 12.8434 13.1613 12.8325 13.0715 12.811C12.9815 12.789 12.8892 12.7555 12.7962 12.712C12.7031 12.6678 12.6079 12.6128 12.5125 12.5476C12.4171 12.4818 12.3202 12.4055 12.224 12.3195C12.1271 12.2331 12.0301 12.1364 11.9331 12.0302C11.8368 11.9238 11.7398 11.8074 11.6439 11.683C11.5486 11.5584 11.4532 11.4237 11.3596 11.2814C11.2655 11.1392 11.1729 10.9884 11.0823 10.8306C10.9917 10.6728 10.9021 10.5064 10.8155 10.3348C10.7288 10.1625 10.644 9.98327 10.5624 9.79933C10.4807 9.6148 10.4013 9.42452 10.3258 9.22995C10.2499 9.03614 10.1768 8.83642 10.1076 8.63436C10.0389 8.43214 9.97279 8.22536 9.91139 8.01727C9.8494 7.80934 9.79148 7.59773 9.73794 7.38615C9.68441 7.17458 9.63467 6.96068 9.5902 6.74784C9.54515 6.53517 9.50493 6.32179 9.46881 6.10981C9.43342 5.89827 9.40243 5.68677 9.37673 5.47889C9.35029 5.27058 9.32929 5.06394 9.31299 4.86109C9.29684 4.65883 9.28569 4.45901 9.2797 4.26476C9.27356 4.06991 9.27287 3.87928 9.27676 3.69439C9.28079 3.5101 9.28984 3.33078 9.30436 3.15823C9.31829 2.98584 9.33753 2.81963 9.36122 2.6611C9.38565 2.50301 9.4148 2.35125 9.44813 2.20853C9.48218 2.06625 9.52054 1.93106 9.56394 1.80594C9.60661 1.68039 9.65461 1.56356 9.7065 1.45713C9.75823 1.3501 9.81486 1.25255 9.8748 1.16557C9.93488 1.07918 9.99913 1.00183 10.067 0.936245C10.1347 0.87006 10.2063 0.814276 10.2807 0.769815C10.3551 0.725354 10.4335 0.691293 10.5141 0.668719C10.5947 0.646146 10.6782 0.634896 10.7638 0.634537C10.8499 0.634015 10.9384 0.644979 11.0284 0.666998C11.1177 0.688585 11.2106 0.721928 11.3035 0.765461C11.3966 0.80959 11.4913 0.864773 11.5868 0.930579C11.6821 0.995789 11.7789 1.07205 11.8759 1.15851C11.9721 1.24453 12.0692 1.34177 12.166 1.44741C12.2629 1.55365 12.3594 1.67024 12.4553 1.79464C12.5507 1.9198 12.6466 2.05379 12.7401 2.19608C12.8337 2.33836 12.9263 2.48922 13.0174 2.64685C13.1082 2.80524 13.1971 2.97117 13.2838 3.14344C13.3704 3.31512 13.4552 3.49433 13.5367 3.67827C13.6184 3.8628 13.6979 4.05308 13.7739 4.24749C13.8493 4.44146 13.9223 4.64118 13.9916 4.84324C14.061 5.0459 14.1264 5.25224 14.1884 5.46017C14.2498 5.66826 14.3328 5.98645 14.3612 6.09145C14.3902 6.19628 14.3369 5.98531 14.3612 6.09145Z" fill="white"/>
<path d="M14.3612 6.09145C14.4147 6.30302 14.4645 6.51693 14.5095 6.7296C14.554 6.94243 14.595 7.15624 14.6304 7.36779C14.6657 7.57934 14.6967 7.79084 14.723 7.99855C14.7489 8.20702 14.7699 8.41366 14.7862 8.61651C14.8023 8.81877 14.8135 9.01859 14.8196 9.21344C14.8256 9.40769 14.827 9.59875 14.823 9.78305C14.8184 9.9675 14.8093 10.1468 14.7954 10.3192C14.7815 10.4916 14.7618 10.6586 14.7379 10.8165C14.7135 10.9746 14.6849 11.1262 14.651 11.2691C14.6171 11.4119 14.5786 11.5465 14.536 11.6721C14.4925 11.7972 14.4445 11.914 14.3928 12.0211C14.3409 12.1275 14.2849 12.2249 14.2249 12.3119C14.1649 12.3983 14.1 12.4758 14.0329 12.5418C13.9651 12.6074 13.8935 12.6632 13.8185 12.7078C13.744 12.7522 13.6663 12.7861 13.5857 12.8087C13.5051 12.8313 13.421 12.8427 13.3354 12.8431C13.2498 12.8434 13.1613 12.8325 13.0715 12.811C12.9815 12.789 12.8892 12.7555 12.7962 12.712C12.7031 12.6678 12.6079 12.6128 12.5125 12.5476C12.4171 12.4818 12.3202 12.4055 12.224 12.3195C12.1271 12.2331 12.0301 12.1364 11.9331 12.0302C11.8368 11.9238 11.7398 11.8074 11.6439 11.683C11.5486 11.5584 11.4532 11.4237 11.3596 11.2814C11.2655 11.1392 11.1729 10.9884 11.0823 10.8306C10.9917 10.6728 10.9021 10.5064 10.8155 10.3348C10.7288 10.1625 10.644 9.98327 10.5624 9.79933C10.4807 9.6148 10.4013 9.42452 10.3258 9.22995C10.2499 9.03614 10.1768 8.83642 10.1076 8.63436C10.0389 8.43214 9.97279 8.22536 9.91139 8.01727C9.8494 7.80934 9.79148 7.59773 9.73794 7.38615C9.68441 7.17458 9.63467 6.96068 9.5902 6.74784C9.54515 6.53517 9.50493 6.32179 9.46881 6.10981C9.43342 5.89827 9.40243 5.68677 9.37673 5.47889C9.35029 5.27058 9.32929 5.06394 9.31299 4.86109C9.29684 4.65883 9.28569 4.45901 9.2797 4.26476C9.27356 4.06991 9.27287 3.87928 9.27676 3.69439C9.28079 3.5101 9.28984 3.33078 9.30436 3.15823C9.31829 2.98585 9.33753 2.81963 9.36122 2.6611C9.38565 2.50301 9.4148 2.35125 9.44813 2.20853C9.48218 2.06625 9.52054 1.93106 9.56394 1.80594C9.60661 1.68039 9.65461 1.56356 9.7065 1.45713C9.75823 1.3501 9.81486 1.25255 9.8748 1.16557C9.93488 1.07918 9.99913 1.00183 10.067 0.936245C10.1347 0.87006 10.2063 0.814276 10.2807 0.769815C10.3551 0.725354 10.4335 0.691293 10.5141 0.668719C10.5947 0.646146 10.6782 0.634896 10.7638 0.634537C10.8499 0.634015 10.9384 0.644979 11.0284 0.666998C11.1177 0.688585 11.2106 0.721928 11.3035 0.765461C11.3966 0.80959 11.4913 0.864773 11.5868 0.930579C11.6821 0.995788 11.7789 1.07205 11.8759 1.15851C11.9721 1.24453 12.0692 1.34177 12.166 1.44741C12.2629 1.55365 12.3594 1.67024 12.4553 1.79464C12.5507 1.9198 12.6466 2.05379 12.7401 2.19608C12.8337 2.33836 12.9263 2.48922 13.0174 2.64685C13.1082 2.80524 13.1971 2.97117 13.2838 3.14344C13.3704 3.31512 13.4552 3.49433 13.5367 3.67827C13.6184 3.8628 13.6979 4.05308 13.7739 4.24749C13.8493 4.44146 13.9223 4.64118 13.9916 4.84324C14.061 5.0459 14.1264 5.25224 14.1884 5.46017C14.2498 5.66826 14.3328 5.98645 14.3612 6.09145ZM14.3612 6.09145C14.3369 5.98531 14.3902 6.19628 14.3612 6.09145Z" stroke="#1E1E1E" stroke-linecap="round"/>
<path d="M18.3428 22.596C18.3963 22.8076 18.446 23.0215 18.4905 23.2343C18.5349 23.4471 18.5753 23.6611 18.6107 23.8726C18.6455 24.0843 18.6759 24.296 18.7016 24.5038C18.7268 24.7124 18.7473 24.9192 18.763 25.1222C18.7779 25.3248 18.7879 25.5249 18.7935 25.7199C18.7983 25.9145 18.7986 26.1059 18.7934 26.2905C18.7876 26.4753 18.7774 26.6549 18.7617 26.8278C18.7466 27.0005 18.7257 27.1677 18.7001 27.3262C18.6746 27.4846 18.6437 27.6368 18.6086 27.78C18.5735 27.9232 18.5327 28.0584 18.4883 28.1845C18.4431 28.3101 18.394 28.4272 18.3399 28.5349C18.2863 28.6418 18.2279 28.7398 18.1662 28.8273C18.1038 28.9144 18.0378 28.9922 17.9684 29.0589C17.8982 29.1251 17.8249 29.1814 17.7481 29.2265C17.672 29.2714 17.5919 29.306 17.509 29.3292C17.4266 29.3523 17.3408 29.3642 17.2529 29.3652C17.1656 29.366 17.0748 29.3557 16.9832 29.3348C16.8908 29.3134 16.7968 29.2804 16.7015 29.2375C16.6067 29.1939 16.5097 29.1394 16.4127 29.0747C16.3155 29.0094 16.2169 28.9336 16.119 28.8481C16.0203 28.7621 15.9215 28.666 15.8229 28.5602C15.7248 28.4543 15.626 28.3384 15.529 28.2143C15.4319 28.0903 15.3354 27.9558 15.2401 27.8141C15.1454 27.6721 15.0511 27.5217 14.9593 27.3643C14.8676 27.2068 14.7768 27.0408 14.6897 26.8693C14.6018 26.6974 14.5159 26.5185 14.4337 26.3347C14.3508 26.1505 14.2709 25.9604 14.1948 25.7661C14.1183 25.5724 14.0447 25.3729 13.9754 25.1708C13.9056 24.9689 13.8395 24.7622 13.7775 24.5543C13.7156 24.3464 13.6576 24.1348 13.6041 23.9232C13.5506 23.7116 13.5009 23.4977 13.4564 23.2849C13.4119 23.0721 13.3717 22.8587 13.3368 22.6464C13.3014 22.4349 13.271 22.2233 13.2459 22.0152C13.22 21.8068 13.1996 21.6 13.1845 21.3968C13.1689 21.1944 13.159 20.9943 13.1541 20.7997C13.1486 20.6047 13.1491 20.4138 13.1541 20.2286C13.1593 20.044 13.1701 19.8642 13.1852 19.6915C13.2009 19.5186 13.2213 19.3521 13.2467 19.1931C13.2723 19.0346 13.3032 18.8824 13.3383 18.7392C13.3741 18.5964 13.4142 18.4608 13.4593 18.3352C13.5038 18.2091 13.5535 18.0918 13.6071 17.9849C13.6606 17.8774 13.719 17.7794 13.7807 17.6919C13.8431 17.6049 13.9091 17.527 13.9792 17.4608C14.0487 17.3941 14.1226 17.3377 14.1987 17.2927C14.2755 17.2476 14.3556 17.2131 14.4379 17.19C14.5209 17.1668 14.6066 17.1549 14.694 17.154C14.7819 17.153 14.8721 17.1635 14.9644 17.1849C15.056 17.2058 15.1501 17.2388 15.2454 17.2817C15.3402 17.3253 15.4372 17.3798 15.5344 17.4451C15.632 17.5097 15.73 17.5856 15.8287 17.6716C15.9266 17.7571 16.0261 17.8537 16.124 17.959C16.2221 18.0649 16.3209 18.1808 16.4179 18.3049C16.5151 18.4296 16.6121 18.5632 16.7068 18.7052C16.8021 18.847 16.8958 18.9975 16.9881 19.1548C17.08 19.3128 17.1701 19.4784 17.258 19.6503C17.3451 19.8218 17.431 20.0007 17.5138 20.1843C17.596 20.3687 17.676 20.5588 17.7527 20.753C17.8286 20.9468 17.9022 21.1463 17.9721 21.3482C18.0415 21.5509 18.1074 21.757 18.1694 21.965C18.2313 22.1729 18.3143 22.491 18.3428 22.596C18.3718 22.7008 18.3184 22.4899 18.3428 22.596Z" fill="white"/>
<path d="M18.3428 22.596C18.3963 22.8076 18.446 23.0215 18.4905 23.2343C18.5349 23.4471 18.5753 23.6611 18.6107 23.8726C18.6455 24.0843 18.6759 24.296 18.7016 24.5038C18.7268 24.7124 18.7473 24.9192 18.763 25.1222C18.7779 25.3248 18.7879 25.5249 18.7935 25.7199C18.7983 25.9145 18.7986 26.1059 18.7934 26.2905C18.7876 26.4753 18.7774 26.6549 18.7617 26.8278C18.7466 27.0005 18.7257 27.1677 18.7001 27.3262C18.6746 27.4846 18.6437 27.6368 18.6086 27.78C18.5735 27.9232 18.5327 28.0584 18.4883 28.1845C18.4431 28.3101 18.394 28.4272 18.3399 28.5349C18.2863 28.6418 18.2279 28.7398 18.1662 28.8273C18.1038 28.9144 18.0378 28.9922 17.9684 29.0589C17.8982 29.1251 17.8249 29.1814 17.7481 29.2265C17.672 29.2714 17.5919 29.306 17.509 29.3292C17.4266 29.3523 17.3408 29.3642 17.2529 29.3652C17.1656 29.366 17.0748 29.3557 16.9832 29.3348C16.8908 29.3134 16.7968 29.2804 16.7015 29.2375C16.6067 29.1939 16.5097 29.1394 16.4127 29.0747C16.3155 29.0094 16.2169 28.9336 16.119 28.8481C16.0203 28.7621 15.9215 28.666 15.8229 28.5602C15.7248 28.4543 15.626 28.3384 15.529 28.2143C15.4319 28.0903 15.3354 27.9558 15.2401 27.8141C15.1454 27.6721 15.0511 27.5217 14.9593 27.3643C14.8676 27.2068 14.7768 27.0408 14.6897 26.8693C14.6018 26.6974 14.5159 26.5185 14.4337 26.3347C14.3508 26.1505 14.2709 25.9604 14.1948 25.7661C14.1183 25.5724 14.0447 25.3729 13.9754 25.1708C13.9056 24.9689 13.8395 24.7622 13.7775 24.5543C13.7156 24.3464 13.6576 24.1348 13.6041 23.9232C13.5506 23.7116 13.5009 23.4977 13.4564 23.2849C13.4119 23.0721 13.3717 22.8587 13.3368 22.6464C13.3014 22.4349 13.271 22.2233 13.2459 22.0152C13.22 21.8068 13.1996 21.6 13.1845 21.3968C13.1689 21.1944 13.159 20.9943 13.1541 20.7997C13.1486 20.6047 13.1491 20.4138 13.1541 20.2286C13.1593 20.044 13.1701 19.8642 13.1852 19.6915C13.2009 19.5186 13.2213 19.3521 13.2467 19.1931C13.2723 19.0346 13.3032 18.8824 13.3383 18.7392C13.3741 18.5964 13.4142 18.4608 13.4593 18.3352C13.5038 18.2091 13.5535 18.0918 13.6071 17.9849C13.6606 17.8774 13.719 17.7794 13.7807 17.6919C13.8431 17.6049 13.9091 17.527 13.9792 17.4608C14.0487 17.3941 14.1226 17.3377 14.1987 17.2927C14.2755 17.2476 14.3556 17.2131 14.4379 17.19C14.5209 17.1668 14.6066 17.1549 14.694 17.154C14.7819 17.153 14.8721 17.1635 14.9644 17.1849C15.056 17.2058 15.1501 17.2388 15.2454 17.2817C15.3402 17.3253 15.4372 17.3798 15.5344 17.4451C15.632 17.5097 15.73 17.5856 15.8287 17.6716C15.9266 17.7571 16.0261 17.8537 16.124 17.959C16.2221 18.0649 16.3209 18.1808 16.4179 18.3049C16.5151 18.4296 16.6121 18.5632 16.7068 18.7052C16.8021 18.847 16.8958 18.9975 16.9881 19.1548C17.08 19.3128 17.1701 19.4784 17.258 19.6503C17.3451 19.8218 17.431 20.0007 17.5138 20.1843C17.596 20.3687 17.676 20.5588 17.7527 20.753C17.8286 20.9468 17.9022 21.1463 17.9721 21.3482C18.0415 21.5509 18.1074 21.757 18.1694 21.965C18.2313 22.1729 18.3143 22.491 18.3428 22.596ZM18.3428 22.596C18.3184 22.4899 18.3718 22.7008 18.3428 22.596Z" stroke="#1E1E1E" stroke-linecap="round"/>
<path d="M20.6564 9.60132C20.538 9.78253 20.4155 9.9623 20.2903 10.1372C20.1651 10.3122 20.0364 10.4846 19.9062 10.6516C19.7755 10.8182 19.642 10.9813 19.5082 11.1383C19.3735 11.2954 19.237 11.4474 19.1002 11.5933C18.9633 11.7384 18.8248 11.8779 18.6872 12.0106C18.5495 12.1424 18.411 12.2685 18.274 12.3859C18.1364 12.5029 17.9997 12.6131 17.8643 12.7145C17.7294 12.8163 17.5947 12.91 17.4633 12.9942C17.332 13.0783 17.2016 13.1542 17.0751 13.2209C16.9486 13.2876 16.8242 13.3445 16.704 13.3926C16.5837 13.4398 16.4669 13.4783 16.3538 13.5067C16.2415 13.535 16.1325 13.5537 16.0291 13.5628C15.9255 13.5711 15.8262 13.5705 15.7328 13.5599C15.6392 13.5484 15.5507 13.5278 15.4682 13.4973C15.3861 13.467 15.309 13.4269 15.2382 13.3771C15.168 13.3276 15.1036 13.2681 15.0457 13.1998C14.9883 13.1318 14.9367 13.0537 14.8923 12.9681C14.8478 12.8815 14.8105 12.786 14.7796 12.683C14.7496 12.5799 14.726 12.4679 14.7098 12.3491C14.6939 12.2298 14.6846 12.1026 14.6829 11.9694C14.681 11.8354 14.6864 11.6947 14.6988 11.5476C14.7117 11.401 14.7315 11.2472 14.7582 11.0894C14.7849 10.9316 14.8195 10.7673 14.8602 10.5992C14.9015 10.4315 14.949 10.2585 15.0034 10.0829C15.0578 9.90731 15.119 9.72681 15.1865 9.54555C15.2538 9.36342 15.3275 9.1783 15.4072 8.99292C15.4867 8.80667 15.5724 8.6188 15.6637 8.43119C15.7542 8.24373 15.8508 8.05464 15.9521 7.86734C16.0529 7.67969 16.1597 7.49178 16.2699 7.30633C16.3802 7.12088 16.4958 6.93619 16.6142 6.75498C16.7326 6.57377 16.8551 6.394 16.9803 6.21907C17.1056 6.04414 17.2339 5.87218 17.3649 5.70507C17.4951 5.53811 17.6286 5.37498 17.7629 5.2184C17.8971 5.06095 18.0336 4.90886 18.1709 4.76331C18.3073 4.61791 18.4458 4.47839 18.5835 4.34659C18.7211 4.21393 18.8597 4.08866 18.9971 3.97077C19.1342 3.85338 19.2714 3.74356 19.4063 3.64177C19.5417 3.54034 19.6756 3.44679 19.8073 3.36213C19.9386 3.27799 20.069 3.20207 20.1955 3.13538C20.3221 3.06955 20.4465 3.01175 20.5668 2.96455C20.6869 2.91649 20.8042 2.87834 20.9165 2.85009C21.0291 2.82133 21.1381 2.80264 21.2415 2.7935C21.3451 2.78522 21.4444 2.7858 21.538 2.7973C21.6314 2.80794 21.7204 2.82881 21.8025 2.85904C21.885 2.88961 21.9621 2.92973 22.0324 2.97919C22.1031 3.029 22.1675 3.08851 22.2249 3.15651C22.2828 3.22486 22.3339 3.30255 22.3785 3.38909C22.4229 3.47476 22.4601 3.57029 22.491 3.67329C22.5211 3.77644 22.5446 3.88844 22.5605 4.00771C22.5773 4.12681 22.586 4.25371 22.5879 4.38771C22.5896 4.52086 22.5844 4.6625 22.5718 4.80866C22.5589 4.95533 22.5391 5.10912 22.5124 5.26694C22.4853 5.42526 22.4516 5.58932 22.4104 5.75705C22.3696 5.92514 22.3216 6.09776 22.2677 6.27372C22.213 6.44985 22.1516 6.62948 22.0843 6.81161C22.0168 6.99287 21.9431 7.178 21.8639 7.36373C21.7839 7.54962 21.6982 7.7375 21.6074 7.92546C21.5165 8.11257 21.4198 8.30166 21.319 8.48931C21.2174 8.67712 21.111 8.86451 21.0007 9.04997C20.8904 9.23542 20.714 9.50991 20.6564 9.60132C20.5994 9.69307 20.7175 9.51237 20.6564 9.60132Z" fill="white"/>
<path d="M20.6564 9.60132C20.538 9.78253 20.4155 9.9623 20.2903 10.1372C20.1651 10.3122 20.0364 10.4846 19.9062 10.6516C19.7755 10.8182 19.642 10.9813 19.5082 11.1383C19.3735 11.2954 19.237 11.4474 19.1002 11.5933C18.9633 11.7384 18.8248 11.8779 18.6872 12.0106C18.5495 12.1424 18.411 12.2685 18.274 12.3859C18.1364 12.5029 17.9997 12.6131 17.8643 12.7145C17.7294 12.8163 17.5947 12.91 17.4633 12.9942C17.332 13.0783 17.2016 13.1542 17.0751 13.2209C16.9486 13.2876 16.8242 13.3445 16.704 13.3926C16.5837 13.4398 16.4669 13.4783 16.3538 13.5067C16.2415 13.535 16.1325 13.5537 16.0291 13.5628C15.9255 13.5711 15.8262 13.5705 15.7328 13.5599C15.6392 13.5484 15.5507 13.5278 15.4682 13.4973C15.3861 13.467 15.309 13.4269 15.2382 13.3771C15.168 13.3276 15.1036 13.2681 15.0457 13.1998C14.9883 13.1318 14.9367 13.0537 14.8923 12.9681C14.8478 12.8815 14.8105 12.786 14.7796 12.683C14.7496 12.5799 14.726 12.4679 14.7098 12.3491C14.6939 12.2298 14.6846 12.1026 14.6829 11.9694C14.681 11.8354 14.6864 11.6947 14.6988 11.5476C14.7117 11.401 14.7315 11.2472 14.7582 11.0894C14.7849 10.9316 14.8195 10.7673 14.8602 10.5992C14.9015 10.4315 14.949 10.2585 15.0034 10.0829C15.0578 9.90731 15.119 9.72681 15.1865 9.54555C15.2538 9.36342 15.3275 9.1783 15.4072 8.99292C15.4867 8.80667 15.5724 8.6188 15.6637 8.43119C15.7542 8.24373 15.8508 8.05464 15.9521 7.86734C16.0529 7.67969 16.1597 7.49178 16.2699 7.30633C16.3802 7.12088 16.4958 6.93619 16.6142 6.75498C16.7326 6.57377 16.8551 6.394 16.9803 6.21907C17.1056 6.04414 17.2339 5.87218 17.3649 5.70507C17.4951 5.53811 17.6286 5.37498 17.7629 5.2184C17.8971 5.06095 18.0336 4.90886 18.1709 4.76331C18.3073 4.61791 18.4458 4.47839 18.5835 4.34659C18.7211 4.21393 18.8597 4.08866 18.9971 3.97077C19.1342 3.85338 19.2714 3.74356 19.4063 3.64177C19.5417 3.54034 19.6756 3.44679 19.8073 3.36213C19.9386 3.27799 20.069 3.20207 20.1955 3.13538C20.3221 3.06955 20.4465 3.01175 20.5668 2.96455C20.6869 2.91649 20.8042 2.87834 20.9165 2.85009C21.0291 2.82133 21.1381 2.80264 21.2415 2.7935C21.3451 2.78522 21.4444 2.7858 21.538 2.7973C21.6314 2.80794 21.7204 2.82881 21.8025 2.85904C21.885 2.88961 21.9621 2.92973 22.0324 2.97919C22.1031 3.029 22.1675 3.08851 22.2249 3.15651C22.2828 3.22486 22.3339 3.30255 22.3785 3.38909C22.4229 3.47476 22.4601 3.57029 22.491 3.67329C22.5211 3.77644 22.5446 3.88844 22.5605 4.00771C22.5773 4.12681 22.586 4.25371 22.5879 4.38771C22.5896 4.52086 22.5844 4.6625 22.5718 4.80866C22.5589 4.95533 22.5391 5.10912 22.5124 5.26694C22.4853 5.42526 22.4516 5.58932 22.4104 5.75705C22.3696 5.92514 22.3216 6.09776 22.2677 6.27372C22.213 6.44985 22.1516 6.62948 22.0843 6.81161C22.0168 6.99287 21.9431 7.178 21.8639 7.36373C21.7839 7.54962 21.6982 7.7375 21.6074 7.92546C21.5165 8.11257 21.4198 8.30166 21.319 8.48931C21.2174 8.67712 21.111 8.86451 21.0007 9.04997C20.8904 9.23542 20.714 9.50991 20.6564 9.60132ZM20.6564 9.60132C20.7175 9.51237 20.5994 9.69307 20.6564 9.60132Z" stroke="#1E1E1E" stroke-linecap="round"/>
<path d="M10.9284 23.2892C10.7976 23.4614 10.6623 23.6314 10.5252 23.7968C10.3881 23.9622 10.2472 24.1245 10.1052 24.2812C9.96322 24.438 9.81821 24.5906 9.67331 24.7371C9.52757 24.8837 9.38038 25.0251 9.23283 25.16C9.08565 25.2944 8.93737 25.4232 8.78995 25.5448C8.6429 25.666 8.49513 25.781 8.34932 25.8875C8.2035 25.9939 8.05807 26.0928 7.91507 26.1835C7.77254 26.2745 7.63077 26.3575 7.493 26.4312C7.35476 26.5046 7.21858 26.5702 7.08641 26.6265C6.95424 26.6828 6.82524 26.7298 6.70071 26.768C6.57656 26.8057 6.45557 26.8342 6.3399 26.8537C6.2246 26.8727 6.11378 26.8828 6.00818 26.883C5.90342 26.8831 5.80266 26.8739 5.7089 26.8554C5.61551 26.8365 5.52697 26.8082 5.44543 26.7707C5.36436 26.7336 5.28851 26.6866 5.2206 26.6311C5.15222 26.5753 5.09083 26.5102 5.03655 26.4368C4.98274 26.3638 4.93546 26.2812 4.89586 26.1915C4.85615 26.1009 4.82439 26.0019 4.79946 25.8959C4.77538 25.7898 4.75839 25.6754 4.74919 25.5547C4.74035 25.4335 4.73919 25.3053 4.74498 25.1709C4.7516 25.0365 4.76553 24.8954 4.78735 24.749C4.80916 24.6026 4.83876 24.45 4.87561 24.2938C4.91245 24.1377 4.95708 23.9754 5.00859 23.81C5.0601 23.6446 5.11922 23.4752 5.18486 23.3033C5.25051 23.1314 5.32377 22.9555 5.4029 22.7789C5.48194 22.6014 5.56796 22.4218 5.65997 22.2424C5.75187 22.062 5.85002 21.8805 5.95331 21.6993C6.05624 21.5185 6.16588 21.337 6.27956 21.1572C6.39325 20.9773 6.51244 20.7973 6.63541 20.6203C6.75837 20.4434 6.88611 20.2672 7.01689 20.095C7.14767 19.9229 7.28296 19.7529 7.42007 19.5874C7.55719 19.422 7.69771 19.2602 7.84005 19.103C7.98203 18.9463 8.12658 18.7932 8.27194 18.6471C8.41768 18.5006 8.56488 18.3591 8.71243 18.2242C8.85914 18.0895 9.00741 17.9607 9.15493 17.8399C9.30235 17.7183 9.44976 17.6037 9.59594 17.4968C9.74175 17.3903 9.88671 17.2911 10.0297 17.2004C10.1727 17.1097 10.3141 17.0272 10.4523 16.953C10.59 16.8793 10.7262 16.8137 10.8584 16.7574C10.9902 16.7016 11.1195 16.654 11.2437 16.6163C11.3687 16.5785 11.4892 16.5496 11.6045 16.5307C11.7202 16.5112 11.8315 16.5015 11.9366 16.5009C12.0418 16.5012 12.1421 16.51 12.236 16.5293C12.3297 16.5477 12.4183 16.576 12.4994 16.6131C12.5809 16.6507 12.6563 16.6973 12.7247 16.7531C12.7926 16.8086 12.8544 16.874 12.9082 16.947C12.9625 17.0204 13.0098 17.103 13.049 17.1932C13.0886 17.2829 13.1209 17.3823 13.1453 17.488C13.1699 17.5944 13.1864 17.7085 13.1952 17.8297C13.2044 17.9503 13.2061 18.0789 13.1994 18.2134C13.1932 18.3474 13.1789 18.4889 13.1574 18.6348C13.1356 18.7813 13.106 18.9339 13.0697 19.0904C13.0324 19.247 12.9882 19.4089 12.9362 19.5739C12.8847 19.7393 12.826 19.909 12.7604 20.0809C12.6944 20.2533 12.6215 20.4287 12.542 20.6058C12.4628 20.7824 12.3768 20.962 12.2853 21.1419C12.1934 21.3222 12.0952 21.5037 11.9919 21.685C11.8885 21.8653 11.7794 22.0473 11.6657 22.2271C11.5516 22.4074 11.4328 22.5869 11.3098 22.7639C11.1869 22.9409 10.9917 23.2018 10.9284 23.2892C10.8646 23.3762 10.995 23.2045 10.9284 23.2892Z" fill="white"/>
<path d="M10.9284 23.2892C10.7976 23.4614 10.6623 23.6314 10.5252 23.7968C10.3881 23.9622 10.2472 24.1245 10.1052 24.2812C9.96322 24.438 9.81821 24.5906 9.67331 24.7371C9.52757 24.8837 9.38038 25.0251 9.23283 25.16C9.08565 25.2944 8.93737 25.4232 8.78995 25.5448C8.6429 25.666 8.49513 25.781 8.34932 25.8875C8.2035 25.9939 8.05807 26.0928 7.91507 26.1835C7.77254 26.2745 7.63077 26.3575 7.493 26.4312C7.35476 26.5046 7.21858 26.5702 7.08641 26.6265C6.95424 26.6828 6.82524 26.7298 6.70071 26.768C6.57656 26.8057 6.45557 26.8342 6.3399 26.8537C6.2246 26.8727 6.11378 26.8828 6.00818 26.883C5.90342 26.8831 5.80266 26.8739 5.7089 26.8554C5.61551 26.8365 5.52697 26.8082 5.44543 26.7707C5.36436 26.7336 5.28851 26.6866 5.2206 26.6311C5.15222 26.5753 5.09083 26.5102 5.03655 26.4368C4.98274 26.3638 4.93546 26.2812 4.89586 26.1915C4.85615 26.1009 4.82439 26.0019 4.79946 25.8959C4.77537 25.7898 4.75839 25.6754 4.74919 25.5547C4.74035 25.4335 4.73919 25.3053 4.74498 25.1709C4.7516 25.0365 4.76553 24.8954 4.78735 24.749C4.80916 24.6026 4.83876 24.45 4.8756 24.2938C4.91245 24.1377 4.95708 23.9754 5.00859 23.81C5.0601 23.6446 5.11922 23.4752 5.18486 23.3033C5.25051 23.1314 5.32377 22.9555 5.4029 22.7789C5.48194 22.6014 5.56796 22.4218 5.65997 22.2424C5.75187 22.062 5.85002 21.8805 5.95331 21.6993C6.05624 21.5185 6.16588 21.337 6.27956 21.1572C6.39325 20.9773 6.51244 20.7973 6.63541 20.6203C6.75837 20.4434 6.88611 20.2672 7.01689 20.095C7.14767 19.9229 7.28296 19.7529 7.42007 19.5874C7.55719 19.422 7.69771 19.2602 7.84005 19.103C7.98203 18.9463 8.12658 18.7932 8.27194 18.6471C8.41768 18.5006 8.56488 18.3591 8.71243 18.2242C8.85914 18.0895 9.00741 17.9607 9.15493 17.8399C9.30235 17.7183 9.44976 17.6037 9.59594 17.4968C9.74175 17.3903 9.88671 17.2911 10.0297 17.2004C10.1727 17.1097 10.3141 17.0272 10.4523 16.953C10.59 16.8793 10.7262 16.8137 10.8584 16.7574C10.9902 16.7016 11.1195 16.654 11.2437 16.6163C11.3687 16.5785 11.4892 16.5496 11.6045 16.5307C11.7202 16.5112 11.8315 16.5015 11.9366 16.5009C12.0418 16.5012 12.1421 16.51 12.236 16.5293C12.3297 16.5477 12.4183 16.576 12.4994 16.6131C12.5809 16.6507 12.6563 16.6973 12.7247 16.7531C12.7926 16.8086 12.8544 16.874 12.9082 16.947C12.9625 17.0204 13.0098 17.103 13.049 17.1932C13.0886 17.2829 13.1209 17.3823 13.1453 17.488C13.1699 17.5944 13.1864 17.7085 13.1952 17.8297C13.2044 17.9503 13.2061 18.0789 13.1994 18.2134C13.1932 18.3474 13.1789 18.4889 13.1574 18.6348C13.1356 18.7813 13.106 18.9339 13.0697 19.0904C13.0324 19.247 12.9882 19.4089 12.9362 19.5739C12.8847 19.7393 12.826 19.909 12.7604 20.0809C12.6944 20.2533 12.6215 20.4287 12.542 20.6058C12.4628 20.7824 12.3768 20.962 12.2853 21.1419C12.1934 21.3222 12.0952 21.5037 11.9919 21.685C11.8885 21.8653 11.7794 22.0473 11.6657 22.2271C11.5516 22.4074 11.4328 22.5869 11.3098 22.7639C11.1869 22.9409 10.9917 23.2018 10.9284 23.2892ZM10.9284 23.2892C10.995 23.2045 10.8646 23.3762 10.9284 23.2892Z" stroke="#1E1E1E" stroke-linecap="round"/>
<path d="M13.4647 11.6858C13.6011 11.6475 13.7402 11.6173 13.8795 11.5954C14.019 11.5741 14.1604 11.5604 14.301 11.5559C14.4415 11.5508 14.5836 11.5548 14.7229 11.5672C14.8626 11.5789 15.0022 11.6001 15.1389 11.6291C15.2755 11.6581 15.4106 11.6959 15.5426 11.7409C15.6741 11.7866 15.8032 11.84 15.9282 11.9016C16.053 11.9625 16.1742 12.0315 16.2904 12.1076C16.4066 12.1837 16.5185 12.2674 16.6237 12.3567C16.7297 12.4465 16.8301 12.5436 16.9235 12.6452C17.0176 12.7472 17.1054 12.8561 17.1855 12.969C17.2656 13.0819 17.3398 13.201 17.4054 13.3231C17.4711 13.4452 17.5301 13.5729 17.5802 13.7025C17.6303 13.8322 17.6735 13.9663 17.7077 14.1016C17.7417 14.2364 17.7674 14.3754 17.7851 14.5142C17.8027 14.6529 17.8117 14.7947 17.8123 14.935C17.813 15.0754 17.8047 15.2176 17.7884 15.3576C17.7722 15.4975 17.7473 15.638 17.7138 15.7759C17.6806 15.913 17.6393 16.0498 17.5897 16.1833C17.5405 16.316 17.4829 16.4473 17.4179 16.5742C17.353 16.7011 17.2803 16.8245 17.2008 16.9429C17.1214 17.0618 17.0345 17.1758 16.942 17.2845C16.8487 17.3927 16.7492 17.4962 16.6444 17.5931C16.5395 17.6899 16.4283 17.7815 16.3126 17.8649C16.1976 17.9486 16.0761 18.0266 15.9519 18.0958C15.8277 18.1656 15.6986 18.2279 15.5675 18.2825C15.4363 18.3365 15.3014 18.3833 15.165 18.4216C15.0286 18.4599 14.8894 18.49 14.7495 18.5122C14.6101 18.5335 14.4687 18.5471 14.3281 18.5516C14.1876 18.5567 14.046 18.5526 13.9068 18.5402C13.7671 18.5285 13.6274 18.5073 13.4908 18.4783C13.3541 18.4492 13.2184 18.4117 13.0871 18.3665C12.9555 18.3208 12.8258 18.2676 12.7015 18.2058C12.5767 18.1449 12.4548 18.0761 12.3392 17.9998C12.223 17.9237 12.1111 17.84 12.0053 17.7508C11.8999 17.6609 11.799 17.564 11.7056 17.4624C11.612 17.3602 11.5243 17.2513 11.4441 17.1384C11.3635 17.0256 11.2898 16.9064 11.2242 16.7843C11.1586 16.6622 11.0996 16.5345 11.0495 16.4048C10.9988 16.2754 10.9562 16.1411 10.9221 16.0063C10.888 15.871 10.8616 15.7321 10.8446 15.5932C10.827 15.4545 10.8179 15.3127 10.8173 15.1724C10.8167 15.032 10.8244 14.89 10.8412 14.7498C10.8575 14.6099 10.8823 14.4694 10.9153 14.3317C10.9485 14.1946 10.9904 14.0576 11.0394 13.9243C11.0892 13.7914 11.1468 13.6601 11.2117 13.5332C11.2761 13.4064 11.3493 13.2828 11.4289 13.1645C11.5077 13.0457 11.5951 12.9316 11.6877 12.8229C11.7804 12.7149 11.8804 12.6111 11.9853 12.5143C12.0902 12.4175 12.2013 12.3259 12.3171 12.2425C12.4321 12.1587 12.5529 12.081 12.6772 12.0117C12.8013 11.9419 12.9304 11.8796 13.0615 11.825C13.1933 11.7709 13.3282 11.7241 13.4647 11.6858Z" fill="#FFD43B"/>
<path d="M13.4647 11.6858C13.6011 11.6475 13.7402 11.6173 13.8795 11.5954C14.019 11.5741 14.1604 11.5604 14.301 11.5559C14.4415 11.5508 14.5836 11.5548 14.7229 11.5672C14.8626 11.5789 15.0022 11.6001 15.1389 11.6291C15.2755 11.6581 15.4106 11.6959 15.5426 11.7409C15.6741 11.7866 15.8032 11.84 15.9282 11.9016C16.053 11.9625 16.1742 12.0315 16.2904 12.1076C16.4066 12.1837 16.5185 12.2674 16.6237 12.3567C16.7297 12.4465 16.8301 12.5436 16.9235 12.6452C17.0176 12.7472 17.1054 12.8561 17.1855 12.969C17.2656 13.0819 17.3398 13.201 17.4054 13.3231C17.4711 13.4452 17.5301 13.5729 17.5802 13.7025C17.6303 13.8322 17.6735 13.9663 17.7077 14.1016C17.7417 14.2364 17.7674 14.3754 17.7851 14.5142C17.8027 14.6529 17.8117 14.7947 17.8123 14.935C17.813 15.0754 17.8047 15.2176 17.7884 15.3576C17.7722 15.4975 17.7473 15.638 17.7138 15.7759C17.6806 15.913 17.6393 16.0498 17.5897 16.1833C17.5405 16.316 17.4829 16.4473 17.4179 16.5742C17.353 16.7011 17.2803 16.8245 17.2008 16.9429C17.1214 17.0618 17.0345 17.1758 16.942 17.2845C16.8487 17.3927 16.7492 17.4962 16.6444 17.5931C16.5395 17.6899 16.4283 17.7815 16.3126 17.8649C16.1976 17.9486 16.0761 18.0266 15.9519 18.0958C15.8277 18.1656 15.6986 18.2279 15.5675 18.2825C15.4363 18.3365 15.3014 18.3833 15.165 18.4216C15.0286 18.4599 14.8894 18.49 14.7495 18.5122C14.6101 18.5335 14.4687 18.5471 14.3281 18.5516C14.1876 18.5567 14.046 18.5526 13.9068 18.5402C13.7671 18.5285 13.6274 18.5073 13.4908 18.4783C13.3541 18.4492 13.2184 18.4117 13.0871 18.3665C12.9555 18.3208 12.8258 18.2676 12.7015 18.2058C12.5767 18.1449 12.4548 18.0761 12.3392 17.9998C12.223 17.9237 12.1111 17.84 12.0053 17.7508C11.8999 17.6609 11.799 17.564 11.7056 17.4624C11.612 17.3602 11.5243 17.2513 11.4441 17.1384C11.3635 17.0256 11.2898 16.9064 11.2242 16.7843C11.1586 16.6622 11.0996 16.5345 11.0495 16.4048C10.9988 16.2754 10.9562 16.1411 10.9221 16.0063C10.888 15.871 10.8616 15.7321 10.8446 15.5932C10.827 15.4545 10.8179 15.3127 10.8173 15.1724C10.8167 15.032 10.8244 14.89 10.8412 14.7498C10.8575 14.6099 10.8823 14.4694 10.9153 14.3317C10.9485 14.1946 10.9904 14.0576 11.0394 13.9243C11.0892 13.7914 11.1468 13.6601 11.2117 13.5332C11.2761 13.4064 11.3493 13.2828 11.4289 13.1645C11.5077 13.0457 11.5951 12.9316 11.6877 12.8229C11.7804 12.7149 11.8804 12.6111 11.9853 12.5143C12.0902 12.4175 12.2013 12.3259 12.3171 12.2425C12.4321 12.1587 12.5529 12.081 12.6772 12.0117C12.8013 11.9419 12.9304 11.8796 13.0615 11.825C13.1933 11.7709 13.3282 11.7241 13.4647 11.6858Z" fill="#FFD43B" stroke="#1E1E1E" stroke-linecap="round"/>
</g>
<defs>
<clipPath id="clip0_2_234">
<rect width="29.0787" height="30" fill="white"/>
</clipPath>
</defs>
</svg>
