<svg width="14" height="13" viewBox="0 0 14 13" fill="none" xmlns="http://www.w3.org/2000/svg">
<path d="M12.16 11.0094L9.87483 5.47422C9.83263 5.372 9.76104 5.28461 9.66912 5.22312C9.5772 5.16162 9.4691 5.1288 9.35852 5.1288C9.24793 5.1288 9.13983 5.16162 9.04791 5.22312C8.956 5.28461 8.8844 5.372 8.8422 5.47422L6.55704 11.0094C6.52863 11.0773 6.5139 11.1501 6.51372 11.2237C6.51353 11.2973 6.52789 11.3702 6.55596 11.4382C6.58403 11.5062 6.62527 11.568 6.6773 11.62C6.72933 11.6721 6.79113 11.7133 6.85915 11.7414C6.92717 11.7695 7.00007 11.7838 7.07365 11.7837C7.14724 11.7835 7.22007 11.7688 7.28795 11.7404C7.35583 11.712 7.41743 11.6704 7.46921 11.6181C7.52099 11.5658 7.56193 11.5038 7.58968 11.4357L8.05509 10.3086H10.6619L11.1274 11.4357C11.1695 11.538 11.2411 11.6254 11.3331 11.6869C11.425 11.7484 11.5332 11.7813 11.6438 11.7812C11.7356 11.7812 11.8259 11.7585 11.9069 11.7152C11.9878 11.6719 12.0569 11.6094 12.1079 11.5331C12.1589 11.4568 12.1903 11.3691 12.1993 11.2777C12.2084 11.1864 12.1948 11.0942 12.1597 11.0094H12.16ZM8.51644 9.19141L9.35864 7.15127L10.2008 9.19141H8.51644ZM6.81552 8.70695C6.9023 8.58708 6.93797 8.43767 6.91469 8.29152C6.89141 8.14538 6.81109 8.01444 6.69136 7.92746C6.68628 7.92365 6.3105 7.64486 5.76485 7.04564C6.77159 5.68268 7.34187 4.13207 7.57444 3.40234H8.3938C8.54195 3.40234 8.68403 3.34349 8.78878 3.23874C8.89354 3.13398 8.95239 2.9919 8.95239 2.84375C8.95239 2.6956 8.89354 2.55352 8.78878 2.44876C8.68403 2.34401 8.54195 2.28516 8.3938 2.28516H5.44849V1.77734C5.44849 1.6292 5.38963 1.48711 5.28488 1.38236C5.18012 1.2776 5.03804 1.21875 4.88989 1.21875C4.74174 1.21875 4.59966 1.2776 4.49491 1.38236C4.39015 1.48711 4.3313 1.6292 4.3313 1.77734V2.28516H1.38599C1.23784 2.28516 1.09576 2.34401 0.991001 2.44876C0.886244 2.55352 0.827393 2.6956 0.827393 2.84375C0.827393 2.9919 0.886244 3.13398 0.991001 3.23874C1.09576 3.34349 1.23784 3.40234 1.38599 3.40234H6.39429C6.15257 4.08662 5.70747 5.16699 5.02853 6.15367C4.23101 5.09539 3.9347 4.41061 3.93241 4.40502C3.87403 4.27009 3.7648 4.16362 3.62843 4.1087C3.49205 4.05378 3.33952 4.05483 3.20392 4.11164C3.06832 4.16845 2.96058 4.27642 2.90407 4.41215C2.84756 4.54787 2.84684 4.70041 2.90206 4.83666C2.91679 4.8717 3.27149 5.70578 4.24421 6.9677C4.26757 6.99791 4.29067 7.02736 4.31378 7.05682C3.31745 8.18289 2.33991 8.88139 1.93087 9.10686C1.8008 9.1778 1.70424 9.2975 1.66244 9.43964C1.62063 9.58178 1.637 9.7347 1.70794 9.86477C1.77888 9.99483 1.89859 10.0914 2.04072 10.1332C2.18286 10.175 2.33578 10.1586 2.46585 10.0877C2.52069 10.0577 3.69983 9.40494 5.0463 7.91451C5.6181 8.52592 6.01114 8.81436 6.03476 8.83111C6.09417 8.87427 6.16151 8.90528 6.23292 8.92239C6.30433 8.93949 6.37842 8.94235 6.45093 8.93079C6.52345 8.91924 6.59298 8.8935 6.65554 8.85504C6.7181 8.81659 6.77246 8.76618 6.81552 8.7067V8.70695Z" fill="black"/>
</svg>
